{
    "asset" : {
        "generator" : "Khronos glTF Blender I/O v1.4.40",
        "version" : "2.0"
    },
    "scene" : 0,
    "scenes" : [
        {
            "name" : "Scene",
            "nodes" : [
                0
            ]
        }
    ],
    "nodes" : [
        {
            "mesh" : 0,
            "name" : "FreshBox"
        }
    ],
    "materials" : [
        {
            "doubleSided" : true,
            "name" : "White",
            "pbrMetallicRoughness" : {
                "baseColorFactor" : [
                    0.800000011920929,
                    0.800000011920929,
                    0.800000011920929,
                    1
                ],
                "metallicFactor" : 0,
                "roughnessFactor" : 0.2694915235042572
            }
        },
        {
            "doubleSided" : true,
            "name" : "wh",
            "pbrMetallicRoughness" : {
                "baseColorFactor" : [
                    0.03124597668647766,
                    0.03124597668647766,
                    0.03124597668647766,
                    1
                ],
                "metallicFactor" : 0,
                "roughnessFactor" : 0.31694915890693665
            }
        }
    ],
    "meshes" : [
        {
            "name" : "Mesh.173",
            "primitives" : [
                {
                    "attributes" : {
                        "POSITION" : 0,
                        "NORMAL" : 1,
                        "TEXCOORD_0" : 2
                    },
                    "indices" : 3,
                    "material" : 0
                },
                {
                    "attributes" : {
                        "POSITION" : 4,
                        "NORMAL" : 5,
                        "TEXCOORD_0" : 6
                    },
                    "indices" : 7,
                    "material" : 1
                }
            ]
        }
    ],
    "accessors" : [
        {
            "bufferView" : 0,
            "componentType" : 5126,
            "count" : 17100,
            "max" : [
                1.0767123699188232,
                2.1015191078186035,
                0.3534664213657379
            ],
            "min" : [
                -1.0742326974868774,
                0.059857308864593506,
                -0.3544546067714691
            ],
            "type" : "VEC3"
        },
        {
            "bufferView" : 1,
            "componentType" : 5126,
            "count" : 17100,
            "type" : "VEC3"
        },
        {
            "bufferView" : 2,
            "componentType" : 5126,
            "count" : 17100,
            "type" : "VEC2"
        },
        {
            "bufferView" : 3,
            "componentType" : 5123,
            "count" : 63027,
            "type" : "SCALAR"
        },
        {
            "bufferView" : 4,
            "componentType" : 5126,
            "count" : 5170,
            "max" : [
                1.051281452178955,
                2.2110626697540283,
                0.4071281850337982
            ],
            "min" : [
                -1.0454379320144653,
                0.001615285873413086,
                -0.38361555337905884
            ],
            "type" : "VEC3"
        },
        {
            "bufferView" : 5,
            "componentType" : 5126,
            "count" : 5170,
            "type" : "VEC3"
        },
        {
            "bufferView" : 6,
            "componentType" : 5126,
            "count" : 5170,
            "type" : "VEC2"
        },
        {
            "bufferView" : 7,
            "componentType" : 5123,
            "count" : 14946,
            "type" : "SCALAR"
        }
    ],
    "bufferViews" : [
        {
            "buffer" : 0,
            "byteLength" : 205200,
            "byteOffset" : 0
        },
        {
            "buffer" : 0,
            "byteLength" : 205200,
            "byteOffset" : 205200
        },
        {
            "buffer" : 0,
            "byteLength" : 136800,
            "byteOffset" : 410400
        },
        {
            "buffer" : 0,
            "byteLength" : 126054,
            "byteOffset" : 547200
        },
        {
            "buffer" : 0,
            "byteLength" : 62040,
            "byteOffset" : 673256
        },
        {
            "buffer" : 0,
            "byteLength" : 62040,
            "byteOffset" : 735296
        },
        {
            "buffer" : 0,
            "byteLength" : 41360,
            "byteOffset" : 797336
        },
        {
            "buffer" : 0,
            "byteLength" : 29892,
            "byteOffset" : 838696
        }
    ],
    "buffers" : [
        {
            "byteLength" : 868588,
            "uri" : "data:application/octet-stream;base64,"
        }
    ]
}
