{
    "asset" : {
        "generator" : "Khronos glTF Blender I/O v1.4.40",
        "version" : "2.0"
    },
    "scene" : 0,
    "scenes" : [
        {
            "name" : "Scene",
            "nodes" : [
                0
            ]
        }
    ],
    "nodes" : [
        {
            "mesh" : 0,
            "name" : "LOKO"
        }
    ],
    "materials" : [
        {
            "doubleSided" : true,
            "name" : "wh",
            "pbrMetallicRoughness" : {
                "baseColorFactor" : [
                    0.03124597668647766,
                    0.03124597668647766,
                    0.03124597668647766,
                    1
                ],
                "metallicFactor" : 0,
                "roughnessFactor" : 0.31694915890693665
            }
        },
        {
            "doubleSided" : true,
            "name" : "White",
            "pbrMetallicRoughness" : {
                "baseColorFactor" : [
                    0.800000011920929,
                    0.800000011920929,
                    0.800000011920929,
                    1
                ],
                "metallicFactor" : 0,
                "roughnessFactor" : 0.2694915235042572
            }
        },
        {
            "doubleSided" : true,
            "name" : "Concreet",
            "pbrMetallicRoughness" : {
                "baseColorFactor" : [
                    0.1050480529665947,
                    0.1050480529665947,
                    0.1050480529665947,
                    1
                ],
                "metallicFactor" : 0,
                "roughnessFactor" : 0.693220317363739
            }
        }
    ],
    "meshes" : [
        {
            "name" : "Mesh.008",
            "primitives" : [
                {
                    "attributes" : {
                        "POSITION" : 0,
                        "NORMAL" : 1,
                        "TEXCOORD_0" : 2
                    },
                    "indices" : 3,
                    "material" : 0
                },
                {
                    "attributes" : {
                        "POSITION" : 4,
                        "NORMAL" : 5,
                        "TEXCOORD_0" : 6
                    },
                    "indices" : 7,
                    "material" : 1
                },
                {
                    "attributes" : {
                        "POSITION" : 8,
                        "NORMAL" : 9,
                        "TEXCOORD_0" : 10
                    },
                    "indices" : 11,
                    "material" : 2
                }
            ]
        }
    ],
    "accessors" : [
        {
            "bufferView" : 0,
            "componentType" : 5126,
            "count" : 533,
            "max" : [
                0.267005980014801,
                1.1358457803726196,
                0.26819542050361633
            ],
            "min" : [
                -0.272247850894928,
                0.003746963804587722,
                -0.2851942181587219
            ],
            "type" : "VEC3"
        },
        {
            "bufferView" : 1,
            "componentType" : 5126,
            "count" : 533,
            "type" : "VEC3"
        },
        {
            "bufferView" : 2,
            "componentType" : 5126,
            "count" : 533,
            "type" : "VEC2"
        },
        {
            "bufferView" : 3,
            "componentType" : 5123,
            "count" : 846,
            "type" : "SCALAR"
        },
        {
            "bufferView" : 4,
            "componentType" : 5126,
            "count" : 112,
            "max" : [
                0.2670060396194458,
                1.0715471506118774,
                0.2678273022174835
            ],
            "min" : [
                -0.272247850894928,
                0.4941469430923462,
                -0.28519418835639954
            ],
            "type" : "VEC3"
        },
        {
            "bufferView" : 5,
            "componentType" : 5126,
            "count" : 112,
            "type" : "VEC3"
        },
        {
            "bufferView" : 6,
            "componentType" : 5126,
            "count" : 112,
            "type" : "VEC2"
        },
        {
            "bufferView" : 7,
            "componentType" : 5123,
            "count" : 168,
            "type" : "SCALAR"
        },
        {
            "bufferView" : 8,
            "componentType" : 5126,
            "count" : 82,
            "max" : [
                0.24237915873527527,
                0.3017473816871643,
                0.2432064712047577
            ],
            "min" : [
                -0.24762088060379028,
                0.0017469760496169329,
                -0.24679379165172577
            ],
            "type" : "VEC3"
        },
        {
            "bufferView" : 9,
            "componentType" : 5126,
            "count" : 82,
            "type" : "VEC3"
        },
        {
            "bufferView" : 10,
            "componentType" : 5126,
            "count" : 82,
            "type" : "VEC2"
        },
        {
            "bufferView" : 11,
            "componentType" : 5123,
            "count" : 180,
            "type" : "SCALAR"
        }
    ],
    "bufferViews" : [
        {
            "buffer" : 0,
            "byteLength" : 6396,
            "byteOffset" : 0
        },
        {
            "buffer" : 0,
            "byteLength" : 6396,
            "byteOffset" : 6396
        },
        {
            "buffer" : 0,
            "byteLength" : 4264,
            "byteOffset" : 12792
        },
        {
            "buffer" : 0,
            "byteLength" : 1692,
            "byteOffset" : 17056
        },
        {
            "buffer" : 0,
            "byteLength" : 1344,
            "byteOffset" : 18748
        },
        {
            "buffer" : 0,
            "byteLength" : 1344,
            "byteOffset" : 20092
        },
        {
            "buffer" : 0,
            "byteLength" : 896,
            "byteOffset" : 21436
        },
        {
            "buffer" : 0,
            "byteLength" : 336,
            "byteOffset" : 22332
        },
        {
            "buffer" : 0,
            "byteLength" : 984,
            "byteOffset" : 22668
        },
        {
            "buffer" : 0,
            "byteLength" : 984,
            "byteOffset" : 23652
        },
        {
            "buffer" : 0,
            "byteLength" : 656,
            "byteOffset" : 24636
        },
        {
            "buffer" : 0,
            "byteLength" : 360,
            "byteOffset" : 25292
        }
    ],
    "buffers" : [
        {
            "byteLength" : 25652,
            "uri" : "data:application/octet-stream;base64,"
        }
    ]
}
