{
    "asset" : {
        "generator" : "Khronos glTF Blender I/O v1.4.40",
        "version" : "2.0"
    },
    "scene" : 0,
    "scenes" : [
        {
            "name" : "Scene",
            "nodes" : [
                0
            ]
        }
    ],
    "nodes" : [
        {
            "mesh" : 0,
            "name" : "ZK"
        }
    ],
    "materials" : [
        {
            "doubleSided" : true,
            "name" : "wh",
            "pbrMetallicRoughness" : {
                "baseColorFactor" : [
                    0.03124597668647766,
                    0.03124597668647766,
                    0.03124597668647766,
                    1
                ],
                "metallicFactor" : 0,
                "roughnessFactor" : 0.31694915890693665
            }
        },
        {
            "doubleSided" : true,
            "name" : "White",
            "pbrMetallicRoughness" : {
                "baseColorFactor" : [
                    0.800000011920929,
                    0.800000011920929,
                    0.800000011920929,
                    1
                ],
                "metallicFactor" : 0,
                "roughnessFactor" : 0.2694915235042572
            }
        }
    ],
    "meshes" : [
        {
            "name" : "Cube.001",
            "primitives" : [
                {
                    "attributes" : {
                        "POSITION" : 0,
                        "NORMAL" : 1,
                        "TEXCOORD_0" : 2
                    },
                    "indices" : 3,
                    "material" : 0
                },
                {
                    "attributes" : {
                        "POSITION" : 4,
                        "NORMAL" : 5,
                        "TEXCOORD_0" : 6
                    },
                    "indices" : 7,
                    "material" : 1
                }
            ]
        }
    ],
    "accessors" : [
        {
            "bufferView" : 0,
            "componentType" : 5126,
            "count" : 1182,
            "max" : [
                0.8846485018730164,
                1.495884895324707,
                0.19052433967590332
            ],
            "min" : [
                -0.884629487991333,
                0.5017522573471069,
                -0.18317058682441711
            ],
            "type" : "VEC3"
        },
        {
            "bufferView" : 1,
            "componentType" : 5126,
            "count" : 1182,
            "type" : "VEC3"
        },
        {
            "bufferView" : 2,
            "componentType" : 5126,
            "count" : 1182,
            "type" : "VEC2"
        },
        {
            "bufferView" : 3,
            "componentType" : 5123,
            "count" : 1860,
            "type" : "SCALAR"
        },
        {
            "bufferView" : 4,
            "componentType" : 5126,
            "count" : 488,
            "max" : [
                0.8579736351966858,
                1.470001220703125,
                0.18267682194709778
            ],
            "min" : [
                -0.8583260774612427,
                0.5283944606781006,
                -0.18317043781280518
            ],
            "type" : "VEC3"
        },
        {
            "bufferView" : 5,
            "componentType" : 5126,
            "count" : 488,
            "type" : "VEC3"
        },
        {
            "bufferView" : 6,
            "componentType" : 5126,
            "count" : 488,
            "type" : "VEC2"
        },
        {
            "bufferView" : 7,
            "componentType" : 5123,
            "count" : 732,
            "type" : "SCALAR"
        }
    ],
    "bufferViews" : [
        {
            "buffer" : 0,
            "byteLength" : 14184,
            "byteOffset" : 0
        },
        {
            "buffer" : 0,
            "byteLength" : 14184,
            "byteOffset" : 14184
        },
        {
            "buffer" : 0,
            "byteLength" : 9456,
            "byteOffset" : 28368
        },
        {
            "buffer" : 0,
            "byteLength" : 3720,
            "byteOffset" : 37824
        },
        {
            "buffer" : 0,
            "byteLength" : 5856,
            "byteOffset" : 41544
        },
        {
            "buffer" : 0,
            "byteLength" : 5856,
            "byteOffset" : 47400
        },
        {
            "buffer" : 0,
            "byteLength" : 3904,
            "byteOffset" : 53256
        },
        {
            "buffer" : 0,
            "byteLength" : 1464,
            "byteOffset" : 57160
        }
    ],
    "buffers" : [
        {
            "byteLength" : 58624,
            "uri" : "data:application/octet-stream;base64,"
        }
    ]
}
