<svg width="36" height="33" viewBox="0 0 36 33" fill="none" xmlns="http://www.w3.org/2000/svg">
<path d="M35.0126 22.5413C35.0126 19.9006 32.3605 17.5482 28.2629 16.0618M28.4589 28.9291C25.6384 30.0075 21.9882 30.6712 18.0063 30.6712C8.63207 30.6712 0.999969 27.021 0.999969 22.5413C0.999969 19.9006 3.65203 17.5482 7.74967 16.0618" stroke="black" stroke-miterlimit="10"/>
<path d="M26.9657 31.9986L28.6249 28.9292L25.5554 27.27" stroke="black" stroke-miterlimit="10"/>
<path d="M7.80249 6.6687L18.0063 12.3375V24.8088L7.80249 19.14V6.6687Z" stroke="black" stroke-linejoin="round"/>
<path d="M28.2101 6.6687L18.0063 12.3375V24.8088L28.2101 19.14V6.6687Z" stroke="black" stroke-linejoin="round"/>
<path d="M28.2101 6.66875L18.0063 12.3375L7.80252 6.66877L18.0063 1L28.2101 6.66875Z" stroke="black" stroke-linejoin="round"/>
</svg>
