<svg width="37" height="25" viewBox="0 0 37 25" fill="none" xmlns="http://www.w3.org/2000/svg">
<path fill-rule="evenodd" clip-rule="evenodd" d="M10.6187 0H7.79442L0 24.5H1.04939L4.38985 14H14.0233L17.3637 24.5H18.4131L10.6187 0ZM13.7051 13H4.70799L8.52567 1H9.88744L13.7051 13ZM20.7065 1V13H28.2065C29.9419 13 31.5994 12.3595 32.8161 11.2298C34.0314 10.1012 34.7065 8.57884 34.7065 7C34.7065 5.42116 34.0314 3.89877 32.8161 2.7702C31.5994 1.64048 29.9419 1 28.2065 1H20.7065ZM28.2065 0C30.1842 0 32.0876 0.729163 33.4965 2.03741C34.9066 3.34682 35.7065 5.13103 35.7065 7C35.7065 8.86898 34.9066 10.6532 33.4965 11.9626C32.5345 12.8559 31.342 13.4792 30.0526 13.7847L36.2847 24.5001H35.1278L28.9983 13.9609C28.7364 13.9868 28.4721 14 28.2065 14H20.7065V24.5H19.7065V0H20.2065H20.7065H28.2065Z" fill="black"/>
</svg>
