<svg width="25" height="35" viewBox="0 0 25 35" fill="none" xmlns="http://www.w3.org/2000/svg">
<path d="M20.5235 27.8446L24.2969 29.9843L16.0938 34.3593L1 25.8006L5.10156 23.613" stroke="black" stroke-miterlimit="10" stroke-linecap="round" stroke-linejoin="round"/>
<path d="M20.2501 14.2896L23.2032 12.8401L21.3165 11.7703L20.3731 11.2354" stroke="black" stroke-miterlimit="10" stroke-linecap="round" stroke-linejoin="round"/>
<path d="M20.2501 23.0542L23.2032 21.6048L21.3165 20.5349L20.3731 20" stroke="black" stroke-miterlimit="10" stroke-linecap="round" stroke-linejoin="round"/>
<path d="M5.15637 6V1L20.2502 9.2034V32.1721L5.15637 23.4219V18M5.15637 9.4082V12.2109V14.5" stroke="black" stroke-miterlimit="10" stroke-linecap="round" stroke-linejoin="round"/>
<path d="M19.9219 14.4809L4.82807 5.92212L1.875 7.37159L16.9688 15.9304L19.9219 14.4809Z" stroke="black" stroke-miterlimit="10" stroke-linecap="round" stroke-linejoin="round"/>
<path d="M19.9219 23.2309L4.82807 14.6721L1.875 16.1216L16.9688 24.6804L19.9219 23.2309Z" stroke="black" stroke-miterlimit="10" stroke-linecap="round" stroke-linejoin="round"/>
</svg>
