<svg width="19" height="44" viewBox="0 0 19 44" fill="none" xmlns="http://www.w3.org/2000/svg">
<mask id="path-1-inside-1" fill="white">
<path fill-rule="evenodd" clip-rule="evenodd" d="M19 5H0V38.2694V39H0.0961666C0.754573 41.4791 4.71398 43.3848 9.5 43.3848C14.286 43.3848 18.2454 41.4791 18.9038 39H19V38.2694V5Z"/>
</mask>
<path fill-rule="evenodd" clip-rule="evenodd" d="M19 5H0V38.2694V39H0.0961666C0.754573 41.4791 4.71398 43.3848 9.5 43.3848C14.286 43.3848 18.2454 41.4791 18.9038 39H19V38.2694V5Z"/>
<path d="M0 5V4H-1V5H0ZM19 5H20V4H19V5ZM0 39H-1V40H0V39ZM0.0961666 39L1.06266 38.7433L0.865247 38H0.0961666V39ZM18.9038 39V38H18.1348L17.9373 38.7433L18.9038 39ZM19 39V40H20V39H19ZM0 6H19V4H0V6ZM1 38.2694V5H-1V38.2694H1ZM1 39V38.2694H-1V39H1ZM0.0961666 38H0V40H0.0961666V38ZM9.5 42.3848C7.23061 42.3848 5.19347 41.9315 3.67613 41.2173C2.12435 40.4868 1.28225 39.5701 1.06266 38.7433L-0.870328 39.2567C-0.431514 40.9089 1.03529 42.1846 2.82433 43.0268C4.64779 43.8852 6.98337 44.3848 9.5 44.3848V42.3848ZM17.9373 38.7433C17.7177 39.5701 16.8756 40.4868 15.3239 41.2173C13.8065 41.9315 11.7694 42.3848 9.5 42.3848V44.3848C12.0166 44.3848 14.3522 43.8852 16.1757 43.0268C17.9647 42.1846 19.4315 40.9089 19.8703 39.2567L17.9373 38.7433ZM19 38H18.9038V40H19V38ZM18 38.2694V39H20V38.2694H18ZM18 5V38.2694H20V5H18Z" fill="black" mask="url(#path-1-inside-1)"/>
<path d="M18.5 5.11538C18.5 6.25588 17.6338 7.402 15.9805 8.29227C14.3475 9.17158 12.0572 9.73077 9.5 9.73077C6.94283 9.73077 4.65253 9.17158 3.01954 8.29227C1.36617 7.402 0.5 6.25588 0.5 5.11538C0.5 3.97489 1.36617 2.82877 3.01954 1.9385C4.65253 1.05919 6.94283 0.5 9.5 0.5C12.0572 0.5 14.3475 1.05919 15.9805 1.9385C17.6338 2.82877 18.5 3.97489 18.5 5.11538Z"  stroke="black"/>
</svg>
