<svg width="72" height="18" viewBox="0 0 72 18" fill="none" xmlns="http://www.w3.org/2000/svg">
<path d="M44.0197 14.4H55.2533V11.703H47.8862V10.2341H55.2533V7.65753H47.8862V6.27291H55.2533V3.6H44.0197V14.4ZM18.0396 18H28.9805V14.4H18.0396V18ZM28.9805 0H18.0396V3.6H28.9805V0ZM67.4139 3.6L64.3036 6.91104L61.1933 3.6H56.595L61.7788 8.93378L56.595 14.4H61.1933L64.3036 11.0288L67.4139 14.4H71.9878L66.8284 8.93378L72 3.6H67.4139ZM11.1482 3.6L8.94054 10.9806L6.73285 3.6H0V14.4H3.72014V6.27291H3.96409L6.39133 14.388H11.4898L13.9414 6.27291H14.1731V14.388H18.0396V3.6H11.1482ZM35.628 3.6H28.9805V14.4H35.628C39.836 14.4 42.7999 12.3893 42.7999 9.00602C42.7999 5.6107 39.836 3.6 35.628 3.6ZM35.628 11.703H32.847V6.27291H35.628C37.5064 6.27291 38.7627 7.57324 38.7627 8.99398C38.7627 10.4147 37.5186 11.703 35.628 11.703Z" fill="white"/>
</svg>
