<svg width="72" height="17" viewBox="0 0 72 17" fill="none" xmlns="http://www.w3.org/2000/svg">
<path d="M17.7214 17H28.4693V13.6H17.7214V17ZM28.4693 0H17.7214V3.4H28.4693V0ZM68.2376 11.0528H67.986L64.5232 3.4H57.8013V13.6H61.5637V5.92441H61.8273L65.2901 13.5886H72V3.4H68.2376V11.0528ZM56.2556 6.86823C56.2556 4.59398 54.1588 3.4 51.1872 3.4H43.2192V13.6H47.0175V10.3933H49.8812L52.1937 13.6H56.4353L53.7993 10.0067C55.321 9.46087 56.2556 8.27826 56.2556 6.86823ZM51.1872 7.81204H47.0295V5.92441H51.1872C51.9541 5.92441 52.3495 6.29967 52.3495 6.86823C52.3495 7.43679 51.9541 7.81204 51.1872 7.81204ZM10.9516 3.4L8.78283 10.3706L6.61408 3.4H0V13.6H3.65452V5.92441H3.89416L6.27858 13.5886H11.2871L13.6955 5.92441H13.9231V13.5886H17.7214V3.4H10.9516ZM34.9995 3.4H28.4693V13.6H34.9995C39.1333 13.6 42.0449 11.701 42.0449 8.50569C42.0449 5.299 39.1333 3.4 34.9995 3.4ZM34.9995 11.0528H32.2676V5.92441H34.9995C36.8447 5.92441 38.0789 7.15251 38.0789 8.49431C38.0789 9.83612 36.8567 11.0528 34.9995 11.0528Z" fill="white"/>
</svg>
