<?xml version="1.0" encoding="utf-8"?>
<!-- Generator: Adobe Illustrator 24.0.1, SVG Export Plug-In . SVG Version: 6.00 Build 0)  -->
<svg version="1.1" id="Layer_1" xmlns="http://www.w3.org/2000/svg" xmlns:xlink="http://www.w3.org/1999/xlink" x="0px" y="0px"
	 viewBox="0 0 30 30" style="enable-background:new 0 0 30 30;" xml:space="preserve">
<style type="text/css">
	.st0{fill:none;stroke:#EDEDED;stroke-linecap:square;stroke-miterlimit:10;}
	.st1{display:none;}
	.st2{font-family:'Oxygen-Regular';}
	.st3{font-size:12px;}
	.st4{fill:none;stroke:#000000;stroke-linecap:square;stroke-miterlimit:10;}
</style>
<g>
	<g>
		<path class="st0" d="M19.9,17.6l2.8-2.8c1.8-1.8,1.8-4.6,0-6.4l-0.7-0.7c-1.8-1.8-4.6-1.8-6.4,0l-2.8,2.8"/>
		<path class="st0" d="M10.1,13.4l-2.8,2.8c-1.8,1.8-1.8,4.6,0,6.4l0.7,0.7c1.8,1.8,4.6,1.8,6.4,0l2.8-2.8"/>
	</g>
	<line class="st0" x1="11.5" y1="12" x2="18.5" y2="19"/>
</g>
<text transform="matrix(1 0 0 1 5.2041 25.3428)" class="st1 st2 st3">Y</text>
<text transform="matrix(1 0 0 1 17.417 13.8657)" class="st1 st2 st3">X</text>
<rect x="3.5" y="17.5" class="st4" width="9" height="9"/>
<rect x="17.5" y="3.5" class="st4" width="9" height="9"/>
</svg>
