<svg width="43" height="43" viewBox="0 0 43 43" fill="none" xmlns="http://www.w3.org/2000/svg">
<path fill-rule="evenodd" clip-rule="evenodd" d="M42 1H1V42H42V1ZM0 0V43H43V0H0Z" fill="black"/>
<path fill-rule="evenodd" clip-rule="evenodd" d="M22 36C21.7239 36 21.5 35.7761 21.5 35.5V33.4646C19.8039 33.2219 18.5 31.7632 18.5 30C18.5 28.2368 19.8039 26.7781 21.5 26.5354V8.5C21.5 8.22386 21.7239 8 22 8C22.2761 8 22.5 8.22386 22.5 8.5L22.5 26.5354C24.1961 26.7781 25.5 28.2368 25.5 30C25.5 31.7632 24.1961 33.2219 22.5 33.4646V35.5C22.5 35.7761 22.2761 36 22 36ZM19.5 30C19.5 28.6193 20.6193 27.5 22 27.5C23.3807 27.5 24.5 28.6193 24.5 30C24.5 31.3807 23.3807 32.5 22 32.5C20.6193 32.5 19.5 31.3807 19.5 30Z" fill="black"/>
<path fill-rule="evenodd" clip-rule="evenodd" d="M12.5 8C12.7761 8 13 8.22386 13 8.5L13 10.5354C14.6961 10.7781 16 12.2368 16 14C16 15.7632 14.6961 17.2219 13 17.4646L13 35.5C13 35.7761 12.7761 36 12.5 36C12.2239 36 12 35.7761 12 35.5L12 17.4646C10.3039 17.2219 9 15.7632 9 14C9 12.2368 10.3039 10.7781 12 10.5354L12 8.5C12 8.22386 12.2239 8 12.5 8ZM15 14C15 15.3807 13.8807 16.5 12.5 16.5C11.1193 16.5 10 15.3807 10 14C10 12.6193 11.1193 11.5 12.5 11.5C13.8807 11.5 15 12.6193 15 14Z" fill="black"/>
<path fill-rule="evenodd" clip-rule="evenodd" d="M31.5 8C31.7761 8 32 8.22386 32 8.5L32 10.5354C33.6961 10.7781 35 12.2368 35 14C35 15.7632 33.6961 17.2219 32 17.4646L32 35.5C32 35.7761 31.7761 36 31.5 36C31.2239 36 31 35.7761 31 35.5L31 17.4646C29.3039 17.2219 28 15.7632 28 14C28 12.2368 29.3039 10.7781 31 10.5354L31 8.5C31 8.22386 31.2239 8 31.5 8ZM34 14C34 15.3807 32.8807 16.5 31.5 16.5C30.1193 16.5 29 15.3807 29 14C29 12.6193 30.1193 11.5 31.5 11.5C32.8807 11.5 34 12.6193 34 14Z" fill="black"/>
</svg>
