<svg width="23" height="36" viewBox="0 0 23 36" fill="none" xmlns="http://www.w3.org/2000/svg">
<path d="M19.6 34.9062L22.3125 33.4531V9.06612L19.6 10.5192V34.9062Z" stroke="black" stroke-miterlimit="10" stroke-linecap="round" stroke-linejoin="round"/>
<path d="M13.5 32.5L19.6 34.9062L19.6 10.5L0.999975 2.45312L0.999964 27.142L5.64996 29.083" stroke="black" stroke-miterlimit="10" stroke-linecap="round" stroke-linejoin="round"/>
<path d="M1.00002 2.49301L19.7953 10.4937L22.2172 9.00074L3.42189 1L1.00002 2.49301Z" stroke="black" stroke-miterlimit="10" stroke-linecap="round" stroke-linejoin="round"/>
<path d="M6 11.6001V29.1347L9 27.6692V18.9019V13.1347" stroke="black" stroke-miterlimit="10" stroke-linecap="round" stroke-linejoin="round"/>
<path d="M13.5 15.1348H14C14 14.9405 13.8875 14.7638 13.7114 14.6817L13.5 15.1348ZM5.78856 12.0879L13.2886 15.5879L13.7114 14.6817L6.21144 11.1817L5.78856 12.0879ZM13 15.1348V32.9H14V15.1348H13Z" fill="black"/>
</svg>
