<?xml version="1.0" encoding="utf-8"?>
<!-- Generator: Adobe Illustrator 26.0.2, SVG Export Plug-In . SVG Version: 6.00 Build 0)  -->
<svg version="1.1" id="Layer_1" xmlns="http://www.w3.org/2000/svg" xmlns:xlink="http://www.w3.org/1999/xlink" x="0px" y="0px"
	 viewBox="0 0 114 219" style="enable-background:new 0 0 114 219;" xml:space="preserve">
<style type="text/css">
	.st0{fill:none;stroke:#000000;stroke-width:0.5;stroke-linecap:round;stroke-linejoin:round;stroke-miterlimit:10;}
</style>
<path class="st0" d="M9.7,7.6L9.7,7.6L11.3,6l0,0l0,0l0.1,0h0.1l0.1,0l0.1,0h0.1h0.1h1.9h0.1h0.1l0,0l0,0h0l0,0v0l0,0l-1.6,1.6l0,0
	l-0.1,0l-0.1,0l-0.1,0l-0.1,0H12l-0.1,0h-0.1H9.9H9.9l-0.1,0L9.7,7.6L9.7,7.6L9.7,7.6L9.7,7.6L9.7,7.6z"/>
<path class="st0" d="M14,6v1.8h0L14,6L14,6z"/>
<path class="st0" d="M14,7.8V6v0V7.8z"/>
<path class="st0" d="M12.4,7.8V7.6L14,6v1.8H12.4z"/>
<path class="st0" d="M12.4,7.6v0.1h0L12.4,7.6L12.4,7.6z"/>
<path class="st0" d="M12.4,7.6v0.1h0L12.4,7.6L12.4,7.6z"/>
<path class="st0" d="M12.3,7.7v0.1h0.1L12.3,7.7L12.3,7.7z"/>
<path class="st0" d="M12.2,7.7L12.2,7.7L12.2,7.7L12.2,7.7L12.2,7.7z"/>
<path class="st0" d="M12.1,7.7L12.1,7.7L12.1,7.7L12.1,7.7L12.1,7.7z"/>
<path class="st0" d="M12.1,7.7L12.1,7.7L12.1,7.7L12.1,7.7L12.1,7.7z"/>
<path class="st0" d="M12.1,7.7L12.1,7.7L12.1,7.7L12.1,7.7L12.1,7.7z"/>
<path class="st0" d="M11.9,7.8L11.9,7.8L11.9,7.8L11.9,7.8z"/>
<path class="st0" d="M11.8,7.8L11.8,7.8L11.8,7.8z"/>
<path class="st0" d="M10,139.4h0.7v20.4l-0.7,0.7V139.4z"/>
<path class="st0" d="M10.7,77.3v20.4L10,98.5V77.3H10.7z"/>
<path class="st0" d="M10,129.5v-21.2h0.7v20.4L10,129.5z"/>
<path class="st0" d="M10,67.4V46.3h0.7v20.4L10,67.4z"/>
<path class="st0" d="M10,170.4h0.7v18.1l-0.7,0.7V170.4z"/>
<path class="st0" d="M10.9,7.8l-0.2,0.2v27.7L10,36.4V7.8H10.9z"/>
<path class="st0" d="M9.9,139.4v21.2l0,0L9.9,139.4L9.9,139.4z"/>
<path class="st0" d="M9.9,170.4v18.9l0,0L9.9,170.4L9.9,170.4z"/>
<path class="st0" d="M9.9,46.3v21.2l0,0L9.9,46.3L9.9,46.3z"/>
<path class="st0" d="M9.9,108.4v21.2l0,0L9.9,108.4L9.9,108.4z"/>
<path class="st0" d="M9.9,7.8v28.7l0,0L9.9,7.8L9.9,7.8z"/>
<path class="st0" d="M9.9,77.3v21.2l0,0L9.9,77.3L9.9,77.3z"/>
<path class="st0" d="M9.9,139.4v21.3l0.1-0.1L9.9,139.4L9.9,139.4z"/>
<path class="st0" d="M9.9,170.4v18.9l0.1-0.1L9.9,170.4L9.9,170.4z"/>
<path class="st0" d="M9.9,46.3v21.3l0.1-0.1L9.9,46.3L9.9,46.3z"/>
<path class="st0" d="M9.9,108.4v21.3l0.1-0.1L9.9,108.4L9.9,108.4z"/>
<path class="st0" d="M9.9,7.8v28.8l0.1-0.1L9.9,7.8L9.9,7.8z"/>
<path class="st0" d="M9.9,77.3v21.3l0.1-0.1L9.9,77.3L9.9,77.3z"/>
<path class="st0" d="M9.8,46.3v21.3l0.1-0.1L9.8,46.3L9.8,46.3z"/>
<path class="st0" d="M9.8,108.4v21.3l0.1-0.1L9.8,108.4L9.8,108.4z"/>
<path class="st0" d="M9.8,170.4v19l0.1-0.1L9.8,170.4L9.8,170.4z"/>
<path class="st0" d="M9.8,36.6L9.8,36.6L9.9,7.8l-0.1,0V36.6z"/>
<path class="st0" d="M9.8,77.3v21.3l0.1-0.1L9.8,77.3L9.8,77.3z"/>
<path class="st0" d="M9.8,139.4v21.3l0.1-0.1L9.8,139.4L9.8,139.4z"/>
<path class="st0" d="M9.7,7.7v28.9l0.1,0L9.7,7.7L9.7,7.7z"/>
<path class="st0" d="M9.7,108.4v21.4l0.1,0L9.7,108.4L9.7,108.4z"/>
<path class="st0" d="M9.7,46.3v21.4l0.1,0L9.7,46.3L9.7,46.3z"/>
<path class="st0" d="M9.7,170.4v19.1l0.1,0L9.7,170.4L9.7,170.4z"/>
<path class="st0" d="M9.7,77.3v21.4l0.1,0L9.7,77.3L9.7,77.3z"/>
<path class="st0" d="M9.7,139.4v21.4l0.1,0L9.7,139.4L9.7,139.4z"/>
<path class="st0" d="M9.7,46.3v21.4l0,0L9.7,46.3L9.7,46.3z"/>
<path class="st0" d="M9.7,36.7L9.7,36.7l0-28.9l0,0V36.7z"/>
<path class="st0" d="M9.7,170.4v19.1l0,0L9.7,170.4L9.7,170.4z"/>
<path class="st0" d="M9.7,139.4v21.4l0-0.1L9.7,139.4L9.7,139.4z"/>
<path class="st0" d="M9.7,108.4v21.4l0,0L9.7,108.4L9.7,108.4z"/>
<path class="st0" d="M9.7,77.3v21.4l0,0L9.7,77.3L9.7,77.3z"/>
<path class="st0" d="M9.7,46.3v21.5l0,0L9.7,46.3L9.7,46.3z"/>
<path class="st0" d="M9.7,77.3v21.5l0,0L9.7,77.3L9.7,77.3z"/>
<path class="st0" d="M9.7,108.4v21.5l0,0L9.7,108.4L9.7,108.4z"/>
<path class="st0" d="M9.7,139.4v21.5l0,0L9.7,139.4L9.7,139.4z"/>
<path class="st0" d="M9.7,36.7L9.7,36.7l0-29l0,0V36.7z"/>
<path class="st0" d="M9.7,170.4v19.1l0,0L9.7,170.4L9.7,170.4z"/>
<path class="st0" d="M9.7,7.7v29v0V7.7L9.7,7.7z"/>
<path class="st0" d="M9.7,67.7L9.7,67.7V46.3V67.7z"/>
<path class="st0" d="M9.7,160.9v-21.5V160.9z"/>
<path class="st0" d="M9.7,98.8L9.7,98.8V77.3V98.8z"/>
<path class="st0" d="M9.7,129.8L9.7,129.8v-21.5V129.8z"/>
<path class="st0" d="M9.7,189.6L9.7,189.6v-19.1V189.6z"/>
<path class="st0" d="M9.7,160.9v-21.5V160.9z"/>
<path class="st0" d="M9.7,129.8v-21.5V129.8z"/>
<path class="st0" d="M9.7,67.8V46.3V67.8z"/>
<path class="st0" d="M9.7,98.8V77.3V98.8z"/>
<path class="st0" d="M9.7,7.7v29.1V7.7L9.7,7.7z"/>
<path class="st0" d="M9.7,189.6v-19.2V189.6z"/>
<path class="st0" d="M1.2,199.1L1.2,199.1l89.9,0.1v-0.1H1.2z"/>
<path class="st0" d="M91,199.2h-90v9h90V199.2z"/>
<path class="st0" d="M101.6,7.9v181.5h0.2V7.8L101.6,7.9z"/>
<path class="st0" d="M10.9,7.8l-0.2,0.2h90.9l0.2-0.2H10.9z"/>
<path class="st0" d="M10.7,108.4h80.8v2v0v0.1l0,0.1l0,0.1l0,0.1l0,0l0,0h0h0.4l0,0l1-1l1.3-1.1l2.6-1.3l2.2-0.2l0.8,0.2l0.3,0h0.4
	l0.3-0.1l0.5-0.5v21.9H10.7V108.4z"/>
<path class="st0" d="M91.5,77.3v2v0v0.1l0,0.1l0,0.1l0,0.1l0,0l0,0h0h0.4l0,0l1-1l1.3-1.1l2.6-1.3l2.2-0.2l0.8,0.2l0.3,0h0.4
	l0.3-0.1l0.5-0.5v21.9H10.7V77.3H91.5z"/>
<path class="st0" d="M101.6,7.9H10.7v27.7h90.9V7.9z"/>
<path class="st0" d="M10.7,46.3h80.8v2v0v0.1l0,0.1l0,0.1l0,0.1l0,0l0,0h0h0.4l0,0l1-1.1l1.3-1.1l2.6-1.3l2.2-0.2l0.8,0.2l0.3,0h0.4
	l0.3-0.1l0.5-0.5v21.9H10.7V46.3z"/>
<path class="st0" d="M10.7,170.4h80.8v2v0v0.1l0,0.1l0,0.1l0,0.1l0,0l0,0h0h0.4l0,0l1-1.1l1.3-1.1l2.6-1.3l2.2-0.2l0.8,0.2l0.3,0
	h0.4l0.3-0.1l0.5-0.5v19.6H10.7V170.4z"/>
<path class="st0" d="M10.7,139.4h80.8v2v0v0.1l0,0.1l0,0.1l0,0.1l0,0l0,0h0h0.4l0,0l1-1.1l1.3-1.1l2.6-1.3l2.2-0.2l0.8,0.2l0.3,0
	h0.4l0.3-0.1l0.5-0.5v21.9H10.7V139.4z"/>
<path class="st0" d="M100.5,7.6L100.5,7.6l1.6-1.7l0,0l0,0l0.1,0h0.1l0.1,0l0.1,0h0.1h0.1h1.9h0.1h0.1l0,0l0,0h0l0,0v0l0,0l-1.6,1.6
	l0,0l-0.1,0l-0.1,0l-0.1,0l-0.1,0h-0.1l-0.1,0h-0.1h-1.9h-0.1l-0.1,0L100.5,7.6L100.5,7.6L100.5,7.6L100.5,7.6L100.5,7.6z"/>
<path class="st0" d="M104.9,6v190.7l0,0L104.9,6L104.9,6z"/>
<path class="st0" d="M104.9,196.6V6v0V196.6z"/>
<path class="st0" d="M103.3,7.6l1.6-1.6v190.6l-1.6,1.6V7.6z"/>
<path class="st0" d="M103.3,7.6v190.6h0L103.3,7.6L103.3,7.6z"/>
<path class="st0" d="M103.2,7.6v190.7l0,0L103.2,7.6L103.2,7.6z"/>
<path class="st0" d="M103.2,7.7v190.7l0.1,0L103.2,7.7L103.2,7.7z"/>
<path class="st0" d="M103.1,7.7v190.7l0.1,0L103.1,7.7L103.1,7.7z"/>
<path class="st0" d="M103,7.7v190.7l0.1,0L103,7.7L103,7.7z"/>
<path class="st0" d="M103,7.7v190.7l0.1,0L103,7.7L103,7.7z"/>
<path class="st0" d="M103,7.7L103,7.7l-0.1,190.7h0.1V7.7z"/>
<path class="st0" d="M102.8,7.8v190.7l0.1,0L102.8,7.8L102.8,7.8z"/>
<path class="st0" d="M102.8,7.8L102.8,7.8l-0.1,190.7h0.1V7.8z"/>
<path class="st0" d="M102.7,7.8L102.7,7.8l0,190.7h0V7.8z"/>
<path class="st0" d="M101.8,7.8h0.9v190.7h-0.2v-9h-0.7V7.8z"/>
<path class="st0" d="M100.7,7.8L100.7,7.8L100.7,7.8z"/>
<path class="st0" d="M100.7,7.8L100.7,7.8L100.7,7.8L100.7,7.8z"/>
<path class="st0" d="M100.7,7.7L100.7,7.7L100.7,7.7L100.7,7.7L100.7,7.7z"/>
<path class="st0" d="M100.6,7.8L100.6,7.8L100.6,7.8L100.6,7.8L100.6,7.8z"/>
<path class="st0" d="M100.5,7.8L100.5,7.8L100.5,7.8L100.5,7.8L100.5,7.8z"/>
<path class="st0" d="M100.5,7.7L100.5,7.7L100.5,7.7L100.5,7.7z"/>
<path class="st0" d="M100.5,7.7v0.1V7.7L100.5,7.7z"/>
<path class="st0" d="M91.9,198.2H1.1v0.9h90.9V198.2z"/>
<path class="st0" d="M10.7,188.5h90.9l-9.6,9.7H1.1L10.7,188.5z"/>
<path class="st0" d="M92,199.1v-0.9l9.6-9.7v0.9L92,199.1z"/>
<path class="st0" d="M92.9,199.1h-1.8v9.1h1.8V199.1z"/>
<path class="st0" d="M92,199.1l9.6-9.7h0.9l-9.6,9.7H92z"/>
<path class="st0" d="M92.8,199.1l9.6-9.7v9.2l-9.6,9.7V199.1z"/>
<path class="st0" d="M1.1,199.2H0.2v9h0.9V199.2z"/>
<path class="st0" d="M0.2,199.2l0.9-0.9v0.8h0.1l-0.1,0.1H0.2z"/>
<path class="st0" d="M100.1,45.3l0.3,0h0.4l-0.2,0H100.1z"/>
<path class="st0" d="M99.7,45.1l0.9,0.3h-0.5l-0.8-0.2L99.7,45.1z"/>
<path class="st0" d="M92,48.2v-2l9.6-9.7v8.2l-0.5,0.5l-0.3,0.1l-0.2,0l-0.9-0.3l-2.5,0.3l-2.6,1.3l-1.3,1.1l-1,1.1l0,0h0l0,0l0,0
	l0-0.1l0-0.1v-0.1L92,48.2L92,48.2z"/>
<path class="st0" d="M92.1,48.8h-0.4h0H92.1L92.1,48.8z"/>
<path class="st0" d="M91.6,48.6L91.6,48.6l0.5,0.1l0-0.1H91.6z"/>
<path class="st0" d="M91.6,48.8L91.6,48.8l0.5,0l0,0H91.6z"/>
<path class="st0" d="M91.6,48.7L91.6,48.7l0.5,0l0,0H91.6z"/>
<path class="st0" d="M91.5,48.5L91.5,48.5l0.5,0.1l0-0.1H91.5z"/>
<path class="st0" d="M91.5,48.4l0,0.1H92v-0.1H91.5z"/>
<path class="st0" d="M91.5,48.3v0.1H92l0-0.1H91.5z"/>
<path class="st0" d="M91.9,46.3h-0.4v2h0.4V46.3z"/>
<path class="st0" d="M91.9,45.4H1.1v0.9h90.9V45.4z"/>
<path class="st0" d="M1.1,45.4l9.7-9.7h90.9L92,45.4H1.1z"/>
<path class="st0" d="M92,45.4l9.6-9.7v0.9L92,46.3V45.4z"/>
<path class="st0" d="M1.5,48.3L1.5,48.3v-2h3.3l-0.7,0.3l-1.3,1.1l-1,1.1l0,0h0l0,0l0,0l0-0.1l0-0.1l0-0.1V48.3z"/>
<path class="st0" d="M1.7,48.8H1.2h0H1.7L1.7,48.8z"/>
<path class="st0" d="M1.1,48.6L1.1,48.6l0.5,0.1l0-0.1H1.1z"/>
<path class="st0" d="M1.2,48.8L1.2,48.8l0.5,0l0,0H1.2z"/>
<path class="st0" d="M1.2,48.7L1.2,48.7l0.5,0l0,0H1.2z"/>
<path class="st0" d="M1.1,48.5L1.1,48.5l0.5,0.1l0-0.1H1.1z"/>
<path class="st0" d="M1.1,48.4v0.1h0.5l0-0.1H1.1z"/>
<path class="st0" d="M1.1,48.3l0,0.1h0.4v-0.1H1.1z"/>
<path class="st0" d="M1.5,46.3H1.1v2h0.5V46.3z"/>
<path class="st0" d="M100.1,76.4l0.3,0h0.4l-0.2,0H100.1z"/>
<path class="st0" d="M99.4,76.1l0.3,0l0.9,0.3h-0.5L99.4,76.1z"/>
<path class="st0" d="M92,79.3v-2l9.6-9.7v8.2l-0.5,0.5l-0.3,0.1l-0.2,0l-0.9-0.3l-2.5,0.3l-2.6,1.3l-1.3,1.1l-1,1l0,0h0l0,0l0,0
	l0-0.1l0-0.1v-0.1L92,79.3L92,79.3z"/>
<path class="st0" d="M92.1,79.8h-0.4h0H92.1L92.1,79.8z"/>
<path class="st0" d="M91.6,79.6L91.6,79.6l0.5,0.1l0-0.1H91.6z"/>
<path class="st0" d="M91.6,79.8L91.6,79.8l0.5,0l0,0H91.6z"/>
<path class="st0" d="M91.6,79.7L91.6,79.7l0.5,0l0,0H91.6z"/>
<path class="st0" d="M91.5,79.6L91.5,79.6l0.5,0.1l0-0.1H91.5z"/>
<path class="st0" d="M91.5,79.4l0,0.1H92v-0.1H91.5z"/>
<path class="st0" d="M91.5,79.3v0.1H92l0-0.1H91.5z"/>
<path class="st0" d="M91.9,77.3h-0.4v2h0.4V77.3z"/>
<path class="st0" d="M91.9,76.4H1.1v0.9h90.9V76.4z"/>
<path class="st0" d="M10.7,66.7h90.9L92,76.4H1.1L10.7,66.7z"/>
<path class="st0" d="M92,77.3v-0.9l9.6-9.7v0.9L92,77.3z"/>
<path class="st0" d="M1.5,79.3L1.5,79.3v-2h3.3l-0.7,0.3l-1.3,1.1l-1,1l0,0h0l0,0l0,0l0-0.1l0-0.1l0-0.1V79.3z"/>
<path class="st0" d="M1.7,79.8H1.2h0H1.7L1.7,79.8z"/>
<path class="st0" d="M1.1,79.6L1.1,79.6l0.5,0.1l0-0.1H1.1z"/>
<path class="st0" d="M1.2,79.8L1.2,79.8l0.5,0l0,0H1.2z"/>
<path class="st0" d="M1.2,79.7L1.2,79.7l0.5,0l0,0H1.2z"/>
<path class="st0" d="M1.1,79.6L1.1,79.6l0.5,0.1l0-0.1H1.1z"/>
<path class="st0" d="M1.1,79.4v0.1h0.5l0-0.1H1.1z"/>
<path class="st0" d="M1.1,79.3l0,0.1h0.4v-0.1H1.1z"/>
<path class="st0" d="M1.5,77.3H1.1v2h0.5V77.3z"/>
<path class="st0" d="M100.1,107.4l0.3,0h0.4l-0.2,0H100.1z"/>
<path class="st0" d="M99.7,107.1l0.9,0.3h-0.5l-0.8-0.2L99.7,107.1z"/>
<path class="st0" d="M92,110.3v-2l9.6-9.7v8.2l-0.5,0.5l-0.3,0.1l-0.2,0l-0.9-0.3l-2.5,0.3l-2.6,1.3l-1.3,1.1l-1,1l0,0h0l0,0l0,0
	l0-0.1l0-0.1v-0.1L92,110.3L92,110.3z"/>
<path class="st0" d="M92.1,110.8h-0.4h0H92.1L92.1,110.8z"/>
<path class="st0" d="M91.6,110.7L91.6,110.7l0.5,0.1l0-0.1H91.6z"/>
<path class="st0" d="M91.6,110.8L91.6,110.8l0.5,0l0,0H91.6z"/>
<path class="st0" d="M91.6,110.8L91.6,110.8l0.5,0l0,0H91.6z"/>
<path class="st0" d="M91.5,110.6L91.5,110.6l0.5,0.1l0-0.1H91.5z"/>
<path class="st0" d="M91.5,110.5l0,0.1H92v-0.1H91.5z"/>
<path class="st0" d="M91.5,110.4v0.1H92l0-0.1H91.5z"/>
<path class="st0" d="M91.9,108.4h-0.4v2h0.4V108.4z"/>
<path class="st0" d="M91.9,107.5H1.1v0.9h90.9V107.5z"/>
<path class="st0" d="M10.7,97.7h90.9l-9.6,9.7H1.1L10.7,97.7z"/>
<path class="st0" d="M92,107.5l9.6-9.7v0.9l-9.6,9.7V107.5z"/>
<path class="st0" d="M1.5,110.4L1.5,110.4v-2h3.3l-0.7,0.3l-1.3,1.1l-1,1l0,0h0l0,0l0,0l0-0.1l0-0.1l0-0.1V110.4z"/>
<path class="st0" d="M1.7,110.8H1.2h0H1.7L1.7,110.8z"/>
<path class="st0" d="M1.1,110.7L1.1,110.7l0.5,0.1l0-0.1H1.1z"/>
<path class="st0" d="M1.2,110.8L1.2,110.8l0.5,0l0,0H1.2z"/>
<path class="st0" d="M1.2,110.8L1.2,110.8l0.5,0l0,0H1.2z"/>
<path class="st0" d="M1.1,110.6L1.1,110.6l0.5,0.1l0-0.1H1.1z"/>
<path class="st0" d="M1.1,110.5v0.1h0.5l0-0.1H1.1z"/>
<path class="st0" d="M1.1,110.4l0,0.1h0.4v-0.1H1.1z"/>
<path class="st0" d="M1.5,108.4H1.1v2h0.5V108.4z"/>
<path class="st0" d="M100.1,138.4l0.3,0h0.4l-0.2,0H100.1z"/>
<path class="st0" d="M99.4,138.2l0.3,0l0.9,0.3h-0.5L99.4,138.2z"/>
<path class="st0" d="M92,141.3v-2l9.6-9.7v8.2l-0.5,0.5l-0.3,0.1l-0.2,0l-0.9-0.3l-2.5,0.3l-2.6,1.3l-1.3,1.1l-1,1.1l0,0h0l0,0l0,0
	l0-0.1l0-0.1v-0.1L92,141.3L92,141.3z"/>
<path class="st0" d="M92.1,141.9h-0.4h0H92.1L92.1,141.9z"/>
<path class="st0" d="M91.6,141.7L91.6,141.7l0.5,0.1l0-0.1H91.6z"/>
<path class="st0" d="M91.6,141.9L91.6,141.9l0.5,0l0,0H91.6z"/>
<path class="st0" d="M91.6,141.8L91.6,141.8l0.5,0l0,0H91.6z"/>
<path class="st0" d="M91.5,141.6L91.5,141.6l0.5,0.1l0-0.1H91.5z"/>
<path class="st0" d="M91.5,141.5l0,0.1H92v-0.1H91.5z"/>
<path class="st0" d="M91.5,141.4v0.1H92l0-0.1H91.5z"/>
<path class="st0" d="M91.9,139.4h-0.4v2h0.4V139.4z"/>
<path class="st0" d="M91.9,138.5H1.1v0.9h90.9V138.5z"/>
<path class="st0" d="M1.1,138.5l9.7-9.7h90.9l-9.6,9.7H1.1z"/>
<path class="st0" d="M92,138.5l9.6-9.7v0.9l-9.6,9.7V138.5z"/>
<path class="st0" d="M1.5,141.3v-2h3.3l-0.7,0.3l-1.3,1.1l-1,1.1l0,0h0l0,0l0,0l0-0.1l0-0.1l0-0.1V141.3L1.5,141.3z"/>
<path class="st0" d="M1.7,141.9H1.2h0H1.7L1.7,141.9z"/>
<path class="st0" d="M1.1,141.7L1.1,141.7l0.5,0.1l0-0.1H1.1z"/>
<path class="st0" d="M1.2,141.9L1.2,141.9l0.5,0l0,0H1.2z"/>
<path class="st0" d="M1.2,141.8L1.2,141.8l0.5,0l0,0H1.2z"/>
<path class="st0" d="M1.1,141.6L1.1,141.6l0.5,0.1l0-0.1H1.1z"/>
<path class="st0" d="M1.1,141.5v0.1h0.5l0-0.1H1.1z"/>
<path class="st0" d="M1.1,141.4l0,0.1h0.4v-0.1H1.1z"/>
<path class="st0" d="M1.5,139.4H1.1v2h0.5V139.4z"/>
<path class="st0" d="M100.1,169.5l0.3,0h0.4l-0.2,0H100.1z"/>
<path class="st0" d="M99.7,169.2l0.9,0.3h-0.5l-0.8-0.2L99.7,169.2z"/>
<path class="st0" d="M92,172.4v-2l9.6-9.7v8.2l-0.5,0.5l-0.3,0.1l-0.2,0l-0.9-0.3l-2.5,0.3l-2.6,1.3l-1.3,1.1l-1,1.1l0,0h0l0,0l0,0
	l0-0.1l0-0.1v-0.1L92,172.4L92,172.4z"/>
<path class="st0" d="M92.1,172.9h-0.4h0H92.1L92.1,172.9z"/>
<path class="st0" d="M91.6,172.8L91.6,172.8l0.5,0.1l0-0.1H91.6z"/>
<path class="st0" d="M91.6,172.9L91.6,172.9l0.5,0l0,0H91.6z"/>
<path class="st0" d="M91.6,172.8L91.6,172.8l0.5,0l0,0H91.6z"/>
<path class="st0" d="M91.5,172.7L91.5,172.7l0.5,0.1l0-0.1H91.5z"/>
<path class="st0" d="M91.5,172.5l0,0.1H92v-0.1H91.5z"/>
<path class="st0" d="M91.5,172.4v0.1H92l0-0.1H91.5z"/>
<path class="st0" d="M91.9,170.4h-0.4v2h0.4V170.4z"/>
<path class="st0" d="M91.9,169.5H1.1v0.9h90.9V169.5z"/>
<path class="st0" d="M10.7,159.8h90.9l-9.6,9.7H1.1L10.7,159.8z"/>
<path class="st0" d="M92,170.4v-0.9l9.6-9.7v0.9L92,170.4z"/>
<path class="st0" d="M1.5,172.4L1.5,172.4v-2h3.3l-0.7,0.3l-1.3,1.1l-1,1.1l0,0h0l0,0l0,0l0-0.1l0-0.1l0-0.1V172.4z"/>
<path class="st0" d="M1.7,172.9H1.2h0H1.7L1.7,172.9z"/>
<path class="st0" d="M1.1,172.8L1.1,172.8l0.5,0.1l0-0.1H1.1z"/>
<path class="st0" d="M1.2,172.9L1.2,172.9l0.5,0l0,0H1.2z"/>
<path class="st0" d="M1.2,172.8L1.2,172.8l0.5,0l0,0H1.2z"/>
<path class="st0" d="M1.1,172.7L1.1,172.7l0.5,0.1l0-0.1H1.1z"/>
<path class="st0" d="M1.1,172.5v0.1h0.5l0-0.1H1.1z"/>
<path class="st0" d="M1.1,172.4l0,0.1h0.4v-0.1H1.1z"/>
<path class="st0" d="M1.5,170.4H1.1v2h0.5V170.4z"/>
<path class="st0" d="M9.7,7.6L9.7,7.6"/>
<path class="st0" d="M11.3,6L9.7,7.6"/>
<path class="st0" d="M9.7,189.6v-19.2"/>
<path class="st0" d="M9.7,160.9v-21.5"/>
<path class="st0" d="M9.7,129.8v-21.5"/>
<path class="st0" d="M9.7,98.8V77.3"/>
<path class="st0" d="M9.7,67.8V46.3"/>
<path class="st0" d="M9.7,36.7V7.6"/>
<path class="st0" d="M9.7,7.6L9.7,7.6"/>
<path class="st0" d="M9.7,7.6L9.7,7.6"/>
<path class="st0" d="M9.7,7.7L9.7,7.7"/>
<path class="st0" d="M9.7,7.7L9.7,7.7"/>
<path class="st0" d="M9.7,7.7L9.7,7.7"/>
<path class="st0" d="M9.7,7.7L9.7,7.7"/>
<path class="st0" d="M9.8,7.7L9.8,7.7"/>
<path class="st0" d="M9.9,7.8L9.9,7.8"/>
<path class="st0" d="M9.9,7.8L9.9,7.8"/>
<path class="st0" d="M11.8,7.8L11.8,7.8"/>
<path class="st0" d="M11.8,7.8L11.8,7.8"/>
<path class="st0" d="M11.9,7.8L11.9,7.8"/>
<path class="st0" d="M12,7.7L12,7.7"/>
<path class="st0" d="M12.1,7.7L12.1,7.7"/>
<path class="st0" d="M12.1,7.7L12.1,7.7"/>
<path class="st0" d="M12.2,7.7L12.2,7.7"/>
<path class="st0" d="M12.3,7.7L12.3,7.7"/>
<path class="st0" d="M12.4,7.6L12.4,7.6"/>
<path class="st0" d="M12.4,7.6L12.4,7.6"/>
<path class="st0" d="M12.4,7.6L14,6"/>
<path class="st0" d="M14,6L14,6"/>
<path class="st0" d="M14,6L14,6"/>
<path class="st0" d="M14,6L14,6"/>
<path class="st0" d="M14,5.9L14,5.9"/>
<path class="st0" d="M14,5.9L14,5.9"/>
<path class="st0" d="M14,5.9L14,5.9"/>
<path class="st0" d="M13.9,5.9L13.9,5.9"/>
<path class="st0" d="M13.9,5.8L13.9,5.8"/>
<path class="st0" d="M13.8,5.8L13.8,5.8"/>
<path class="st0" d="M13.8,5.8L13.8,5.8"/>
<path class="st0" d="M13.7,5.8h-1.8"/>
<path class="st0" d="M11.9,5.8L11.9,5.8"/>
<path class="st0" d="M11.8,5.8L11.8,5.8"/>
<path class="st0" d="M11.8,5.8L11.8,5.8"/>
<path class="st0" d="M11.7,5.8L11.7,5.8"/>
<path class="st0" d="M11.6,5.9L11.6,5.9"/>
<path class="st0" d="M11.5,5.9L11.5,5.9"/>
<path class="st0" d="M11.4,5.9L11.4,5.9"/>
<path class="st0" d="M11.4,5.9L11.4,5.9"/>
<path class="st0" d="M11.3,6L11.3,6"/>
<path class="st0" d="M11.3,6L11.3,6"/>
<path class="st0" d="M14,7.8V6"/>
<path class="st0" d="M92,208.3v-9"/>
<path class="st0" d="M1.1,208.3H92"/>
<path class="st0" d="M1.1,208.3v-9"/>
<path class="st0" d="M1.2,199.1L1.2,199.1"/>
<path class="st0" d="M1.1,199.2H92"/>
<path class="st0" d="M100.8,7.8h-89"/>
<path class="st0" d="M101.8,189.4V7.8"/>
<path class="st0" d="M101.6,7.9l0.2-0.2"/>
<path class="st0" d="M10.7,188.5v-18.1"/>
<path class="st0" d="M10.7,159.8v-20.4"/>
<path class="st0" d="M10.7,128.8v-20.4"/>
<path class="st0" d="M10.7,97.7V77.3"/>
<path class="st0" d="M10.7,66.7V46.3"/>
<path class="st0" d="M10.7,35.7V7.9"/>
<path class="st0" d="M10.9,7.8l-0.2,0.2"/>
<path class="st0" d="M10.7,7.9h90.9"/>
<path class="st0" d="M100.6,7.6L100.6,7.6"/>
<path class="st0" d="M102.2,6l-1.6,1.6"/>
<path class="st0" d="M104.9,196.6L104.9,196.6"/>
<path class="st0" d="M103.3,198.3l1.6-1.6"/>
<path class="st0" d="M103.3,198.3L103.3,198.3"/>
<path class="st0" d="M103.2,198.3L103.2,198.3"/>
<path class="st0" d="M103.2,198.3L103.2,198.3"/>
<path class="st0" d="M103.1,198.3L103.1,198.3"/>
<path class="st0" d="M103,198.4L103,198.4"/>
<path class="st0" d="M103,198.4L103,198.4"/>
<path class="st0" d="M102.9,198.4L102.9,198.4"/>
<path class="st0" d="M102.8,198.4L102.8,198.4"/>
<path class="st0" d="M102.7,198.4L102.7,198.4"/>
<path class="st0" d="M102.7,198.4L102.7,198.4"/>
<path class="st0" d="M102.5,198.4h0.2"/>
<path class="st0" d="M100.5,7.8V7.6"/>
<path class="st0" d="M100.5,7.6L100.5,7.6"/>
<path class="st0" d="M100.5,7.6L100.5,7.6"/>
<path class="st0" d="M100.5,7.7L100.5,7.7"/>
<path class="st0" d="M100.5,7.7L100.5,7.7"/>
<path class="st0" d="M100.6,7.7L100.6,7.7"/>
<path class="st0" d="M100.6,7.7L100.6,7.7"/>
<path class="st0" d="M100.7,7.7L100.7,7.7"/>
<path class="st0" d="M100.7,7.8L100.7,7.8"/>
<path class="st0" d="M100.8,7.8L100.8,7.8"/>
<path class="st0" d="M102.7,7.8L102.7,7.8"/>
<path class="st0" d="M102.7,7.8L102.7,7.8"/>
<path class="st0" d="M102.8,7.8L102.8,7.8"/>
<path class="st0" d="M102.9,7.7L102.9,7.7"/>
<path class="st0" d="M103,7.7L103,7.7"/>
<path class="st0" d="M103,7.7L103,7.7"/>
<path class="st0" d="M103.1,7.7L103.1,7.7"/>
<path class="st0" d="M103.2,7.7L103.2,7.7"/>
<path class="st0" d="M103.2,7.6L103.2,7.6"/>
<path class="st0" d="M103.3,7.6L103.3,7.6"/>
<path class="st0" d="M103.3,7.6l1.6-1.6"/>
<path class="st0" d="M104.9,6L104.9,6"/>
<path class="st0" d="M104.9,6L104.9,6"/>
<path class="st0" d="M104.9,6L104.9,6"/>
<path class="st0" d="M104.9,5.9L104.9,5.9"/>
<path class="st0" d="M104.9,5.9L104.9,5.9"/>
<path class="st0" d="M104.9,5.9L104.9,5.9"/>
<path class="st0" d="M104.8,5.9L104.8,5.9"/>
<path class="st0" d="M104.8,5.8L104.8,5.8"/>
<path class="st0" d="M104.7,5.8L104.7,5.8"/>
<path class="st0" d="M104.6,5.8L104.6,5.8"/>
<path class="st0" d="M104.6,5.8h-1.8"/>
<path class="st0" d="M102.8,5.8L102.8,5.8"/>
<path class="st0" d="M102.7,5.8L102.7,5.8"/>
<path class="st0" d="M102.7,5.8L102.7,5.8"/>
<path class="st0" d="M102.6,5.8L102.6,5.8"/>
<path class="st0" d="M102.5,5.9L102.5,5.9"/>
<path class="st0" d="M102.4,5.9L102.4,5.9"/>
<path class="st0" d="M102.3,5.9L102.3,5.9"/>
<path class="st0" d="M102.3,5.9L102.3,5.9"/>
<path class="st0" d="M102.2,6L102.2,6"/>
<path class="st0" d="M102.2,6L102.2,6"/>
<path class="st0" d="M104.9,196.6V6"/>
<path class="st0" d="M1.1,199.1v-0.9"/>
<path class="st0" d="M10.7,188.5l-9.7,9.7"/>
<path class="st0" d="M101.6,188.5H10.7"/>
<path class="st0" d="M92,199.1l9.6-9.7"/>
<path class="st0" d="M1.1,199.1h90"/>
<path class="st0" d="M92,199.1v-0.9"/>
<path class="st0" d="M1.1,198.2H92"/>
<path class="st0" d="M92,198.2l9.6-9.7"/>
<path class="st0" d="M91.1,199.2L91.1,199.2"/>
<path class="st0" d="M91.1,208.3v-9"/>
<path class="st0" d="M102.5,189.4h-0.9"/>
<path class="st0" d="M102.5,198.6v-9.2"/>
<path class="st0" d="M92.8,208.3l9.6-9.7"/>
<path class="st0" d="M91.1,208.3h1.8"/>
<path class="st0" d="M92.8,208.3v-9.1"/>
<path class="st0" d="M92.8,199.1l9.6-9.7"/>
<path class="st0" d="M0.2,208.3v-9"/>
<path class="st0" d="M1.1,198.3l-0.9,0.9"/>
<path class="st0" d="M0.2,208.3H2"/>
<path class="st0" d="M2,208.3v-9"/>
<path class="st0" d="M0.2,199.2H2"/>
<path class="st0" d="M2,199.2L2,199.2"/>
<path class="st0" d="M101.3,45l-0.1,0.2"/>
<path class="st0" d="M101.6,44.8l-0.3,0.3"/>
<path class="st0" d="M101.6,36.6v8.2"/>
<path class="st0" d="M101.1,45.2l-0.3,0.1"/>
<path class="st0" d="M100.8,45.4h-0.4"/>
<path class="st0" d="M100.8,45.4l-0.2,0"/>
<path class="st0" d="M100.4,45.4l-0.3,0"/>
<path class="st0" d="M100.6,45.3l-0.9-0.3"/>
<path class="st0" d="M99.7,45.1l-2.5,0.3"/>
<path class="st0" d="M100.1,45.3l-0.8-0.2"/>
<path class="st0" d="M97.2,45.3l-2.6,1.3"/>
<path class="st0" d="M94.6,46.6l-1.3,1.1"/>
<path class="st0" d="M93.2,47.7l-1,1"/>
<path class="st0" d="M92.2,48.7L92.2,48.7"/>
<path class="st0" d="M92,46.3l9.6-9.7"/>
<path class="st0" d="M92.2,48.8L92.2,48.8"/>
<path class="st0" d="M92.2,48.8L92.2,48.8"/>
<path class="st0" d="M92.2,48.8h-0.4"/>
<path class="st0" d="M91.7,48.8L91.7,48.8"/>
<path class="st0" d="M92.1,48.8L92.1,48.8"/>
<path class="st0" d="M91.7,48.8L91.7,48.8"/>
<path class="st0" d="M92,48.7L92,48.7"/>
<path class="st0" d="M92.1,48.8L92.1,48.8"/>
<path class="st0" d="M91.6,48.8L91.6,48.8"/>
<path class="st0" d="M92,48.6L92,48.6"/>
<path class="st0" d="M91.6,48.7L91.6,48.7"/>
<path class="st0" d="M91.6,48.6L91.6,48.6"/>
<path class="st0" d="M92,48.5v-0.1"/>
<path class="st0" d="M92,48.4l0-0.1"/>
<path class="st0" d="M91.5,48.5l0-0.1"/>
<path class="st0" d="M92,48.3L92,48.3"/>
<path class="st0" d="M91.5,48.4v-0.1"/>
<path class="st0" d="M92,48.2v-2"/>
<path class="st0" d="M92,46.3h-0.4"/>
<path class="st0" d="M91.5,48.3L91.5,48.3"/>
<path class="st0" d="M91.5,48.2v-2"/>
<path class="st0" d="M1.1,46.3v-0.9"/>
<path class="st0" d="M10.7,35.7l-9.7,9.7"/>
<path class="st0" d="M101.6,35.7H10.7"/>
<path class="st0" d="M92,46.3l9.6-9.7"/>
<path class="st0" d="M1.5,46.3h90"/>
<path class="st0" d="M91.5,46.3H92"/>
<path class="st0" d="M92,46.3v-0.9"/>
<path class="st0" d="M1.1,45.4H92"/>
<path class="st0" d="M92,45.4l9.6-9.7"/>
<path class="st0" d="M4.8,46.3l-0.7,0.3"/>
<path class="st0" d="M4.1,46.6l-1.3,1.1"/>
<path class="st0" d="M2.8,47.7l-1,1"/>
<path class="st0" d="M1.8,48.7L1.8,48.7"/>
<path class="st0" d="M1.8,48.8L1.8,48.8"/>
<path class="st0" d="M1.7,48.8L1.7,48.8"/>
<path class="st0" d="M1.7,48.8H1.3"/>
<path class="st0" d="M1.3,48.8L1.3,48.8"/>
<path class="st0" d="M1.7,48.8L1.7,48.8"/>
<path class="st0" d="M1.2,48.8L1.2,48.8"/>
<path class="st0" d="M1.6,48.7L1.6,48.7"/>
<path class="st0" d="M1.6,48.8L1.6,48.8"/>
<path class="st0" d="M1.2,48.8L1.2,48.8"/>
<path class="st0" d="M1.6,48.6L1.6,48.6"/>
<path class="st0" d="M1.2,48.7L1.2,48.7"/>
<path class="st0" d="M1.1,48.6L1.1,48.6"/>
<path class="st0" d="M1.5,48.5l0-0.1"/>
<path class="st0" d="M1.5,48.4v-0.1"/>
<path class="st0" d="M1.1,48.5v-0.1"/>
<path class="st0" d="M1.5,48.3L1.5,48.3"/>
<path class="st0" d="M1.1,48.4l0-0.1"/>
<path class="st0" d="M1.5,48.2v-2"/>
<path class="st0" d="M1.5,46.3H1.1"/>
<path class="st0" d="M1.1,48.3L1.1,48.3"/>
<path class="st0" d="M1.1,48.2v-2"/>
<path class="st0" d="M101.3,76.1l-0.1,0.1"/>
<path class="st0" d="M101.6,75.8l-0.3,0.3"/>
<path class="st0" d="M101.6,67.6v8.2"/>
<path class="st0" d="M101.1,76.2l-0.3,0.1"/>
<path class="st0" d="M100.8,76.4h-0.4"/>
<path class="st0" d="M100.8,76.4l-0.2,0"/>
<path class="st0" d="M100.4,76.4l-0.3,0"/>
<path class="st0" d="M100.6,76.4l-0.9-0.3"/>
<path class="st0" d="M99.7,76.1l-2.5,0.3"/>
<path class="st0" d="M100.1,76.4l-0.8-0.2"/>
<path class="st0" d="M97.2,76.4l-2.6,1.3"/>
<path class="st0" d="M94.6,77.6l-1.3,1.1"/>
<path class="st0" d="M93.2,78.7l-1,1"/>
<path class="st0" d="M92.2,79.8L92.2,79.8"/>
<path class="st0" d="M92,77.3l9.6-9.7"/>
<path class="st0" d="M92.2,79.8L92.2,79.8"/>
<path class="st0" d="M92.2,79.8L92.2,79.8"/>
<path class="st0" d="M92.2,79.8h-0.4"/>
<path class="st0" d="M91.7,79.8L91.7,79.8"/>
<path class="st0" d="M92.1,79.8L92.1,79.8"/>
<path class="st0" d="M91.7,79.8L91.7,79.8"/>
<path class="st0" d="M92,79.7L92,79.7"/>
<path class="st0" d="M92.1,79.8L92.1,79.8"/>
<path class="st0" d="M91.6,79.8L91.6,79.8"/>
<path class="st0" d="M92,79.6L92,79.6"/>
<path class="st0" d="M91.6,79.7L91.6,79.7"/>
<path class="st0" d="M91.6,79.6L91.6,79.6"/>
<path class="st0" d="M92,79.6v-0.1"/>
<path class="st0" d="M92,79.4l0-0.1"/>
<path class="st0" d="M91.5,79.6l0-0.1"/>
<path class="st0" d="M92,79.3L92,79.3"/>
<path class="st0" d="M91.5,79.4v-0.1"/>
<path class="st0" d="M92,79.3v-2"/>
<path class="st0" d="M92,77.3h-0.4"/>
<path class="st0" d="M91.5,79.3L91.5,79.3"/>
<path class="st0" d="M91.5,79.3v-2"/>
<path class="st0" d="M1.1,77.3v-0.9"/>
<path class="st0" d="M10.7,66.7l-9.7,9.7"/>
<path class="st0" d="M101.6,66.7H10.7"/>
<path class="st0" d="M92,77.3l9.6-9.7"/>
<path class="st0" d="M1.5,77.3h90"/>
<path class="st0" d="M1.1,77.3h0.5"/>
<path class="st0" d="M91.5,77.3H92"/>
<path class="st0" d="M92,77.3v-0.9"/>
<path class="st0" d="M1.1,76.4H92"/>
<path class="st0" d="M92,76.4l9.6-9.7"/>
<path class="st0" d="M4.8,77.3l-0.7,0.3"/>
<path class="st0" d="M4.1,77.6l-1.3,1.1"/>
<path class="st0" d="M2.8,78.7l-1,1"/>
<path class="st0" d="M1.8,79.8L1.8,79.8"/>
<path class="st0" d="M1.8,79.8L1.8,79.8"/>
<path class="st0" d="M1.7,79.8L1.7,79.8"/>
<path class="st0" d="M1.7,79.8H1.3"/>
<path class="st0" d="M1.3,79.8L1.3,79.8"/>
<path class="st0" d="M1.7,79.8L1.7,79.8"/>
<path class="st0" d="M1.2,79.8L1.2,79.8"/>
<path class="st0" d="M1.6,79.7L1.6,79.7"/>
<path class="st0" d="M1.6,79.8L1.6,79.8"/>
<path class="st0" d="M1.2,79.8L1.2,79.8"/>
<path class="st0" d="M1.6,79.6L1.6,79.6"/>
<path class="st0" d="M1.2,79.7L1.2,79.7"/>
<path class="st0" d="M1.1,79.6L1.1,79.6"/>
<path class="st0" d="M1.5,79.6l0-0.1"/>
<path class="st0" d="M1.5,79.4v-0.1"/>
<path class="st0" d="M1.1,79.6v-0.1"/>
<path class="st0" d="M1.5,79.3L1.5,79.3"/>
<path class="st0" d="M1.1,79.4l0-0.1"/>
<path class="st0" d="M1.5,79.3v-2"/>
<path class="st0" d="M1.5,77.3H1.1"/>
<path class="st0" d="M1.1,79.3L1.1,79.3"/>
<path class="st0" d="M1.1,79.3v-2"/>
<path class="st0" d="M101.3,107.1l-0.1,0.1"/>
<path class="st0" d="M101.6,106.8l-0.3,0.3"/>
<path class="st0" d="M101.6,98.6v8.2"/>
<path class="st0" d="M101.1,107.3l-0.3,0.1"/>
<path class="st0" d="M100.8,107.4h-0.4"/>
<path class="st0" d="M100.8,107.4l-0.2,0"/>
<path class="st0" d="M100.4,107.4l-0.3,0"/>
<path class="st0" d="M100.6,107.4l-0.9-0.3"/>
<path class="st0" d="M99.7,107.1l-2.5,0.3"/>
<path class="st0" d="M100.1,107.4l-0.8-0.2"/>
<path class="st0" d="M97.2,107.4l-2.6,1.3"/>
<path class="st0" d="M94.6,108.7l-1.3,1.1"/>
<path class="st0" d="M93.2,109.8l-1,1"/>
<path class="st0" d="M92.2,110.8L92.2,110.8"/>
<path class="st0" d="M92,108.4l9.6-9.7"/>
<path class="st0" d="M92.2,110.8L92.2,110.8"/>
<path class="st0" d="M92.2,110.8L92.2,110.8"/>
<path class="st0" d="M92.2,110.8h-0.4"/>
<path class="st0" d="M91.7,110.8L91.7,110.8"/>
<path class="st0" d="M92.1,110.8L92.1,110.8"/>
<path class="st0" d="M91.7,110.8L91.7,110.8"/>
<path class="st0" d="M92,110.8L92,110.8"/>
<path class="st0" d="M92.1,110.8L92.1,110.8"/>
<path class="st0" d="M91.6,110.8L91.6,110.8"/>
<path class="st0" d="M92,110.7L92,110.7"/>
<path class="st0" d="M91.6,110.8L91.6,110.8"/>
<path class="st0" d="M91.6,110.7L91.6,110.7"/>
<path class="st0" d="M92,110.6v-0.1"/>
<path class="st0" d="M92,110.5l0-0.1"/>
<path class="st0" d="M91.5,110.6l0-0.1"/>
<path class="st0" d="M92,110.4L92,110.4"/>
<path class="st0" d="M91.5,110.5v-0.1"/>
<path class="st0" d="M92,110.3v-2"/>
<path class="st0" d="M92,108.4h-0.4"/>
<path class="st0" d="M91.5,110.4L91.5,110.4"/>
<path class="st0" d="M91.5,110.3v-2"/>
<path class="st0" d="M1.1,108.4v-0.9"/>
<path class="st0" d="M10.7,97.7l-9.7,9.7"/>
<path class="st0" d="M101.6,97.7H10.7"/>
<path class="st0" d="M92,108.4l9.6-9.7"/>
<path class="st0" d="M1.5,108.4h90"/>
<path class="st0" d="M91.5,108.4H92"/>
<path class="st0" d="M92,108.4v-0.9"/>
<path class="st0" d="M1.1,107.5H92"/>
<path class="st0" d="M92,107.5l9.6-9.7"/>
<path class="st0" d="M4.8,108.4l-0.7,0.3"/>
<path class="st0" d="M4.1,108.7l-1.3,1.1"/>
<path class="st0" d="M2.8,109.8l-1,1"/>
<path class="st0" d="M1.8,110.8L1.8,110.8"/>
<path class="st0" d="M1.8,110.8L1.8,110.8"/>
<path class="st0" d="M1.7,110.8L1.7,110.8"/>
<path class="st0" d="M1.7,110.8H1.3"/>
<path class="st0" d="M1.3,110.8L1.3,110.8"/>
<path class="st0" d="M1.7,110.8L1.7,110.8"/>
<path class="st0" d="M1.2,110.8L1.2,110.8"/>
<path class="st0" d="M1.6,110.8L1.6,110.8"/>
<path class="st0" d="M1.6,110.8L1.6,110.8"/>
<path class="st0" d="M1.2,110.8L1.2,110.8"/>
<path class="st0" d="M1.6,110.7L1.6,110.7"/>
<path class="st0" d="M1.2,110.8L1.2,110.8"/>
<path class="st0" d="M1.1,110.7L1.1,110.7"/>
<path class="st0" d="M1.5,110.6l0-0.1"/>
<path class="st0" d="M1.5,110.5v-0.1"/>
<path class="st0" d="M1.1,110.6v-0.1"/>
<path class="st0" d="M1.5,110.4L1.5,110.4"/>
<path class="st0" d="M1.1,110.5l0-0.1"/>
<path class="st0" d="M1.5,110.3v-2"/>
<path class="st0" d="M1.5,108.4H1.1"/>
<path class="st0" d="M1.1,110.4L1.1,110.4"/>
<path class="st0" d="M1.1,110.3v-2"/>
<path class="st0" d="M101.3,138.2l-0.1,0.1"/>
<path class="st0" d="M101.6,137.9l-0.3,0.3"/>
<path class="st0" d="M101.6,129.7v8.2"/>
<path class="st0" d="M101.1,138.3l-0.3,0.1"/>
<path class="st0" d="M100.8,138.5h-0.4"/>
<path class="st0" d="M100.8,138.5l-0.2,0"/>
<path class="st0" d="M100.4,138.5l-0.3,0"/>
<path class="st0" d="M100.6,138.4l-0.9-0.3"/>
<path class="st0" d="M99.7,138.2l-2.5,0.3"/>
<path class="st0" d="M100.1,138.4l-0.8-0.2"/>
<path class="st0" d="M97.2,138.4l-2.6,1.3"/>
<path class="st0" d="M94.6,139.7l-1.3,1.1"/>
<path class="st0" d="M93.2,140.8l-1,1"/>
<path class="st0" d="M92.2,141.8L92.2,141.8"/>
<path class="st0" d="M92,139.4l9.6-9.7"/>
<path class="st0" d="M92.2,141.9L92.2,141.9"/>
<path class="st0" d="M92.2,141.9L92.2,141.9"/>
<path class="st0" d="M92.2,141.9h-0.4"/>
<path class="st0" d="M91.7,141.9L91.7,141.9"/>
<path class="st0" d="M92.1,141.9L92.1,141.9"/>
<path class="st0" d="M91.7,141.9L91.7,141.9"/>
<path class="st0" d="M92,141.8L92,141.8"/>
<path class="st0" d="M92.1,141.9L92.1,141.9"/>
<path class="st0" d="M91.6,141.9L91.6,141.9"/>
<path class="st0" d="M92,141.7L92,141.7"/>
<path class="st0" d="M91.6,141.8L91.6,141.8"/>
<path class="st0" d="M91.6,141.7L91.6,141.7"/>
<path class="st0" d="M92,141.6v-0.1"/>
<path class="st0" d="M92,141.5l0-0.1"/>
<path class="st0" d="M91.5,141.6l0-0.1"/>
<path class="st0" d="M92,141.4L92,141.4"/>
<path class="st0" d="M91.5,141.5v-0.1"/>
<path class="st0" d="M92,141.3v-2"/>
<path class="st0" d="M92,139.4h-0.4"/>
<path class="st0" d="M91.5,141.4L91.5,141.4"/>
<path class="st0" d="M91.5,141.3v-2"/>
<path class="st0" d="M1.1,139.4v-0.9"/>
<path class="st0" d="M10.7,128.8l-9.7,9.7"/>
<path class="st0" d="M101.6,128.8H10.7"/>
<path class="st0" d="M92,139.4l9.6-9.7"/>
<path class="st0" d="M1.5,139.4h90"/>
<path class="st0" d="M1.1,139.4h0.5"/>
<path class="st0" d="M91.5,139.4H92"/>
<path class="st0" d="M92,139.4v-0.9"/>
<path class="st0" d="M1.1,138.5H92"/>
<path class="st0" d="M92,138.5l9.6-9.7"/>
<path class="st0" d="M4.8,139.4l-0.7,0.3"/>
<path class="st0" d="M4.1,139.7l-1.3,1.1"/>
<path class="st0" d="M2.8,140.8l-1,1"/>
<path class="st0" d="M1.8,141.8L1.8,141.8"/>
<path class="st0" d="M1.8,141.9L1.8,141.9"/>
<path class="st0" d="M1.7,141.9L1.7,141.9"/>
<path class="st0" d="M1.7,141.9H1.3"/>
<path class="st0" d="M1.3,141.9L1.3,141.9"/>
<path class="st0" d="M1.7,141.9L1.7,141.9"/>
<path class="st0" d="M1.2,141.9L1.2,141.9"/>
<path class="st0" d="M1.6,141.8L1.6,141.8"/>
<path class="st0" d="M1.6,141.9L1.6,141.9"/>
<path class="st0" d="M1.2,141.9L1.2,141.9"/>
<path class="st0" d="M1.6,141.7L1.6,141.7"/>
<path class="st0" d="M1.2,141.8L1.2,141.8"/>
<path class="st0" d="M1.1,141.7L1.1,141.7"/>
<path class="st0" d="M1.5,141.6l0-0.1"/>
<path class="st0" d="M1.5,141.5v-0.1"/>
<path class="st0" d="M1.1,141.6v-0.1"/>
<path class="st0" d="M1.5,141.4L1.5,141.4"/>
<path class="st0" d="M1.1,141.5l0-0.1"/>
<path class="st0" d="M1.5,141.3v-2"/>
<path class="st0" d="M1.5,139.4H1.1"/>
<path class="st0" d="M1.1,141.4L1.1,141.4"/>
<path class="st0" d="M1.1,141.3v-2"/>
<path class="st0" d="M101.3,169.2l-0.1,0.1"/>
<path class="st0" d="M101.6,168.9l-0.3,0.3"/>
<path class="st0" d="M101.6,160.7v8.2"/>
<path class="st0" d="M101.1,169.4l-0.3,0.1"/>
<path class="st0" d="M100.8,169.5h-0.4"/>
<path class="st0" d="M100.8,169.5l-0.2,0"/>
<path class="st0" d="M100.4,169.5l-0.3,0"/>
<path class="st0" d="M100.6,169.5l-0.9-0.3"/>
<path class="st0" d="M99.7,169.2l-2.5,0.3"/>
<path class="st0" d="M100.1,169.5l-0.8-0.2"/>
<path class="st0" d="M97.2,169.5l-2.6,1.3"/>
<path class="st0" d="M94.6,170.8l-1.3,1.1"/>
<path class="st0" d="M93.2,171.8l-1,1"/>
<path class="st0" d="M92.2,172.9L92.2,172.9"/>
<path class="st0" d="M92,170.4l9.6-9.7"/>
<path class="st0" d="M92.2,172.9L92.2,172.9"/>
<path class="st0" d="M92.2,172.9L92.2,172.9"/>
<path class="st0" d="M92.2,172.9h-0.4"/>
<path class="st0" d="M91.7,172.9L91.7,172.9"/>
<path class="st0" d="M92.1,172.9L92.1,172.9"/>
<path class="st0" d="M91.7,172.9L91.7,172.9"/>
<path class="st0" d="M92,172.8L92,172.8"/>
<path class="st0" d="M92.1,172.9L92.1,172.9"/>
<path class="st0" d="M91.6,172.9L91.6,172.9"/>
<path class="st0" d="M92,172.8L92,172.8"/>
<path class="st0" d="M91.6,172.8L91.6,172.8"/>
<path class="st0" d="M91.6,172.8L91.6,172.8"/>
<path class="st0" d="M92,172.7v-0.1"/>
<path class="st0" d="M92,172.5l0-0.1"/>
<path class="st0" d="M91.5,172.7l0-0.1"/>
<path class="st0" d="M92,172.4L92,172.4"/>
<path class="st0" d="M91.5,172.5v-0.1"/>
<path class="st0" d="M92,172.4v-2"/>
<path class="st0" d="M92,170.4h-0.4"/>
<path class="st0" d="M91.5,172.4L91.5,172.4"/>
<path class="st0" d="M91.5,172.4v-2"/>
<path class="st0" d="M1.1,170.4v-0.9"/>
<path class="st0" d="M10.7,159.8l-9.7,9.7"/>
<path class="st0" d="M101.6,159.8H10.7"/>
<path class="st0" d="M92,170.4l9.6-9.7"/>
<path class="st0" d="M1.5,170.4h90"/>
<path class="st0" d="M1.1,170.4h0.5"/>
<path class="st0" d="M91.5,170.4H92"/>
<path class="st0" d="M92,170.4v-0.9"/>
<path class="st0" d="M1.1,169.5H92"/>
<path class="st0" d="M92,169.5l9.6-9.7"/>
<path class="st0" d="M4.8,170.4l-0.7,0.3"/>
<path class="st0" d="M4.1,170.8l-1.3,1.1"/>
<path class="st0" d="M2.8,171.8l-1,1"/>
<path class="st0" d="M1.8,172.9L1.8,172.9"/>
<path class="st0" d="M1.8,172.9L1.8,172.9"/>
<path class="st0" d="M1.7,172.9L1.7,172.9"/>
<path class="st0" d="M1.7,172.9H1.3"/>
<path class="st0" d="M1.3,172.9L1.3,172.9"/>
<path class="st0" d="M1.7,172.9L1.7,172.9"/>
<path class="st0" d="M1.2,172.9L1.2,172.9"/>
<path class="st0" d="M1.6,172.8L1.6,172.8"/>
<path class="st0" d="M1.6,172.9L1.6,172.9"/>
<path class="st0" d="M1.2,172.9L1.2,172.9"/>
<path class="st0" d="M1.6,172.8L1.6,172.8"/>
<path class="st0" d="M1.2,172.8L1.2,172.8"/>
<path class="st0" d="M1.1,172.8L1.1,172.8"/>
<path class="st0" d="M1.5,172.7l0-0.1"/>
<path class="st0" d="M1.5,172.5v-0.1"/>
<path class="st0" d="M1.1,172.7v-0.1"/>
<path class="st0" d="M1.5,172.4L1.5,172.4"/>
<path class="st0" d="M1.1,172.5l0-0.1"/>
<path class="st0" d="M1.5,172.4v-2"/>
<path class="st0" d="M1.5,170.4H1.1"/>
<path class="st0" d="M1.1,172.4L1.1,172.4"/>
<path class="st0" d="M1.1,172.4v-2"/>
<path class="st0" d="M10,7.8h0.9"/>
<path class="st0" d="M101.6,188.5v-19.6"/>
<path class="st0" d="M101.6,159.8v-21.9"/>
<path class="st0" d="M101.6,128.8v-21.9"/>
<path class="st0" d="M101.6,97.7V75.8"/>
<path class="st0" d="M101.6,66.7V44.8"/>
<path class="st0" d="M101.6,35.7V7.9"/>
<path class="st0" d="M101.8,7.8h0.9"/>
<path class="st0" d="M92,199.1h0.9"/>
<path class="st0" d="M92.8,199.2H0.2v9h92.7V199.2z"/>
<path class="st0" d="M92.8,199.2l9.6-9.8v9.2l-9.6,9.7V199.2z"/>
<path class="st0" d="M101.6,188.5l-9.6,9.7H1.1l9.6-9.7L101.6,188.5z"/>
<path class="st0" d="M102.5,198.6l0.4-0.2l0.2,0l0.3-0.2l1.5-1.5V5.9l-0.3-0.1h-2.1L102.2,6l-1.6,1.6"/>
<path class="st0" d="M101.6,7.9H12l2-2l-2.4,0l-0.3,0L9.7,7.6l0.2,0.1h1L10.7,8v1.4v26.2l-9.7,9.7v2.9l0,0.3l0.1,0.2h0.5l2.9-2.5
	h5.1l0.1,21.4l-8.7,8.7l0,3l0.1,0.3h0.5l2.8-2.5h5.2l0,21.5l-8.6,8.6l0,3.1l0.2,0.3h0.4l3-2.5h5v21.5l-8.6,8.7l0,3l0.1,0.4l0.4,0
	l3-2.4h5.1l0,21.5l-8.6,8.6l0,3l0.1,0.4h0.5l3.2-2.5h4.9v19.1"/>
<path class="st0" d="M9.7,7.6v29.1"/>
<path class="st0" d="M10.7,35.7h90.9"/>
<path class="st0" d="M1,45.5h90.9"/>
<path class="st0" d="M1,46.3h90.9"/>
<path class="st0" d="M1,76.4h90.9"/>
<path class="st0" d="M1,77.3h90.9"/>
<path class="st0" d="M1,107.5h90.9"/>
<path class="st0" d="M1,108.4h90.9"/>
<path class="st0" d="M10.7,128.8h90.9"/>
<path class="st0" d="M1,138.5h90.9"/>
<path class="st0" d="M1,139.4h90.9"/>
<path class="st0" d="M10.7,159.8h90.9"/>
<path class="st0" d="M1.1,169.5H92"/>
<path class="st0" d="M1.1,170.4H92"/>
<path class="st0" d="M10.7,97.7h90.9"/>
<path class="st0" d="M10.7,66.6h90.9"/>
<path class="st0" d="M101.6,189.4V7.9l0.2-0.2h1.1l0.4-0.1l1.7-1.7"/>
<path class="st0" d="M102.5,189.4h-0.9"/>
<path class="st0" d="M92,169.5l9.6-9.7"/>
<path class="st0" d="M92,170.4l9.6-9.7"/>
<path class="st0" d="M92,139.4l9.6-9.7"/>
<path class="st0" d="M92,138.5l9.6-9.7"/>
<path class="st0" d="M92,107.5l9.6-9.7"/>
<path class="st0" d="M92,76.4l9.6-9.7"/>
<path class="st0" d="M92,77.3l9.6-9.7"/>
<path class="st0" d="M92,46.3l9.6-9.7"/>
<path class="st0" d="M92,108.4l9.6-9.7"/>
<path class="st0" d="M10.7,46.3v20.3"/>
<path class="st0" d="M9.7,67.7l1-1"/>
<path class="st0" d="M10.7,77.3v20.4"/>
<path class="st0" d="M9.7,98.8l1.1-1.1"/>
<path class="st0" d="M10.7,108.4v20.4"/>
<path class="st0" d="M9.7,129.8l1.1-1.1"/>
<path class="st0" d="M10.7,139.4v20.4"/>
<path class="st0" d="M9.7,160.9l1.1-1.1"/>
<path class="st0" d="M10.7,170.4v18.1"/>
<path class="st0" d="M0.2,199.2l1.1-1.1"/>
<path class="st0" d="M14,5.9v2"/>
<path class="st0" d="M10.8,7.9h1.4"/>
<path class="st0" d="M92,198.2v1"/>
<path class="st0" d="M1.1,198.2v1"/>
<path class="st0" d="M101.6,35.7l-9.7,9.8"/>
<path class="st0" d="M91.9,45.4v1.1v1.8c0,0,0,0,0.1,0.2c0.1,0.2,0.2,0.3,0.2,0.3l0.1,0l0.2-0.2c0,0,0.8-0.8,0.8-0.8
	c0,0,0.6-0.5,0.9-0.8c0.3-0.2,0.6-0.4,0.9-0.6c0.1,0,0.1-0.1,0.1-0.1s0.4-0.2,0.8-0.4c0.7-0.4,1.5-0.5,2.4-0.5l2.1,0
	c0.1,0,0.2,0,0.3,0l0.1,0c0.1,0,0.2-0.1,0.3-0.2l0.3-0.3"/>
<path class="st0" d="M91.9,76.3v1.1v1.8c0,0,0,0,0.1,0.2c0.1,0.2,0.2,0.3,0.2,0.3l0.1,0l0.2-0.2c0,0,0.8-0.8,0.8-0.8
	c0,0,0.6-0.5,0.9-0.8c0.3-0.2,0.6-0.4,0.9-0.6c0.1,0,0.1-0.1,0.1-0.1c0,0,0.4-0.2,0.8-0.4c0.7-0.4,1.5-0.5,2.4-0.5l2.1,0
	c0.1,0,0.2,0,0.3,0l0.1,0c0.1,0,0.2-0.1,0.3-0.2l0.3-0.3"/>
<path class="st0" d="M91.9,107.4v1.1v1.8c0,0,0,0,0.1,0.2c0.1,0.2,0.2,0.3,0.2,0.3l0.1,0l0.2-0.2c0,0,0.8-0.8,0.8-0.8
	c0,0,0.6-0.5,0.9-0.8c0.3-0.2,0.6-0.4,0.9-0.6c0.1,0,0.1-0.1,0.1-0.1c0,0,0.4-0.2,0.8-0.4c0.7-0.4,1.5-0.5,2.4-0.5l2.1,0
	c0.1,0,0.2,0,0.3,0l0.1,0c0.1,0,0.2-0.1,0.3-0.2l0.3-0.3"/>
<path class="st0" d="M91.9,138.5v1.1v1.8c0,0,0,0,0.1,0.2c0.1,0.2,0.2,0.3,0.2,0.3l0.1,0l0.2-0.2c0,0,0.8-0.8,0.8-0.8
	c0,0,0.6-0.5,0.9-0.8c0.3-0.2,0.6-0.4,0.9-0.6c0.1,0,0.1-0.1,0.1-0.1c0,0,0.4-0.2,0.8-0.4c0.7-0.4,1.5-0.5,2.4-0.5l2.1,0
	c0.1,0,0.2,0,0.3,0l0.1,0c0.1,0,0.2-0.1,0.3-0.2l0.3-0.3"/>
<path class="st0" d="M91.9,169.3v1.1v1.8c0,0,0,0,0.1,0.2c0.1,0.2,0.2,0.3,0.2,0.3l0.1,0l0.2-0.2c0,0,0.8-0.8,0.8-0.8
	c0,0,0.6-0.5,0.9-0.8c0.3-0.2,0.6-0.4,0.9-0.6c0.1,0,0.1-0.1,0.1-0.1c0,0,0.4-0.2,0.8-0.4c0.7-0.4,1.5-0.5,2.4-0.5l2.1,0
	c0.1,0,0.2,0,0.3,0l0.1,0c0.1,0,0.2-0.1,0.3-0.2l0.3-0.3"/>
<path d="M99.1,212.4l-2.1-5l-1.8,1.7l-0.5-0.6l2.7-2.5l0.4,0.5l2.2,5.2L99.1,212.4z M102.7,207.8c0.2,0,0.4-0.1,0.5-0.2
	c0.2-0.1,0.3-0.3,0.3-0.5c0-0.2,0-0.4-0.1-0.6c-0.1-0.2-0.2-0.4-0.4-0.6c-0.1-0.2-0.3-0.4-0.5-0.7c-1-1.1-1.8-1.4-2.3-0.9
	c-0.6,0.5-0.3,1.3,0.6,2.4c0.2,0.2,0.4,0.4,0.6,0.6s0.4,0.3,0.6,0.4C102.3,207.8,102.5,207.8,102.7,207.8z M104.4,207.5
	c-0.1,0.3-0.3,0.5-0.5,0.7c-0.2,0.2-0.5,0.4-0.8,0.5c-0.3,0.1-0.5,0.1-0.8,0.1c-0.3,0-0.5-0.1-0.8-0.2c-0.3-0.1-0.5-0.3-0.7-0.5
	c-0.2-0.2-0.5-0.4-0.7-0.6c-0.2-0.3-0.4-0.5-0.6-0.8c-0.2-0.3-0.3-0.5-0.4-0.8c-0.1-0.3-0.1-0.5-0.1-0.8c0-0.3,0.1-0.5,0.2-0.8
	c0.1-0.3,0.3-0.5,0.5-0.7c0.2-0.2,0.5-0.4,0.8-0.5c0.3-0.1,0.5-0.1,0.8-0.1c0.3,0,0.5,0.1,0.8,0.2c0.3,0.1,0.5,0.3,0.7,0.5
	c0.2,0.2,0.5,0.4,0.7,0.7c0.2,0.2,0.4,0.5,0.6,0.7c0.2,0.2,0.3,0.5,0.4,0.8c0.1,0.3,0.1,0.5,0.1,0.8
	C104.5,207,104.5,207.2,104.4,207.5z M106.9,204c0.2,0,0.4-0.1,0.5-0.2c0.2-0.1,0.3-0.3,0.3-0.5c0-0.2,0-0.4-0.1-0.6
	c-0.1-0.2-0.2-0.4-0.4-0.6c-0.1-0.2-0.3-0.4-0.5-0.7c-1-1.1-1.8-1.4-2.3-0.9c-0.6,0.5-0.3,1.3,0.6,2.4c0.2,0.2,0.4,0.4,0.6,0.6
	c0.2,0.2,0.4,0.3,0.6,0.4C106.5,203.9,106.7,204,106.9,204z M108.6,203.6c-0.1,0.3-0.3,0.5-0.5,0.7c-0.2,0.2-0.5,0.4-0.8,0.5
	c-0.3,0.1-0.5,0.1-0.8,0.1c-0.3,0-0.5-0.1-0.8-0.2c-0.3-0.1-0.5-0.3-0.7-0.5c-0.2-0.2-0.5-0.4-0.7-0.6c-0.2-0.3-0.4-0.5-0.6-0.8
	c-0.2-0.3-0.3-0.5-0.4-0.8c-0.1-0.3-0.1-0.5-0.1-0.8c0-0.3,0.1-0.5,0.2-0.8c0.1-0.3,0.3-0.5,0.5-0.7c0.2-0.2,0.5-0.4,0.8-0.5
	c0.3-0.1,0.5-0.1,0.8-0.1c0.3,0,0.5,0.1,0.8,0.2c0.3,0.1,0.5,0.3,0.7,0.5c0.2,0.2,0.5,0.4,0.7,0.7c0.2,0.2,0.4,0.5,0.6,0.7
	c0.2,0.2,0.3,0.5,0.4,0.8c0.1,0.3,0.1,0.5,0.1,0.8C108.7,203.1,108.7,203.4,108.6,203.6z"/>
<path d="M27.9,215.4v-5c0,0-0.2,0.1-0.5,0.2c-0.3,0.1-0.5,0.2-0.5,0.2v-0.8c0.1,0,0.3-0.1,0.6-0.3c0.3-0.2,0.5-0.3,0.6-0.3H29v6
	H27.9z M32,214.5c0.2,0.1,0.3,0.2,0.6,0.2c0.2,0,0.4-0.1,0.6-0.2c0.2-0.1,0.3-0.3,0.4-0.5c0.1-0.2,0.1-0.5,0.2-0.7
	c0-0.3,0.1-0.5,0.1-0.8c0-1.5-0.4-2.2-1.1-2.2c-0.8,0-1.1,0.7-1.1,2.2c0,0.3,0,0.6,0.1,0.8c0,0.3,0.1,0.5,0.2,0.7
	C31.7,214.2,31.9,214.4,32,214.5z M33.4,215.4c-0.3,0.1-0.5,0.2-0.9,0.2c-0.3,0-0.6-0.1-0.9-0.2c-0.3-0.1-0.5-0.3-0.6-0.4
	c-0.2-0.2-0.3-0.4-0.4-0.7c-0.1-0.3-0.2-0.5-0.2-0.8c0-0.3-0.1-0.6-0.1-0.9c0-0.3,0-0.7,0.1-1c0-0.3,0.1-0.6,0.2-0.8
	c0.1-0.3,0.3-0.5,0.4-0.7c0.2-0.2,0.4-0.3,0.6-0.4c0.3-0.1,0.5-0.2,0.9-0.2c0.3,0,0.6,0.1,0.9,0.2c0.3,0.1,0.5,0.3,0.6,0.4
	c0.2,0.2,0.3,0.4,0.4,0.7c0.1,0.3,0.2,0.5,0.2,0.8s0.1,0.6,0.1,1c0,0.3,0,0.6-0.1,0.9c0,0.3-0.1,0.6-0.2,0.8
	c-0.1,0.3-0.3,0.5-0.4,0.7C33.9,215.1,33.7,215.2,33.4,215.4z M37.7,214.5c0.2,0.1,0.3,0.2,0.6,0.2c0.2,0,0.4-0.1,0.6-0.2
	c0.2-0.1,0.3-0.3,0.4-0.5c0.1-0.2,0.1-0.5,0.2-0.7c0-0.3,0.1-0.5,0.1-0.8c0-1.5-0.4-2.2-1.1-2.2c-0.8,0-1.1,0.7-1.1,2.2
	c0,0.3,0,0.6,0.1,0.8c0,0.3,0.1,0.5,0.2,0.7C37.5,214.2,37.6,214.4,37.7,214.5z M39.2,215.4c-0.3,0.1-0.5,0.2-0.9,0.2
	c-0.3,0-0.6-0.1-0.9-0.2c-0.3-0.1-0.5-0.3-0.6-0.4c-0.2-0.2-0.3-0.4-0.4-0.7c-0.1-0.3-0.2-0.5-0.2-0.8c0-0.3-0.1-0.6-0.1-0.9
	c0-0.3,0-0.7,0.1-1c0-0.3,0.1-0.6,0.2-0.8c0.1-0.3,0.3-0.5,0.4-0.7c0.2-0.2,0.4-0.3,0.6-0.4c0.3-0.1,0.5-0.2,0.9-0.2
	s0.6,0.1,0.9,0.2c0.3,0.1,0.5,0.3,0.6,0.4c0.2,0.2,0.3,0.4,0.4,0.7c0.1,0.3,0.2,0.5,0.2,0.8c0,0.3,0.1,0.6,0.1,1
	c0,0.3,0,0.6-0.1,0.9c0,0.3-0.1,0.6-0.2,0.8c-0.1,0.3-0.3,0.5-0.4,0.7C39.6,215.1,39.4,215.2,39.2,215.4z M43.4,214.5
	c0.2,0.1,0.3,0.2,0.6,0.2c0.2,0,0.4-0.1,0.6-0.2c0.2-0.1,0.3-0.3,0.4-0.5c0.1-0.2,0.1-0.5,0.2-0.7c0-0.3,0.1-0.5,0.1-0.8
	c0-1.5-0.4-2.2-1.1-2.2c-0.8,0-1.1,0.7-1.1,2.2c0,0.3,0,0.6,0.1,0.8c0,0.3,0.1,0.5,0.2,0.7C43.2,214.2,43.3,214.4,43.4,214.5z
	 M44.9,215.4c-0.3,0.1-0.5,0.2-0.9,0.2c-0.3,0-0.6-0.1-0.9-0.2c-0.3-0.1-0.5-0.3-0.6-0.4c-0.2-0.2-0.3-0.4-0.4-0.7
	c-0.1-0.3-0.2-0.5-0.2-0.8c0-0.3-0.1-0.6-0.1-0.9c0-0.3,0-0.7,0.1-1c0-0.3,0.1-0.6,0.2-0.8c0.1-0.3,0.3-0.5,0.4-0.7
	c0.2-0.2,0.4-0.3,0.6-0.4c0.3-0.1,0.5-0.2,0.9-0.2c0.3,0,0.6,0.1,0.9,0.2c0.3,0.1,0.5,0.3,0.6,0.4c0.2,0.2,0.3,0.4,0.4,0.7
	c0.1,0.3,0.2,0.5,0.2,0.8c0,0.3,0.1,0.6,0.1,1c0,0.3,0,0.6-0.1,0.9c0,0.3-0.1,0.6-0.2,0.8c-0.1,0.3-0.3,0.5-0.4,0.7
	C45.3,215.1,45.1,215.2,44.9,215.4z M50.2,215.4v-4.5h0.9l0.1,0.6c0.1-0.1,0.1-0.1,0.2-0.2c0.1-0.1,0.1-0.1,0.2-0.2
	c0.1-0.1,0.2-0.1,0.3-0.2c0.1,0,0.2-0.1,0.4-0.1c0.1,0,0.3,0,0.5,0c0.4,0,0.6,0.1,0.9,0.2c0.2,0.1,0.4,0.3,0.5,0.5
	c0.2-0.2,0.4-0.4,0.6-0.5c0.3-0.1,0.5-0.2,0.9-0.2c0.5,0,0.9,0.1,1.1,0.4c0.2,0.3,0.4,0.7,0.4,1.3v2.9h-1.1v-2.6
	c0-0.4,0-0.8-0.1-0.9c-0.1-0.2-0.3-0.3-0.6-0.3c-0.4,0-0.7,0.2-0.9,0.6c-0.1,0.2-0.1,0.4-0.2,0.6v2.6h-1.1v-2.6
	c0-0.4-0.1-0.7-0.2-0.9c-0.1-0.2-0.3-0.3-0.6-0.3c-0.2,0-0.4,0.1-0.6,0.2c-0.2,0.1-0.3,0.3-0.4,0.4c-0.1,0.3-0.1,0.6-0.1,1v2.2H50.2
	z M58.5,215.4v-4.5h0.9l0.1,0.6c0.1-0.1,0.1-0.1,0.2-0.2c0.1-0.1,0.1-0.1,0.2-0.2c0.1-0.1,0.2-0.1,0.3-0.2c0.1,0,0.2-0.1,0.4-0.1
	c0.1,0,0.3,0,0.5,0c0.4,0,0.6,0.1,0.9,0.2c0.2,0.1,0.4,0.3,0.5,0.5c0.2-0.2,0.4-0.4,0.6-0.5c0.3-0.1,0.5-0.2,0.9-0.2
	c0.5,0,0.9,0.1,1.1,0.4c0.2,0.3,0.4,0.7,0.4,1.3v2.9h-1.1v-2.6c0-0.4,0-0.8-0.1-0.9c-0.1-0.2-0.3-0.3-0.6-0.3
	c-0.4,0-0.7,0.2-0.9,0.6c-0.1,0.2-0.1,0.4-0.2,0.6v2.6h-1.1v-2.6c0-0.4-0.1-0.7-0.2-0.9c-0.1-0.2-0.3-0.3-0.6-0.3
	c-0.2,0-0.4,0.1-0.6,0.2c-0.2,0.1-0.3,0.3-0.4,0.4c-0.1,0.3-0.1,0.6-0.1,1v2.2H58.5z"/>
<path d="M113.8,121.9h-5c0,0,0.1,0.2,0.2,0.5c0.1,0.3,0.2,0.5,0.2,0.5h-0.8c0-0.1-0.1-0.3-0.3-0.6c-0.2-0.3-0.3-0.5-0.3-0.6v-0.9h6
	V121.9z M113.9,117.4c0,0.7-0.2,1.2-0.5,1.6c-0.4,0.4-0.8,0.6-1.4,0.6c-0.2,0-0.4,0-0.5-0.1c-0.2,0-0.3-0.1-0.5-0.2
	c-0.2-0.1-0.3-0.2-0.4-0.3s-0.3-0.2-0.5-0.3l-2.1-1.7v-1.3l2.3,1.9c-0.1-0.2-0.1-0.4-0.1-0.5c0-0.6,0.2-1.1,0.5-1.4
	c0.3-0.4,0.8-0.6,1.4-0.6c0.6,0,1.1,0.2,1.4,0.6C113.8,116.2,113.9,116.7,113.9,117.4z M113.1,117.4c0-0.4-0.1-0.6-0.3-0.8
	c-0.2-0.2-0.5-0.3-0.8-0.3c-0.4,0-0.6,0.1-0.8,0.3c-0.2,0.2-0.3,0.5-0.3,0.9c0,0.4,0.1,0.7,0.3,0.8c0.2,0.2,0.5,0.3,0.8,0.3
	c0.3,0,0.6-0.1,0.8-0.3C113,118,113.1,117.8,113.1,117.4z M113.9,114.2l-0.9,0l-2.1-1.9c-0.3-0.2-0.5-0.4-0.7-0.5
	c-0.2-0.1-0.4-0.2-0.7-0.2c-0.3,0-0.5,0.1-0.6,0.3c-0.2,0.2-0.2,0.4-0.2,0.7c0,0.3,0,0.5,0.1,0.8c0.1,0.2,0.2,0.4,0.4,0.6l-0.8,0.3
	c-0.4-0.4-0.5-1-0.5-1.7c0-0.6,0.1-1.1,0.4-1.4c0.3-0.4,0.7-0.5,1.3-0.5c0.4,0,0.7,0.1,1.1,0.3c0.3,0.2,0.7,0.5,1.1,0.8l1.4,1.3
	v-2.4l0.8,0.1V114.2z M113.9,107.6c0,0.3,0,0.5-0.1,0.8c-0.1,0.3-0.2,0.5-0.3,0.7c-0.1,0.1-0.1,0.2-0.2,0.3l-0.8-0.3
	c0-0.1,0.1-0.1,0.2-0.2c0.1-0.1,0.1-0.3,0.2-0.5c0.1-0.2,0.1-0.4,0.1-0.6c0-0.4-0.1-0.7-0.3-0.9c-0.2-0.2-0.5-0.3-0.8-0.3
	c-0.3,0-0.6,0.1-0.8,0.3c-0.2,0.2-0.3,0.4-0.3,0.7c0,0.3,0.1,0.6,0.4,0.9l-0.1,0.7l-3.3-0.2v-3.3l0.8,0.1v2.2c0,0,0.3,0,0.7,0
	c0.4,0,0.7,0,0.7,0c-0.1-0.2-0.2-0.5-0.2-0.8c0-0.6,0.2-1,0.5-1.3c0.4-0.3,0.8-0.5,1.4-0.5c0.6,0,1.1,0.2,1.5,0.6
	C113.8,106.4,113.9,106.9,113.9,107.6z M113.9,101.6h-4.5v-0.9l0.6-0.1c-0.1-0.1-0.1-0.1-0.2-0.2c-0.1-0.1-0.1-0.1-0.2-0.2
	c-0.1-0.1-0.1-0.2-0.2-0.3c0-0.1-0.1-0.2-0.1-0.4c0-0.1,0-0.3,0-0.5c0-0.4,0.1-0.6,0.2-0.9c0.1-0.2,0.3-0.4,0.5-0.5
	c-0.2-0.2-0.4-0.4-0.5-0.6c-0.1-0.3-0.2-0.5-0.2-0.9c0-0.5,0.1-0.9,0.4-1.1c0.3-0.2,0.7-0.4,1.3-0.4h2.9v1.1h-2.6
	c-0.4,0-0.8,0-0.9,0.1c-0.2,0.1-0.3,0.3-0.3,0.6c0,0.4,0.2,0.7,0.6,0.9c0.2,0.1,0.4,0.1,0.6,0.2h2.6v1.1h-2.6
	c-0.4,0-0.7,0.1-0.9,0.2c-0.2,0.1-0.3,0.3-0.3,0.6c0,0.2,0.1,0.4,0.2,0.6c0.1,0.2,0.3,0.3,0.4,0.4c0.3,0.1,0.6,0.1,1,0.1h2.2V101.6z
	 M113.9,93.3h-4.5v-0.9l0.6-0.1c-0.1-0.1-0.1-0.1-0.2-0.2c-0.1-0.1-0.1-0.1-0.2-0.2c-0.1-0.1-0.1-0.2-0.2-0.3c0-0.1-0.1-0.2-0.1-0.4
	c0-0.1,0-0.3,0-0.5c0-0.4,0.1-0.6,0.2-0.9c0.1-0.2,0.3-0.4,0.5-0.5c-0.2-0.2-0.4-0.4-0.5-0.6s-0.2-0.5-0.2-0.9
	c0-0.5,0.1-0.9,0.4-1.1c0.3-0.2,0.7-0.4,1.3-0.4l2.9,0v1.1h-2.6c-0.4,0-0.8,0-0.9,0.1c-0.2,0.1-0.3,0.3-0.3,0.6
	c0,0.4,0.2,0.7,0.6,0.9c0.2,0.1,0.4,0.1,0.6,0.2h2.6v1.1h-2.6c-0.4,0-0.7,0.1-0.9,0.2c-0.2,0.1-0.3,0.3-0.3,0.6
	c0,0.2,0.1,0.4,0.2,0.6c0.1,0.2,0.3,0.3,0.4,0.4c0.3,0.1,0.6,0.1,1,0.1h2.2V93.3z"/>
</svg>
