{
    "asset" : {
        "generator" : "Khronos glTF Blender I/O v1.7.33",
        "version" : "2.0"
    },
    "scene" : 0,
    "scenes" : [
        {
            "name" : "Scene",
            "nodes" : [
                0
            ]
        }
    ],
    "nodes" : [
        {
            "mesh" : 0,
            "name" : "Line063"
        }
    ],
    "materials" : [
        {
            "doubleSided" : true,
            "name" : "08 - Default896gf",
            "pbrMetallicRoughness" : {
                "baseColorFactor" : [
                    0,
                    0,
                    0,
                    1
                ],
                "metallicFactor" : 0,
                "roughnessFactor" : 0.5527864098548889
            }
        },
        {
            "doubleSided" : true,
            "name" : "Material.002",
            "pbrMetallicRoughness" : {
                "baseColorFactor" : [
                    0.800000011920929,
                    0.800000011920929,
                    0.800000011920929,
                    1
                ],
                "metallicFactor" : 0.5590550899505615,
                "roughnessFactor" : 0.26377952098846436
            }
        }
    ],
    "meshes" : [
        {
            "name" : "Mesh.010",
            "primitives" : [
                {
                    "attributes" : {
                        "POSITION" : 0,
                        "NORMAL" : 1,
                        "TEXCOORD_0" : 2
                    },
                    "indices" : 3,
                    "material" : 0
                },
                {
                    "attributes" : {
                        "POSITION" : 4,
                        "NORMAL" : 5,
                        "TEXCOORD_0" : 6
                    },
                    "indices" : 7,
                    "material" : 1
                }
            ]
        }
    ],
    "accessors" : [
        {
            "bufferView" : 0,
            "componentType" : 5126,
            "count" : 3808,
            "max" : [
                0.4912659823894501,
                0.04667919874191284,
                0.31387796998023987
            ],
            "min" : [
                -0.5016074180603027,
                0.00650748610496521,
                -0.3575236201286316
            ],
            "type" : "VEC3"
        },
        {
            "bufferView" : 1,
            "componentType" : 5126,
            "count" : 3808,
            "type" : "VEC3"
        },
        {
            "bufferView" : 2,
            "componentType" : 5126,
            "count" : 3808,
            "type" : "VEC2"
        },
        {
            "bufferView" : 3,
            "componentType" : 5123,
            "count" : 22128,
            "type" : "SCALAR"
        },
        {
            "bufferView" : 4,
            "componentType" : 5126,
            "count" : 66453,
            "max" : [
                0.4959489107131958,
                1.1740336418151855,
                0.36570608615875244
            ],
            "min" : [
                -0.5062187910079956,
                0.012311100959777832,
                -0.3885471522808075
            ],
            "type" : "VEC3"
        },
        {
            "bufferView" : 5,
            "componentType" : 5126,
            "count" : 66453,
            "type" : "VEC3"
        },
        {
            "bufferView" : 6,
            "componentType" : 5126,
            "count" : 66453,
            "type" : "VEC2"
        },
        {
            "bufferView" : 7,
            "componentType" : 5125,
            "count" : 154740,
            "type" : "SCALAR"
        }
    ],
    "bufferViews" : [
        {
            "buffer" : 0,
            "byteLength" : 45696,
            "byteOffset" : 0
        },
        {
            "buffer" : 0,
            "byteLength" : 45696,
            "byteOffset" : 45696
        },
        {
            "buffer" : 0,
            "byteLength" : 30464,
            "byteOffset" : 91392
        },
        {
            "buffer" : 0,
            "byteLength" : 44256,
            "byteOffset" : 121856
        },
        {
            "buffer" : 0,
            "byteLength" : 797436,
            "byteOffset" : 166112
        },
        {
            "buffer" : 0,
            "byteLength" : 797436,
            "byteOffset" : 963548
        },
        {
            "buffer" : 0,
            "byteLength" : 531624,
            "byteOffset" : 1760984
        },
        {
            "buffer" : 0,
            "byteLength" : 618960,
            "byteOffset" : 2292608
        }
    ],
    "buffers" : [
        {
            "byteLength" : 2911568,
            "uri" : "data:application/octet-stream;base64,"
        }
    ]
}
