{
    "asset" : {
        "generator" : "Khronos glTF Blender I/O v1.4.40",
        "version" : "2.0"
    },
    "scene" : 0,
    "scenes" : [
        {
            "name" : "Scene",
            "nodes" : [
                0
            ]
        }
    ],
    "nodes" : [
        {
            "mesh" : 0,
            "name" : "Box005"
        }
    ],
    "materials" : [
        {
            "doubleSided" : true,
            "name" : "08 - Default896gf",
            "pbrMetallicRoughness" : {
                "baseColorFactor" : [
                    0,
                    0,
                    0,
                    1
                ],
                "metallicFactor" : 0,
                "roughnessFactor" : 0.5527864098548889
            }
        },
        {
            "doubleSided" : true,
            "name" : "08 - Default896gf.001",
            "pbrMetallicRoughness" : {
                "metallicFactor" : 0,
                "roughnessFactor" : 0.6138033270835876
            }
        },
        {
            "doubleSided" : true,
            "name" : "08 - Default896gf.002",
            "pbrMetallicRoughness" : {
                "baseColorFactor" : [
                    0.8300291299819946,
                    0.7662519812583923,
                    0.5431554913520813,
                    1
                ],
                "metallicFactor" : 0,
                "roughnessFactor" : 0.5527864098548889
            }
        }
    ],
    "meshes" : [
        {
            "name" : "Mesh.009",
            "primitives" : [
                {
                    "attributes" : {
                        "POSITION" : 0,
                        "NORMAL" : 1,
                        "TEXCOORD_0" : 2
                    },
                    "indices" : 3,
                    "material" : 0
                },
                {
                    "attributes" : {
                        "POSITION" : 4,
                        "NORMAL" : 5,
                        "TEXCOORD_0" : 6
                    },
                    "indices" : 7,
                    "material" : 1
                },
                {
                    "attributes" : {
                        "POSITION" : 8,
                        "NORMAL" : 9,
                        "TEXCOORD_0" : 10
                    },
                    "indices" : 11,
                    "material" : 2
                }
            ]
        }
    ],
    "accessors" : [
        {
            "bufferView" : 0,
            "componentType" : 5126,
            "count" : 4686,
            "max" : [
                0.2707618772983551,
                1.1462899446487427,
                0.2717539072036743
            ],
            "min" : [
                -0.27063891291618347,
                0.00018978715525008738,
                -0.2849962115287781
            ],
            "type" : "VEC3"
        },
        {
            "bufferView" : 1,
            "componentType" : 5126,
            "count" : 4686,
            "type" : "VEC3"
        },
        {
            "bufferView" : 2,
            "componentType" : 5126,
            "count" : 4686,
            "type" : "VEC2"
        },
        {
            "bufferView" : 3,
            "componentType" : 5123,
            "count" : 10596,
            "type" : "SCALAR"
        },
        {
            "bufferView" : 4,
            "componentType" : 5126,
            "count" : 1356,
            "max" : [
                0.2700614631175995,
                1.0838899612426758,
                0.2716960310935974
            ],
            "min" : [
                -0.2699386477470398,
                0.5016897320747375,
                -0.28439590334892273
            ],
            "type" : "VEC3"
        },
        {
            "bufferView" : 5,
            "componentType" : 5126,
            "count" : 1356,
            "type" : "VEC3"
        },
        {
            "bufferView" : 6,
            "componentType" : 5126,
            "count" : 1356,
            "type" : "VEC2"
        },
        {
            "bufferView" : 7,
            "componentType" : 5123,
            "count" : 4920,
            "type" : "SCALAR"
        },
        {
            "bufferView" : 8,
            "componentType" : 5126,
            "count" : 96,
            "max" : [
                0.24496150016784668,
                0.31168991327285767,
                0.24640440940856934
            ],
            "min" : [
                -0.24503877758979797,
                0.011689815670251846,
                -0.24359595775604248
            ],
            "type" : "VEC3"
        },
        {
            "bufferView" : 9,
            "componentType" : 5126,
            "count" : 96,
            "type" : "VEC3"
        },
        {
            "bufferView" : 10,
            "componentType" : 5126,
            "count" : 96,
            "type" : "VEC2"
        },
        {
            "bufferView" : 11,
            "componentType" : 5123,
            "count" : 180,
            "type" : "SCALAR"
        }
    ],
    "bufferViews" : [
        {
            "buffer" : 0,
            "byteLength" : 56232,
            "byteOffset" : 0
        },
        {
            "buffer" : 0,
            "byteLength" : 56232,
            "byteOffset" : 56232
        },
        {
            "buffer" : 0,
            "byteLength" : 37488,
            "byteOffset" : 112464
        },
        {
            "buffer" : 0,
            "byteLength" : 21192,
            "byteOffset" : 149952
        },
        {
            "buffer" : 0,
            "byteLength" : 16272,
            "byteOffset" : 171144
        },
        {
            "buffer" : 0,
            "byteLength" : 16272,
            "byteOffset" : 187416
        },
        {
            "buffer" : 0,
            "byteLength" : 10848,
            "byteOffset" : 203688
        },
        {
            "buffer" : 0,
            "byteLength" : 9840,
            "byteOffset" : 214536
        },
        {
            "buffer" : 0,
            "byteLength" : 1152,
            "byteOffset" : 224376
        },
        {
            "buffer" : 0,
            "byteLength" : 1152,
            "byteOffset" : 225528
        },
        {
            "buffer" : 0,
            "byteLength" : 768,
            "byteOffset" : 226680
        },
        {
            "buffer" : 0,
            "byteLength" : 360,
            "byteOffset" : 227448
        }
    ],
    "buffers" : [
        {
            "byteLength" : 227808,
            "uri" : "data:application/octet-stream;base64,"
        }
    ]
}
