{
    "asset" : {
        "generator" : "Khronos glTF Blender I/O v1.4.40",
        "version" : "2.0"
    },
    "scene" : 0,
    "scenes" : [
        {
            "name" : "Scene",
            "nodes" : [
                0
            ]
        }
    ],
    "nodes" : [
        {
            "mesh" : 0,
            "name" : "Box017"
        }
    ],
    "materials" : [
        {
            "doubleSided" : true,
            "name" : "08 - Default896gf",
            "pbrMetallicRoughness" : {
                "baseColorFactor" : [
                    0,
                    0,
                    0,
                    1
                ],
                "metallicFactor" : 0,
                "roughnessFactor" : 0.5527864098548889
            }
        },
        {
            "doubleSided" : true,
            "name" : "08 - Default896gf.001",
            "pbrMetallicRoughness" : {
                "metallicFactor" : 0,
                "roughnessFactor" : 0.6138033270835876
            }
        }
    ],
    "meshes" : [
        {
            "name" : "Mesh.118",
            "primitives" : [
                {
                    "attributes" : {
                        "POSITION" : 0,
                        "NORMAL" : 1,
                        "TEXCOORD_0" : 2
                    },
                    "indices" : 3,
                    "material" : 0
                },
                {
                    "attributes" : {
                        "POSITION" : 4,
                        "NORMAL" : 5,
                        "TEXCOORD_0" : 6
                    },
                    "indices" : 7,
                    "material" : 1
                }
            ]
        }
    ],
    "accessors" : [
        {
            "bufferView" : 0,
            "componentType" : 5126,
            "count" : 3558,
            "max" : [
                0.8837030529975891,
                1.4951386451721191,
                0.18318308889865875
            ],
            "min" : [
                -0.8852973580360413,
                0.5016385912895203,
                -0.18281729519367218
            ],
            "type" : "VEC3"
        },
        {
            "bufferView" : 1,
            "componentType" : 5126,
            "count" : 3558,
            "type" : "VEC3"
        },
        {
            "bufferView" : 2,
            "componentType" : 5126,
            "count" : 3558,
            "type" : "VEC2"
        },
        {
            "bufferView" : 3,
            "componentType" : 5123,
            "count" : 9432,
            "type" : "SCALAR"
        },
        {
            "bufferView" : 4,
            "componentType" : 5126,
            "count" : 4064,
            "max" : [
                0.8582028746604919,
                1.4694386720657349,
                0.1899411827325821
            ],
            "min" : [
                -0.8597974181175232,
                0.527138352394104,
                0.15010806918144226
            ],
            "type" : "VEC3"
        },
        {
            "bufferView" : 5,
            "componentType" : 5126,
            "count" : 4064,
            "type" : "VEC3"
        },
        {
            "bufferView" : 6,
            "componentType" : 5126,
            "count" : 4064,
            "type" : "VEC2"
        },
        {
            "bufferView" : 7,
            "componentType" : 5123,
            "count" : 11196,
            "type" : "SCALAR"
        }
    ],
    "bufferViews" : [
        {
            "buffer" : 0,
            "byteLength" : 42696,
            "byteOffset" : 0
        },
        {
            "buffer" : 0,
            "byteLength" : 42696,
            "byteOffset" : 42696
        },
        {
            "buffer" : 0,
            "byteLength" : 28464,
            "byteOffset" : 85392
        },
        {
            "buffer" : 0,
            "byteLength" : 18864,
            "byteOffset" : 113856
        },
        {
            "buffer" : 0,
            "byteLength" : 48768,
            "byteOffset" : 132720
        },
        {
            "buffer" : 0,
            "byteLength" : 48768,
            "byteOffset" : 181488
        },
        {
            "buffer" : 0,
            "byteLength" : 32512,
            "byteOffset" : 230256
        },
        {
            "buffer" : 0,
            "byteLength" : 22392,
            "byteOffset" : 262768
        }
    ],
    "buffers" : [
        {
            "byteLength" : 285160,
            "uri" : "data:application/octet-stream;base64,"
        }
    ]
}
