{
    "asset" : {
        "generator" : "Khronos glTF Blender I/O v1.7.33",
        "version" : "2.0"
    },
    "scene" : 0,
    "scenes" : [
        {
            "name" : "Scene",
            "nodes" : [
                0
            ]
        }
    ],
    "nodes" : [
        {
            "mesh" : 0,
            "name" : "Luna"
        }
    ],
    "materials" : [
        {
            "doubleSided" : true,
            "name" : "black",
            "pbrMetallicRoughness" : {
                "baseColorFactor" : [
                    0.014669571071863174,
                    0.014669571071863174,
                    0.014669571071863174,
                    1
                ],
                "metallicFactor" : 0,
                "roughnessFactor" : 0.37735849618911743
            }
        },
        {
            "doubleSided" : true,
            "name" : "White",
            "pbrMetallicRoughness" : {
                "metallicFactor" : 0,
                "roughnessFactor" : 0.21176469326019287
            }
        },
        {
            "doubleSided" : true,
            "name" : "Metal",
            "pbrMetallicRoughness" : {
                "roughnessFactor" : 0.2962264120578766
            }
        },
        {
            "doubleSided" : true,
            "emissiveFactor" : [
                1,
                1,
                1
            ],
            "name" : "Screen",
            "pbrMetallicRoughness" : {
                "baseColorFactor" : [
                    0.4447517991065979,
                    0.7322567105293274,
                    0.8000000715255737,
                    1
                ],
                "metallicFactor" : 0,
                "roughnessFactor" : 0.5
            }
        },
        {
            "doubleSided" : true,
            "emissiveFactor" : [
                0.007011475312724613,
                1,
                1
            ],
            "name" : "Light",
            "pbrMetallicRoughness" : {
                "baseColorFactor" : [
                    0.0020759636536240578,
                    0.4772578775882721,
                    0.8000000715255737,
                    1
                ],
                "metallicFactor" : 0,
                "roughnessFactor" : 0.5
            }
        }
    ],
    "meshes" : [
        {
            "name" : "Mesh.019",
            "primitives" : [
                {
                    "attributes" : {
                        "POSITION" : 0,
                        "NORMAL" : 1,
                        "TEXCOORD_0" : 2
                    },
                    "indices" : 3,
                    "material" : 0
                },
                {
                    "attributes" : {
                        "POSITION" : 4,
                        "NORMAL" : 5,
                        "TEXCOORD_0" : 6
                    },
                    "indices" : 7,
                    "material" : 1
                },
                {
                    "attributes" : {
                        "POSITION" : 8,
                        "NORMAL" : 9,
                        "TEXCOORD_0" : 10
                    },
                    "indices" : 11,
                    "material" : 2
                },
                {
                    "attributes" : {
                        "POSITION" : 12,
                        "NORMAL" : 13,
                        "TEXCOORD_0" : 14
                    },
                    "indices" : 15,
                    "material" : 3
                },
                {
                    "attributes" : {
                        "POSITION" : 16,
                        "NORMAL" : 17,
                        "TEXCOORD_0" : 18
                    },
                    "indices" : 19,
                    "material" : 4
                }
            ]
        }
    ],
    "accessors" : [
        {
            "bufferView" : 0,
            "componentType" : 5126,
            "count" : 2300,
            "max" : [
                0.7132710218429565,
                1.983177661895752,
                0.3185938000679016
            ],
            "min" : [
                -0.738426148891449,
                0.004784201271831989,
                -0.3136361539363861
            ],
            "type" : "VEC3"
        },
        {
            "bufferView" : 1,
            "componentType" : 5126,
            "count" : 2300,
            "type" : "VEC3"
        },
        {
            "bufferView" : 2,
            "componentType" : 5126,
            "count" : 2300,
            "type" : "VEC2"
        },
        {
            "bufferView" : 3,
            "componentType" : 5123,
            "count" : 4566,
            "type" : "SCALAR"
        },
        {
            "bufferView" : 4,
            "componentType" : 5126,
            "count" : 811,
            "max" : [
                0.6315661072731018,
                1.9784361124038696,
                0.37512972950935364
            ],
            "min" : [
                -0.6567211747169495,
                0.08721732348203659,
                -0.3081637918949127
            ],
            "type" : "VEC3"
        },
        {
            "bufferView" : 5,
            "componentType" : 5126,
            "count" : 811,
            "type" : "VEC3"
        },
        {
            "bufferView" : 6,
            "componentType" : 5126,
            "count" : 811,
            "type" : "VEC2"
        },
        {
            "bufferView" : 7,
            "componentType" : 5123,
            "count" : 1821,
            "type" : "SCALAR"
        },
        {
            "bufferView" : 8,
            "componentType" : 5126,
            "count" : 880,
            "max" : [
                0.7071729302406311,
                1.0598788261413574,
                0.3739151060581207
            ],
            "min" : [
                -0.7323280572891235,
                0.73117995262146,
                -0.31059542298316956
            ],
            "type" : "VEC3"
        },
        {
            "bufferView" : 9,
            "componentType" : 5126,
            "count" : 880,
            "type" : "VEC3"
        },
        {
            "bufferView" : 10,
            "componentType" : 5126,
            "count" : 880,
            "type" : "VEC2"
        },
        {
            "bufferView" : 11,
            "componentType" : 5123,
            "count" : 1848,
            "type" : "SCALAR"
        },
        {
            "bufferView" : 12,
            "componentType" : 5126,
            "count" : 16,
            "max" : [
                0.16295203566551208,
                1.861638069152832,
                -0.11521448940038681
            ],
            "min" : [
                -0.18860046565532684,
                1.273611307144165,
                -0.15562371909618378
            ],
            "type" : "VEC3"
        },
        {
            "bufferView" : 13,
            "componentType" : 5126,
            "count" : 16,
            "type" : "VEC3"
        },
        {
            "bufferView" : 14,
            "componentType" : 5126,
            "count" : 16,
            "type" : "VEC2"
        },
        {
            "bufferView" : 15,
            "componentType" : 5123,
            "count" : 42,
            "type" : "SCALAR"
        },
        {
            "bufferView" : 16,
            "componentType" : 5126,
            "count" : 152,
            "max" : [
                0.23084387183189392,
                1.9784361124038696,
                0.3696835935115814
            ],
            "min" : [
                -0.25628358125686646,
                1.0227960348129272,
                -0.3064420521259308
            ],
            "type" : "VEC3"
        },
        {
            "bufferView" : 17,
            "componentType" : 5126,
            "count" : 152,
            "type" : "VEC3"
        },
        {
            "bufferView" : 18,
            "componentType" : 5126,
            "count" : 152,
            "type" : "VEC2"
        },
        {
            "bufferView" : 19,
            "componentType" : 5123,
            "count" : 348,
            "type" : "SCALAR"
        }
    ],
    "bufferViews" : [
        {
            "buffer" : 0,
            "byteLength" : 27600,
            "byteOffset" : 0
        },
        {
            "buffer" : 0,
            "byteLength" : 27600,
            "byteOffset" : 27600
        },
        {
            "buffer" : 0,
            "byteLength" : 18400,
            "byteOffset" : 55200
        },
        {
            "buffer" : 0,
            "byteLength" : 9132,
            "byteOffset" : 73600
        },
        {
            "buffer" : 0,
            "byteLength" : 9732,
            "byteOffset" : 82732
        },
        {
            "buffer" : 0,
            "byteLength" : 9732,
            "byteOffset" : 92464
        },
        {
            "buffer" : 0,
            "byteLength" : 6488,
            "byteOffset" : 102196
        },
        {
            "buffer" : 0,
            "byteLength" : 3642,
            "byteOffset" : 108684
        },
        {
            "buffer" : 0,
            "byteLength" : 10560,
            "byteOffset" : 112328
        },
        {
            "buffer" : 0,
            "byteLength" : 10560,
            "byteOffset" : 122888
        },
        {
            "buffer" : 0,
            "byteLength" : 7040,
            "byteOffset" : 133448
        },
        {
            "buffer" : 0,
            "byteLength" : 3696,
            "byteOffset" : 140488
        },
        {
            "buffer" : 0,
            "byteLength" : 192,
            "byteOffset" : 144184
        },
        {
            "buffer" : 0,
            "byteLength" : 192,
            "byteOffset" : 144376
        },
        {
            "buffer" : 0,
            "byteLength" : 128,
            "byteOffset" : 144568
        },
        {
            "buffer" : 0,
            "byteLength" : 84,
            "byteOffset" : 144696
        },
        {
            "buffer" : 0,
            "byteLength" : 1824,
            "byteOffset" : 144780
        },
        {
            "buffer" : 0,
            "byteLength" : 1824,
            "byteOffset" : 146604
        },
        {
            "buffer" : 0,
            "byteLength" : 1216,
            "byteOffset" : 148428
        },
        {
            "buffer" : 0,
            "byteLength" : 696,
            "byteOffset" : 149644
        }
    ],
    "buffers" : [
        {
            "byteLength" : 150340,
            "uri" : "data:application/octet-stream;base64,"
        }
    ]
}
