{
    "asset" : {
        "generator" : "Khronos glTF Blender I/O v1.7.33",
        "version" : "2.0"
    },
    "scene" : 0,
    "scenes" : [
        {
            "name" : "Scene",
            "nodes" : [
                0
            ]
        }
    ],
    "nodes" : [
        {
            "mesh" : 0,
            "name" : "Lyra"
        }
    ],
    "materials" : [
        {
            "doubleSided" : true,
            "name" : "black",
            "pbrMetallicRoughness" : {
                "baseColorFactor" : [
                    0.014669571071863174,
                    0.014669571071863174,
                    0.014669571071863174,
                    1
                ],
                "metallicFactor" : 0,
                "roughnessFactor" : 0.37735849618911743
            }
        },
        {
            "doubleSided" : true,
            "name" : "White",
            "pbrMetallicRoughness" : {
                "metallicFactor" : 0,
                "roughnessFactor" : 0.21176469326019287
            }
        },
        {
            "doubleSided" : true,
            "emissiveFactor" : [
                1,
                1,
                1
            ],
            "name" : "Screen",
            "pbrMetallicRoughness" : {
                "baseColorFactor" : [
                    0.4447517991065979,
                    0.7322567105293274,
                    0.8000000715255737,
                    1
                ],
                "metallicFactor" : 0,
                "roughnessFactor" : 0.5
            }
        }
    ],
    "meshes" : [
        {
            "name" : "Mesh.007",
            "primitives" : [
                {
                    "attributes" : {
                        "POSITION" : 0,
                        "NORMAL" : 1,
                        "TEXCOORD_0" : 2
                    },
                    "indices" : 3,
                    "material" : 0
                },
                {
                    "attributes" : {
                        "POSITION" : 4,
                        "NORMAL" : 5,
                        "TEXCOORD_0" : 6
                    },
                    "indices" : 7,
                    "material" : 1
                },
                {
                    "attributes" : {
                        "POSITION" : 8,
                        "NORMAL" : 9,
                        "TEXCOORD_0" : 10
                    },
                    "indices" : 11,
                    "material" : 2
                }
            ]
        }
    ],
    "accessors" : [
        {
            "bufferView" : 0,
            "componentType" : 5126,
            "count" : 1692,
            "max" : [
                0.3244447410106659,
                1.8623987436294556,
                0.26208770275115967
            ],
            "min" : [
                -0.3255554139614105,
                0.010632618330419064,
                -0.2579124867916107
            ],
            "type" : "VEC3"
        },
        {
            "bufferView" : 1,
            "componentType" : 5126,
            "count" : 1692,
            "type" : "VEC3"
        },
        {
            "bufferView" : 2,
            "componentType" : 5126,
            "count" : 1692,
            "type" : "VEC2"
        },
        {
            "bufferView" : 3,
            "componentType" : 5123,
            "count" : 3216,
            "type" : "SCALAR"
        },
        {
            "bufferView" : 4,
            "componentType" : 5126,
            "count" : 166,
            "max" : [
                0.1703292429447174,
                1.76160728931427,
                0.03398968651890755
            ],
            "min" : [
                -0.1714434176683426,
                0.8122580051422119,
                -0.19041302800178528
            ],
            "type" : "VEC3"
        },
        {
            "bufferView" : 5,
            "componentType" : 5126,
            "count" : 166,
            "type" : "VEC3"
        },
        {
            "bufferView" : 6,
            "componentType" : 5126,
            "count" : 166,
            "type" : "VEC2"
        },
        {
            "bufferView" : 7,
            "componentType" : 5123,
            "count" : 324,
            "type" : "SCALAR"
        },
        {
            "bufferView" : 8,
            "componentType" : 5126,
            "count" : 16,
            "max" : [
                0.14378972351551056,
                1.703059434890747,
                -0.027393212541937828
            ],
            "min" : [
                -0.145357146859169,
                1.22356379032135,
                -0.09880530834197998
            ],
            "type" : "VEC3"
        },
        {
            "bufferView" : 9,
            "componentType" : 5126,
            "count" : 16,
            "type" : "VEC3"
        },
        {
            "bufferView" : 10,
            "componentType" : 5126,
            "count" : 16,
            "type" : "VEC2"
        },
        {
            "bufferView" : 11,
            "componentType" : 5123,
            "count" : 42,
            "type" : "SCALAR"
        }
    ],
    "bufferViews" : [
        {
            "buffer" : 0,
            "byteLength" : 20304,
            "byteOffset" : 0
        },
        {
            "buffer" : 0,
            "byteLength" : 20304,
            "byteOffset" : 20304
        },
        {
            "buffer" : 0,
            "byteLength" : 13536,
            "byteOffset" : 40608
        },
        {
            "buffer" : 0,
            "byteLength" : 6432,
            "byteOffset" : 54144
        },
        {
            "buffer" : 0,
            "byteLength" : 1992,
            "byteOffset" : 60576
        },
        {
            "buffer" : 0,
            "byteLength" : 1992,
            "byteOffset" : 62568
        },
        {
            "buffer" : 0,
            "byteLength" : 1328,
            "byteOffset" : 64560
        },
        {
            "buffer" : 0,
            "byteLength" : 648,
            "byteOffset" : 65888
        },
        {
            "buffer" : 0,
            "byteLength" : 192,
            "byteOffset" : 66536
        },
        {
            "buffer" : 0,
            "byteLength" : 192,
            "byteOffset" : 66728
        },
        {
            "buffer" : 0,
            "byteLength" : 128,
            "byteOffset" : 66920
        },
        {
            "buffer" : 0,
            "byteLength" : 84,
            "byteOffset" : 67048
        }
    ],
    "buffers" : [
        {
            "byteLength" : 67132,
            "uri" : "data:application/octet-stream;base64,"
        }
    ]
}
