{
    "asset" : {
        "generator" : "Khronos glTF Blender I/O v1.7.33",
        "version" : "2.0"
    },
    "scene" : 0,
    "scenes" : [
        {
            "name" : "Scene",
            "nodes" : [
                0
            ]
        }
    ],
    "nodes" : [
        {
            "mesh" : 0,
            "name" : "suner mini"
        }
    ],
    "materials" : [
        {
            "doubleSided" : true,
            "name" : "black",
            "pbrMetallicRoughness" : {
                "baseColorFactor" : [
                    0.014669571071863174,
                    0.014669571071863174,
                    0.014669571071863174,
                    1
                ],
                "metallicFactor" : 0,
                "roughnessFactor" : 0.37735849618911743
            }
        },
        {
            "doubleSided" : true,
            "name" : "White",
            "pbrMetallicRoughness" : {
                "metallicFactor" : 0,
                "roughnessFactor" : 0.21176469326019287
            }
        },
        {
            "doubleSided" : true,
            "name" : "Metal",
            "pbrMetallicRoughness" : {
                "roughnessFactor" : 0.2962264120578766
            }
        }
    ],
    "meshes" : [
        {
            "name" : "Mesh.053",
            "primitives" : [
                {
                    "attributes" : {
                        "POSITION" : 0,
                        "NORMAL" : 1
                    },
                    "indices" : 2,
                    "material" : 0
                },
                {
                    "attributes" : {
                        "POSITION" : 3,
                        "NORMAL" : 4
                    },
                    "indices" : 5,
                    "material" : 1
                },
                {
                    "attributes" : {
                        "POSITION" : 6,
                        "NORMAL" : 7
                    },
                    "indices" : 8,
                    "material" : 2
                }
            ]
        }
    ],
    "accessors" : [
        {
            "bufferView" : 0,
            "componentType" : 5126,
            "count" : 324,
            "max" : [
                0.19562670588493347,
                1.3001655340194702,
                0.1646192967891693
            ],
            "min" : [
                -0.1943732351064682,
                -0.0008343235240317881,
                -0.16538067162036896
            ],
            "type" : "VEC3"
        },
        {
            "bufferView" : 1,
            "componentType" : 5126,
            "count" : 324,
            "type" : "VEC3"
        },
        {
            "bufferView" : 2,
            "componentType" : 5123,
            "count" : 612,
            "type" : "SCALAR"
        },
        {
            "bufferView" : 3,
            "componentType" : 5126,
            "count" : 672,
            "max" : [
                0.1406267136335373,
                1.2991654872894287,
                0.12386951595544815
            ],
            "min" : [
                -0.1393732875585556,
                0.05716570466756821,
                -0.12563060224056244
            ],
            "type" : "VEC3"
        },
        {
            "bufferView" : 4,
            "componentType" : 5126,
            "count" : 672,
            "type" : "VEC3"
        },
        {
            "bufferView" : 5,
            "componentType" : 5123,
            "count" : 1284,
            "type" : "SCALAR"
        },
        {
            "bufferView" : 6,
            "componentType" : 5126,
            "count" : 1392,
            "max" : [
                0.13952669501304626,
                1.133131504058838,
                0.12276951968669891
            ],
            "min" : [
                -0.13827326893806458,
                0.9851655960083008,
                -0.02433048002421856
            ],
            "type" : "VEC3"
        },
        {
            "bufferView" : 7,
            "componentType" : 5126,
            "count" : 1392,
            "type" : "VEC3"
        },
        {
            "bufferView" : 8,
            "componentType" : 5123,
            "count" : 2940,
            "type" : "SCALAR"
        }
    ],
    "bufferViews" : [
        {
            "buffer" : 0,
            "byteLength" : 3888,
            "byteOffset" : 0
        },
        {
            "buffer" : 0,
            "byteLength" : 3888,
            "byteOffset" : 3888
        },
        {
            "buffer" : 0,
            "byteLength" : 1224,
            "byteOffset" : 7776
        },
        {
            "buffer" : 0,
            "byteLength" : 8064,
            "byteOffset" : 9000
        },
        {
            "buffer" : 0,
            "byteLength" : 8064,
            "byteOffset" : 17064
        },
        {
            "buffer" : 0,
            "byteLength" : 2568,
            "byteOffset" : 25128
        },
        {
            "buffer" : 0,
            "byteLength" : 16704,
            "byteOffset" : 27696
        },
        {
            "buffer" : 0,
            "byteLength" : 16704,
            "byteOffset" : 44400
        },
        {
            "buffer" : 0,
            "byteLength" : 5880,
            "byteOffset" : 61104
        }
    ],
    "buffers" : [
        {
            "byteLength" : 66984,
            "uri" : "data:application/octet-stream;base64,"
        }
    ]
}
