<svg width="52" height="48" viewBox="0 0 52 48" fill="none" xmlns="http://www.w3.org/2000/svg">
<path d="M51.2051 33.2245C51.2051 29.3266 47.2904 25.8542 41.242 23.6602M41.5314 42.6532C37.3681 44.2451 31.9802 45.2247 26.1025 45.2247C12.2655 45.2247 0.999983 39.8368 0.999983 33.2245C0.999983 29.3266 4.91462 25.8542 10.963 23.6602" stroke="black" stroke-miterlimit="10"/>
<path d="M39.3273 47.1848L41.7764 42.6541L37.2457 40.2051" stroke="black" stroke-miterlimit="10"/>
<path d="M11.041 9.79639L26.1025 18.1639V36.5724L11.041 28.2049V9.79639Z" fill="white" stroke="black" stroke-linejoin="round"/>
<path d="M41.1641 9.79639L26.1026 18.1639V36.5724L41.1641 28.2049V9.79639Z" fill="white" stroke="black" stroke-linejoin="round"/>
<path d="M41.1641 9.79572L26.1026 18.1632L11.0411 9.79574L26.1026 1.42822L41.1641 9.79572Z" fill="white" stroke="black" stroke-linejoin="round"/>
</svg>
