<svg width="502" height="37" viewBox="0 0 502 37" fill="none" xmlns="http://www.w3.org/2000/svg">
<path d="M295.7 7.5H292.5V28.7H295.7H300.2H314.8V23.3H300.2V20.6H314.8V15.4H300.2V13H314.8V7.5H300.2H295.7Z" fill="black"/>
<path d="M262.5 28.7002H241.3V36.2002H262.5V28.7002Z" fill="black"/>
<path d="M262.5 0H241.3V7.5H262.5V0Z" fill="black"/>
<path d="M487 6.8999C478.5 6.8999 472.2 11.9999 472.2 18.0999C472.2 24.1999 478.5 29.2999 487 29.2999C495.5 29.2999 501.8 24.1999 501.8 18.0999C501.8 11.9999 495.5 6.8999 487 6.8999ZM487 23.5999C482.9 23.5999 480.2 21.1999 480.2 18.0999C480.2 14.9999 482.9 12.5999 487 12.5999C491.1 12.5999 493.8 14.9999 493.8 18.0999C493.8 21.1999 491.1 23.5999 487 23.5999Z" fill="black"/>
<path d="M369.8 23.1H369L362.4 7.5H361.6H356.3H354.6H351.6H348.6V28.7H356.3V13.2H357L363.7 28.7H365.1H369.8H371.4H375.1H377.4V7.5H369.8V23.1Z" fill="black"/>
<path d="M275.8 7.5H270.3H265.8H262.6V28.7H265.8H270.3H275.8C284.2 28.7 290.1 24.3 290.1 18.1C290 11.9 284.2 7.5 275.8 7.5ZM275.8 23.1H270.3V13.2H275.8C279.5 13.2 282 15.3 282 18.2C282 21 279.5 23.1 275.8 23.1Z" fill="black"/>
<path d="M460.3 7.5H452.8H448.3H445.1V28.7H452.8V22.5H460.3C466.3 22.5 470.6 19.5 470.6 15C470.6 10.5 466.3 7.5 460.3 7.5ZM460.3 16.9H452.8V13.1H460.3C461.9 13.1 462.7 14.1 462.7 15C462.6 15.9 461.9 16.9 460.3 16.9Z" fill="black"/>
<path d="M345.5 14.9C345.5 10.4 341.3 7.5 335.2 7.5H326.8H322.3H319.1V28.7H326.8V22.1H332.6L337.1 28.7H345.7L340.5 21.3C343.6 20.2 345.5 17.9 345.5 14.9ZM326.8 13.1H335.2C336.8 13.1 337.6 13.9 337.6 14.9C337.6 15.8 336.8 16.7 335.2 16.7H326.8V13.1Z" fill="black"/>
<path d="M392.3 7.5H389.1V28.7H392.3H396.8H411.4V23.3H396.8V20.6H411.4V15.4H396.8V13H411.4V7.5H396.8H392.3Z" fill="black"/>
<path d="M234.7 7.5H233.7H228.2H227.6L223.3 22.1L219 7.5H217.9H212.9H211.9H207.9H205.5V28.7H212.9V13.2H213.5L218.1 28.7H221.3H225.3H228.4L233 13.2H233.7V28.7H241.3V7.5H238.2H234.7Z" fill="black"/>
<path d="M434.3 7.5L428.4 13.9L422.5 7.5H413.3L423.4 18L413.3 28.7H422.5L428.4 22.2L434.3 28.7H443.4L433.4 18L443.4 7.5H434.3Z" fill="black"/>
<path d="M13.2539 23.1729H5.09082V29H1.81543V10.7949H13.2539C15.446 10.7949 17.2445 11.3874 18.6494 12.5723C20.0459 13.7656 20.7441 15.2467 20.7441 17.0156C20.7441 18.8353 20.0544 20.3164 18.6748 21.459C17.2952 22.6016 15.4883 23.1729 13.2539 23.1729ZM13.292 13.8164H5.09082V20.2656H13.292C14.5615 20.2656 15.5771 19.9482 16.3389 19.3135C17.0921 18.6787 17.4688 17.9128 17.4688 17.0156C17.4688 16.0931 17.0921 15.3271 16.3389 14.7178C15.5856 14.1169 14.57 13.8164 13.292 13.8164ZM25.7842 18.7549H25.8857C26.5798 17.7646 27.5023 16.986 28.6533 16.4189C29.8128 15.8604 31.0908 15.5811 32.4873 15.5811L32.4619 18.4756C30.7438 18.2471 29.2415 18.5771 27.9551 19.4658C26.6602 20.3714 26.0127 21.5648 26.0127 23.0459H25.9873V29H22.915V15.9492H24.9717L25.7842 18.7549ZM42.3516 15.5811C44.8398 15.5811 46.8796 16.2201 48.4707 17.498C50.0703 18.7845 50.8701 20.4307 50.8701 22.4365C50.8701 24.4508 50.0703 26.1055 48.4707 27.4004C46.8711 28.6953 44.8229 29.3428 42.3262 29.3428C39.8548 29.3343 37.8151 28.6826 36.207 27.3877C34.599 26.1097 33.7949 24.4635 33.7949 22.4492C33.7949 20.418 34.599 18.7633 36.207 17.4854C37.8066 16.2158 39.8548 15.5811 42.3516 15.5811ZM38.4287 25.3057C39.4359 26.0505 40.735 26.4229 42.3262 26.4229C43.9004 26.4229 45.1995 26.0505 46.2236 25.3057C47.2477 24.5524 47.7682 23.6003 47.7852 22.4492C47.7852 21.2897 47.2731 20.3376 46.249 19.5928C45.2249 18.848 43.9258 18.4756 42.3516 18.4756C40.7689 18.4756 39.4697 18.8438 38.4541 19.5801C37.43 20.3164 36.918 21.2728 36.918 22.4492C36.901 23.6087 37.4046 24.5609 38.4287 25.3057ZM60.4043 15.5811C61.7331 15.5811 62.9476 15.8561 64.0479 16.4062C65.1396 16.9733 65.9945 17.7477 66.6123 18.7295H66.7393V10.1729H69.8115V29H67.7549L66.9043 25.9531H66.7646C66.1553 27.0026 65.292 27.8236 64.1748 28.416C63.0407 29.0254 61.7923 29.3343 60.4297 29.3428C58.3053 29.3428 56.5407 28.6995 55.1357 27.4131C53.7393 26.1351 53.041 24.4889 53.041 22.4746C53.041 20.4603 53.735 18.8057 55.123 17.5107C56.5111 16.2243 58.2715 15.5811 60.4043 15.5811ZM57.6494 25.3184C58.665 26.0547 59.9303 26.4229 61.4453 26.4229C62.9518 26.4229 64.2129 26.0547 65.2285 25.3184C66.2357 24.582 66.7308 23.6341 66.7139 22.4746C66.7139 21.2982 66.2145 20.3376 65.2158 19.5928C64.2171 18.848 62.9603 18.4756 61.4453 18.4756C59.9388 18.4756 58.6735 18.8522 57.6494 19.6055C56.6253 20.3503 56.1133 21.3066 56.1133 22.4746C56.1133 23.6341 56.6253 24.582 57.6494 25.3184ZM81.5801 26.4482C83.0189 26.4482 84.2292 26.0716 85.2109 25.3184C86.1927 24.5651 86.6836 23.541 86.6836 22.2461V15.9492H89.7559V29H87.6992L87.0264 26.6387H86.9121C86.2266 27.485 85.3421 28.1494 84.2588 28.6318C83.1755 29.1058 81.9906 29.3428 80.7041 29.3428C78.5628 29.3428 76.8024 28.7207 75.4229 27.4766C74.0348 26.2409 73.3408 24.6582 73.3408 22.7285V15.9492H76.4385V22.1064C76.4385 23.4775 76.9294 24.5439 77.9111 25.3057C78.8844 26.0674 80.1074 26.4482 81.5801 26.4482ZM101.778 26.4482C103.818 26.4482 105.43 26.1097 106.615 25.4326L107.034 28.3779C105.477 29.0381 103.793 29.3682 101.981 29.3682C99.1292 29.3597 96.8441 28.7122 95.126 27.4258C93.4079 26.1562 92.5573 24.5059 92.5742 22.4746C92.5742 20.4264 93.4163 18.7633 95.1006 17.4854C96.7764 16.2158 99.0361 15.5811 101.88 15.5811C103.767 15.5811 105.346 15.8773 106.615 16.4697L105.701 19.1992C104.609 18.7168 103.268 18.4756 101.677 18.4756C99.8402 18.4756 98.3844 18.8438 97.3096 19.5801C96.2347 20.3164 95.6973 21.2812 95.6973 22.4746C95.6973 23.6341 96.2474 24.5863 97.3477 25.3311C98.4479 26.0758 99.9248 26.4482 101.778 26.4482ZM116.733 15.5811C119.196 15.5811 121.198 16.2158 122.738 17.4854C124.27 18.7633 125.036 20.4264 125.036 22.4746C125.036 22.7793 125.011 23.1771 124.96 23.668H111.668C111.998 24.5736 112.713 25.2591 113.813 25.7246C114.922 26.207 116.289 26.4482 117.914 26.4482C120.064 26.4482 121.82 26.0843 123.183 25.3564L123.805 28.0352C122.222 28.9069 120.25 29.3512 117.889 29.3682C114.91 29.3682 112.574 28.7334 110.881 27.4639C109.188 26.2028 108.342 24.5397 108.342 22.4746C108.342 20.4434 109.112 18.7845 110.652 17.498C112.184 16.2201 114.211 15.5811 116.733 15.5811ZM111.566 21.5352H121.938C121.922 20.6549 121.393 19.9229 120.352 19.3389C119.302 18.7633 118.109 18.4756 116.771 18.4756C115.417 18.4756 114.271 18.7422 113.331 19.2754C112.383 19.8086 111.795 20.5618 111.566 21.5352ZM134.469 15.5811C135.798 15.5811 137.012 15.8561 138.112 16.4062C139.204 16.9733 140.059 17.7477 140.677 18.7295H140.804V10.1729H143.876V29H141.819L140.969 25.9531H140.829C140.22 27.0026 139.356 27.8236 138.239 28.416C137.105 29.0254 135.857 29.3343 134.494 29.3428C132.37 29.3428 130.605 28.6995 129.2 27.4131C127.804 26.1351 127.105 24.4889 127.105 22.4746C127.105 20.4603 127.799 18.8057 129.188 17.5107C130.576 16.2243 132.336 15.5811 134.469 15.5811ZM131.714 25.3184C132.729 26.0547 133.995 26.4229 135.51 26.4229C137.016 26.4229 138.277 26.0547 139.293 25.3184C140.3 24.582 140.795 23.6341 140.778 22.4746C140.778 21.2982 140.279 20.3376 139.28 19.5928C138.282 18.848 137.025 18.4756 135.51 18.4756C134.003 18.4756 132.738 18.8522 131.714 19.6055C130.69 20.3503 130.178 21.3066 130.178 22.4746C130.178 23.6341 130.69 24.582 131.714 25.3184ZM163.554 15.5811C165.687 15.5811 167.447 16.2243 168.835 17.5107C170.215 18.8057 170.904 20.4603 170.904 22.4746C170.904 24.4889 170.206 26.1351 168.81 27.4131C167.405 28.6995 165.644 29.3428 163.528 29.3428C162.157 29.3343 160.905 29.0254 159.771 28.416C158.653 27.8236 157.79 27.0026 157.181 25.9531H157.054L156.19 29H154.134V10.1729H157.206V18.7295H157.333C157.951 17.7393 158.81 16.9648 159.91 16.4062C161.01 15.8561 162.225 15.5811 163.554 15.5811ZM157.231 22.4746C157.215 23.6341 157.714 24.582 158.729 25.3184C159.745 26.0547 161.006 26.4229 162.513 26.4229C164.011 26.4229 165.276 26.0547 166.309 25.3184C167.333 24.582 167.845 23.6341 167.845 22.4746C167.845 21.3066 167.333 20.3503 166.309 19.6055C165.276 18.8522 164.011 18.4756 162.513 18.4756C160.998 18.4756 159.741 18.848 158.742 19.5928C157.735 20.346 157.231 21.3066 157.231 22.4746ZM180.083 26.3213H180.223L184.92 15.9492H188.018L181.518 30.2441C180.663 32.1569 179.668 33.473 178.534 34.1924C177.383 34.9118 175.779 35.2715 173.723 35.2715C173.054 35.2715 172.343 35.1911 171.59 35.0303V32.1738C172.368 32.3939 173.164 32.4954 173.977 32.4785C176.169 32.4785 177.713 31.5856 178.61 29.7998L171.818 15.9492H174.967L180.083 26.3213Z" fill="black"/>
</svg>
