<svg width="36" height="51" viewBox="0 0 36 51" fill="none" xmlns="http://www.w3.org/2000/svg">
<path d="M29.0454 12.8086L6.90429 1V7.64233L2.47607 9.85644L6.90429 12.8086V20.927L2.47607 23.1411L6.90429 26.0932V34.2116L1 37.9018L23.1411 50.4485L34.9497 43.8061L29.0454 40.1159V33.4736L33.4736 31.2595L29.0454 29.0454V20.927L33.4736 17.9748L29.0454 15.7607V12.8086Z" fill="white"/>
<path d="M29.8181 40.625L35.388 43.7833L23.2796 50.2412L1 37.6078L7.05421 34.3789" stroke="black" stroke-miterlimit="10" stroke-linecap="round" stroke-linejoin="round"/>
<path d="M29.4146 20.6162L33.7735 18.4767L30.9886 16.8975L29.5961 16.1079" stroke="black" stroke-miterlimit="10" stroke-linecap="round" stroke-linejoin="round"/>
<path d="M29.4146 33.5537L33.7735 31.4142L30.9886 29.835L29.5961 29.0454" stroke="black" stroke-miterlimit="10" stroke-linecap="round" stroke-linejoin="round"/>
<path d="M6.9043 8.38037V1L29.1838 13.1088V47.0123L6.9043 34.0963V26.0932M6.9043 13.4111V17.5482V20.927" stroke="black" stroke-miterlimit="10" stroke-linecap="round" stroke-linejoin="round"/>
<path d="M28.9301 20.8985L6.65057 8.26514L2.29163 10.4047L24.5712 23.038L28.9301 20.8985Z" stroke="black" stroke-miterlimit="10" stroke-linecap="round" stroke-linejoin="round"/>
<path d="M28.9301 33.814L6.65057 21.1807L2.29163 23.3202L24.5712 35.9535L28.9301 33.814Z" stroke="black" stroke-miterlimit="10" stroke-linecap="round" stroke-linejoin="round"/>
</svg>
