<svg width="14" height="32" viewBox="0 0 14 32" fill="none" xmlns="http://www.w3.org/2000/svg">
<mask id="path-1-outside-1_1009_1955" maskUnits="userSpaceOnUse" x="0" y="3.125" width="14" height="29" fill="black">
<rect fill="white" y="3.125" width="14" height="29"/>
<path fill-rule="evenodd" clip-rule="evenodd" d="M6.625 7.25L1 4.125V27.875L6.625 31V31.0002L12.25 27.8752V4.12515L6.625 7.25015V7.25Z"/>
</mask>
<path fill-rule="evenodd" clip-rule="evenodd" d="M6.625 7.25L1 4.125V27.875L6.625 31V31.0002L12.25 27.8752V4.12515L6.625 7.25015V7.25Z" fill="white"/>
<path d="M1 4.125L1.48564 3.25084C1.17591 3.07877 0.79825 3.08344 0.492872 3.26313C0.187494 3.44281 0 3.77068 0 4.125H1ZM6.625 7.25H7.625C7.625 6.88683 7.42811 6.55221 7.11064 6.37584L6.625 7.25ZM1 27.875H0C0 28.2382 0.196892 28.5728 0.514357 28.7492L1 27.875ZM6.625 31H7.625C7.625 30.6368 7.42811 30.3022 7.11064 30.1258L6.625 31ZM6.625 31.0002H5.625C5.625 31.3545 5.81249 31.6823 6.11787 31.862C6.42325 32.0417 6.80091 32.0464 7.11064 31.8743L6.625 31.0002ZM12.25 27.8752L12.7356 28.7493C13.0531 28.5729 13.25 28.2383 13.25 27.8752H12.25ZM12.25 4.12515H13.25C13.25 3.77083 13.0625 3.44297 12.7571 3.26328C12.4517 3.0836 12.0741 3.07892 11.7644 3.251L12.25 4.12515ZM6.625 7.25015H5.625C5.625 7.60447 5.81249 7.93234 6.11787 8.11202C6.42325 8.29171 6.80091 8.29638 7.11064 8.12431L6.625 7.25015ZM0.514357 4.99916L6.13936 8.12416L7.11064 6.37584L1.48564 3.25084L0.514357 4.99916ZM2 27.875V4.125H0V27.875H2ZM7.11064 30.1258L1.48564 27.0008L0.514357 28.7492L6.13936 31.8742L7.11064 30.1258ZM5.625 31V31.0002H7.625V31H5.625ZM7.11064 31.8743L12.7356 28.7493L11.7644 27.001L6.13936 30.126L7.11064 31.8743ZM13.25 27.8752V4.12515H11.25V27.8752H13.25ZM11.7644 3.251L6.13936 6.376L7.11064 8.12431L12.7356 4.99931L11.7644 3.251ZM5.625 7.25V7.25015H7.625V7.25H5.625Z" fill="black" mask="url(#path-1-outside-1_1009_1955)"/>
<path d="M6.625 7.5625V31" stroke="black"/>
<path d="M0.757179 3.68792C0.598446 3.77611 0.5 3.94342 0.5 4.125C0.5 4.30658 0.598446 4.47389 0.757179 4.56208L6.38218 7.68708C6.53319 7.77097 6.71681 7.77097 6.86782 7.68708L12.4928 4.56208C12.6516 4.47389 12.75 4.30658 12.75 4.125C12.75 3.94342 12.6516 3.77611 12.4928 3.68792L6.86782 0.562921C6.71681 0.479026 6.53319 0.479026 6.38218 0.562921L0.757179 3.68792Z" fill="white" stroke="black" stroke-linejoin="round"/>
</svg>
