<svg width="13" height="29" viewBox="0 0 13 29" fill="none" xmlns="http://www.w3.org/2000/svg">
<mask id="path-1-inside-1_1009_1946" fill="white">
<path fill-rule="evenodd" clip-rule="evenodd" d="M13 4H0V25.5V26H0.0658254C0.516396 27.6961 3.22542 29 6.5 29C9.77458 29 12.4836 27.6961 12.9342 26H13V25.5V4Z"/>
</mask>
<path fill-rule="evenodd" clip-rule="evenodd" d="M13 4H0V25.5V26H0.0658254C0.516396 27.6961 3.22542 29 6.5 29C9.77458 29 12.4836 27.6961 12.9342 26H13V25.5V4Z" fill="white"/>
<path d="M0 4V3H-1V4H0ZM13 4H14V3H13V4ZM0 26H-1V27H0V26ZM0.0658254 26L1.03231 25.7433L0.834864 25H0.0658254V26ZM12.9342 26V25H12.1651L11.9677 25.7433L12.9342 26ZM13 26V27H14V26H13ZM0 5H13V3H0V5ZM1 25.5V4H-1V25.5H1ZM1 26V25.5H-1V26H1ZM0.0658254 25H0V27H0.0658254V25ZM6.5 28C4.98633 28 3.63964 27.6972 2.6498 27.2313C1.62553 26.7491 1.14797 26.1787 1.03231 25.7433L-0.900655 26.2567C-0.565744 27.5175 0.53649 28.447 1.79802 29.0408C3.09398 29.6509 4.73909 30 6.5 30V28ZM11.9677 25.7433C11.852 26.1787 11.3745 26.7491 10.3502 27.2313C9.36036 27.6972 8.01367 28 6.5 28V30C8.26091 30 9.90602 29.6509 11.202 29.0408C12.4635 28.447 13.5657 27.5175 13.9007 26.2567L11.9677 25.7433ZM13 25H12.9342V27H13V25ZM12 25.5V26H14V25.5H12ZM12 4V25.5H14V4H12Z" fill="black" mask="url(#path-1-inside-1_1009_1946)"/>
<path d="M12.5 3.5C12.5 4.19442 11.9696 4.93669 10.8591 5.53464C9.76904 6.12162 8.22874 6.5 6.5 6.5C4.77126 6.5 3.23096 6.12162 2.14086 5.53464C1.03038 4.93669 0.5 4.19442 0.5 3.5C0.5 2.80558 1.03038 2.06331 2.14086 1.46536C3.23096 0.878382 4.77126 0.5 6.5 0.5C8.22874 0.5 9.76904 0.878382 10.8591 1.46536C11.9696 2.06331 12.5 2.80558 12.5 3.5Z" fill="white" stroke="black"/>
</svg>
