<svg id="Layer_1" data-name="Layer 1" xmlns="http://www.w3.org/2000/svg" viewBox="0 0 98.93 98.79"><defs><style>.cls-1{fill:#faa61a;}.cls-2{fill:#fff;}</style></defs><path class="cls-1" d="M.54,49.94C1,22.66,22.19.49,50.47.6a49,49,0,0,1,49,49.48A48.94,48.94,0,0,1,50,99.4C22.2,99.36.88,77.37.54,49.94Z" transform="translate(-0.54 -0.6)"/><path class="cls-2" d="M68.69,74.89A29.15,29.15,0,0,1,26.48,58.64H22.75a3.72,3.72,0,1,1,0-7.43h2.36c0-.75,0-1,0-1.49s0-.74,0-1.49H22.75a3.72,3.72,0,1,1,0-7.43h3.73A29.07,29.07,0,0,1,68.69,24.68a3.72,3.72,0,0,1-1.87,6.94,3.68,3.68,0,0,1-1.86-.5,21.7,21.7,0,0,0-10.83-2.93A22,22,0,0,0,34.46,40.8H51.81a3.72,3.72,0,1,1,0,7.43H32.56c0,.75-.05,1-.05,1.49s0,.74.05,1.49H51.81a3.72,3.72,0,1,1,0,7.43H34.46A22,22,0,0,0,54.13,71.33,21.65,21.65,0,0,0,65,68.45,3.67,3.67,0,0,1,66.82,68a3.72,3.72,0,0,1,1.87,6.93Z" transform="translate(-0.54 -0.6)"/></svg>