<svg width="209" height="27" viewBox="0 0 209 27" fill="none" xmlns="http://www.w3.org/2000/svg">
<path d="M23.0908 17.0039H36.4844V20H19.8154V1.79492H23.0908V17.0039ZM46.5898 6.58105C49.0781 6.58105 51.1178 7.22005 52.709 8.49805C54.3086 9.78451 55.1084 11.4307 55.1084 13.4365C55.1084 15.4508 54.3086 17.1055 52.709 18.4004C51.1094 19.6953 49.0612 20.3428 46.5645 20.3428C44.0931 20.3343 42.0534 19.6826 40.4453 18.3877C38.8372 17.1097 38.0332 15.4635 38.0332 13.4492C38.0332 11.418 38.8372 9.76335 40.4453 8.48535C42.0449 7.21582 44.0931 6.58105 46.5898 6.58105ZM42.667 16.3057C43.6742 17.0505 44.9733 17.4229 46.5645 17.4229C48.1387 17.4229 49.4378 17.0505 50.4619 16.3057C51.486 15.5524 52.0065 14.6003 52.0234 13.4492C52.0234 12.2897 51.5114 11.3376 50.4873 10.5928C49.4632 9.84798 48.1641 9.47559 46.5898 9.47559C45.0072 9.47559 43.708 9.84375 42.6924 10.5801C41.6683 11.3164 41.1562 12.2728 41.1562 13.4492C41.1393 14.6087 41.6429 15.5609 42.667 16.3057ZM63.5254 20.3428C61.6549 20.3428 60.1442 19.945 58.9932 19.1494C57.8337 18.3623 57.2539 17.3551 57.2539 16.1279C57.2539 14.8415 57.8675 13.8047 59.0947 13.0176C60.3135 12.2305 62.1374 11.8369 64.5664 11.8369C66.3014 11.8369 67.918 12.0781 69.416 12.5605V12.2559C69.416 11.3503 68.9844 10.652 68.1211 10.1611C67.2578 9.66178 66.0179 9.41211 64.4014 9.41211C62.9372 9.41211 61.3164 9.70833 59.5391 10.3008L59.3867 10.3516L58.3457 7.7998C58.3711 7.77441 58.4938 7.7194 58.7139 7.63477C58.9339 7.55013 59.3021 7.43587 59.8184 7.29199C60.3431 7.14811 60.9271 7.0127 61.5703 6.88574C62.6283 6.68262 63.6608 6.58105 64.668 6.58105C67.3001 6.58105 69.2764 7.07617 70.5967 8.06641C71.917 9.04818 72.5729 10.5208 72.5645 12.4844V20H70.6982L69.8604 17.6895H69.7588C68.5231 19.4583 66.4453 20.3428 63.5254 20.3428ZM65.2393 13.9189C63.6143 13.9189 62.3743 14.1009 61.5195 14.4648C60.6732 14.8288 60.25 15.3197 60.25 15.9375C60.25 16.5553 60.6182 17.0547 61.3545 17.4355C62.0993 17.8079 63.1318 17.9941 64.4521 17.9941C65.8656 17.9941 67.0462 17.6683 67.9941 17.0166C68.9251 16.3649 69.3906 15.6159 69.3906 14.7695V14.4141C68.2057 14.084 66.8219 13.9189 65.2393 13.9189ZM82.7461 6.58105C84.0749 6.58105 85.2894 6.85612 86.3896 7.40625C87.4814 7.97331 88.3363 8.74772 88.9541 9.72949H89.0811V1.17285H92.1533V20H90.0967L89.2461 16.9531H89.1064C88.4971 18.0026 87.6338 18.8236 86.5166 19.416C85.3825 20.0254 84.1341 20.3343 82.7715 20.3428C80.6471 20.3428 78.8825 19.6995 77.4775 18.4131C76.0811 17.1351 75.3828 15.4889 75.3828 13.4746C75.3828 11.4603 76.0768 9.80566 77.4648 8.51074C78.8529 7.22428 80.6133 6.58105 82.7461 6.58105ZM79.9912 16.3184C81.0068 17.0547 82.2721 17.4229 83.7871 17.4229C85.2936 17.4229 86.5547 17.0547 87.5703 16.3184C88.5775 15.582 89.0726 14.6341 89.0557 13.4746C89.0557 12.2982 88.5563 11.3376 87.5576 10.5928C86.5589 9.84798 85.3021 9.47559 83.7871 9.47559C82.2806 9.47559 81.0153 9.85221 79.9912 10.6055C78.9671 11.3503 78.4551 12.3066 78.4551 13.4746C78.4551 14.6341 78.9671 15.582 79.9912 16.3184ZM111.831 20.3682C110.494 20.3682 109.279 20.0889 108.188 19.5303C107.096 18.9801 106.237 18.21 105.61 17.2197H105.483V25.7764H102.411V6.94922H104.468L105.331 9.99609H105.458C106.067 8.94661 106.931 8.12565 108.048 7.5332C109.182 6.92383 110.435 6.61491 111.806 6.60645C113.947 6.60645 115.712 7.24544 117.1 8.52344C118.488 9.8099 119.182 11.4603 119.182 13.4746C119.182 15.4974 118.492 17.1478 117.112 18.4258C115.733 19.7207 113.972 20.3682 111.831 20.3682ZM114.586 10.6309C113.553 9.89453 112.288 9.52637 110.79 9.52637C109.284 9.52637 108.022 9.89453 107.007 10.6309C105.991 11.3672 105.492 12.3151 105.509 13.4746C105.509 14.6426 106.012 15.6032 107.02 16.3564C108.018 17.1012 109.275 17.4736 110.79 17.4736C112.288 17.4736 113.553 17.097 114.586 16.3438C115.61 15.599 116.122 14.6426 116.122 13.4746C116.122 12.3151 115.61 11.3672 114.586 10.6309ZM124.78 9.75488H124.882C125.576 8.76465 126.498 7.986 127.649 7.41895C128.809 6.86035 130.087 6.58105 131.483 6.58105L131.458 9.47559C129.74 9.24707 128.238 9.57715 126.951 10.4658C125.656 11.3714 125.009 12.5648 125.009 14.0459H124.983V20H121.911V6.94922H123.968L124.78 9.75488ZM141.348 6.58105C143.836 6.58105 145.876 7.22005 147.467 8.49805C149.066 9.78451 149.866 11.4307 149.866 13.4365C149.866 15.4508 149.066 17.1055 147.467 18.4004C145.867 19.6953 143.819 20.3428 141.322 20.3428C138.851 20.3343 136.811 19.6826 135.203 18.3877C133.595 17.1097 132.791 15.4635 132.791 13.4492C132.791 11.418 133.595 9.76335 135.203 8.48535C136.803 7.21582 138.851 6.58105 141.348 6.58105ZM137.425 16.3057C138.432 17.0505 139.731 17.4229 141.322 17.4229C142.896 17.4229 144.196 17.0505 145.22 16.3057C146.244 15.5524 146.764 14.6003 146.781 13.4492C146.781 12.2897 146.269 11.3376 145.245 10.5928C144.221 9.84798 142.922 9.47559 141.348 9.47559C139.765 9.47559 138.466 9.84375 137.45 10.5801C136.426 11.3164 135.914 12.2728 135.914 13.4492C135.897 14.6087 136.401 15.5609 137.425 16.3057ZM153.853 20.6475V6.94922H156.925V21.2188C156.925 22.7337 156.349 23.9398 155.198 24.8369C154.047 25.734 152.498 26.1826 150.552 26.1826C149.832 26.1826 149.003 26.1149 148.063 25.9795L148.317 23.2246C148.935 23.3431 149.604 23.4023 150.323 23.4023C151.39 23.4023 152.244 23.1738 152.888 22.7168C153.531 22.2598 153.853 21.57 153.853 20.6475ZM153.396 2.59473C153.396 2.0446 153.586 1.5791 153.967 1.19824C154.348 0.817383 154.826 0.626953 155.401 0.626953C155.968 0.626953 156.442 0.817383 156.823 1.19824C157.204 1.5791 157.395 2.04883 157.395 2.60742C157.395 3.18294 157.204 3.66113 156.823 4.04199C156.442 4.42285 155.968 4.61328 155.401 4.61328C154.826 4.61328 154.348 4.41439 153.967 4.0166C153.586 3.61882 153.396 3.14486 153.396 2.59473ZM168.224 6.58105C170.687 6.58105 172.688 7.21582 174.229 8.48535C175.76 9.76335 176.526 11.4264 176.526 13.4746C176.526 13.7793 176.501 14.1771 176.45 14.668H163.158C163.488 15.5736 164.203 16.2591 165.304 16.7246C166.412 17.207 167.779 17.4482 169.404 17.4482C171.554 17.4482 173.31 17.0843 174.673 16.3564L175.295 19.0352C173.712 19.9069 171.74 20.3512 169.379 20.3682C166.4 20.3682 164.064 19.7334 162.371 18.4639C160.678 17.2028 159.832 15.5397 159.832 13.4746C159.832 11.4434 160.602 9.78451 162.143 8.49805C163.674 7.22005 165.701 6.58105 168.224 6.58105ZM163.057 12.5352H173.429C173.412 11.6549 172.883 10.9229 171.842 10.3389C170.792 9.76335 169.599 9.47559 168.262 9.47559C166.908 9.47559 165.761 9.74219 164.821 10.2754C163.873 10.8086 163.285 11.5618 163.057 12.5352ZM187.825 17.4482C189.865 17.4482 191.477 17.1097 192.662 16.4326L193.081 19.3779C191.524 20.0381 189.84 20.3682 188.028 20.3682C185.176 20.3597 182.891 19.7122 181.173 18.4258C179.455 17.1562 178.604 15.5059 178.621 13.4746C178.621 11.4264 179.463 9.76335 181.147 8.48535C182.823 7.21582 185.083 6.58105 187.927 6.58105C189.814 6.58105 191.393 6.87728 192.662 7.46973L191.748 10.1992C190.656 9.7168 189.315 9.47559 187.724 9.47559C185.887 9.47559 184.431 9.84375 183.356 10.5801C182.282 11.3164 181.744 12.2812 181.744 13.4746C181.744 14.6341 182.294 15.5863 183.395 16.3311C184.495 17.0758 185.972 17.4482 187.825 17.4482ZM204.481 17.5498C205.539 17.5498 206.513 17.4144 207.401 17.1436L207.706 19.8984C206.039 20.2116 204.824 20.3682 204.062 20.3682C202.133 20.3682 200.652 19.9196 199.619 19.0225C198.578 18.1338 198.058 16.915 198.058 15.3662V9.60254H194.033V6.94922H198.083L198.604 3.00098H201.13V6.94922H207.681V9.60254H201.13V14.8203C201.13 16.64 202.247 17.5498 204.481 17.5498Z" fill="black"/>
<path d="M5.65698 8L11.314 13.657L5.65698 19.3139" stroke="black" stroke-width="2.5"/>
</svg>
