<svg width="28" height="34" viewBox="0 0 28 34" fill="none" xmlns="http://www.w3.org/2000/svg">
<path fill-rule="evenodd" clip-rule="evenodd" d="M1 1H27V21V27V32L22 27H1V1Z" fill="white"/>
<path d="M27 1V0.5H27.5V1H27ZM1 1H0.5V0.5H1V1ZM27 32H27.5V33.2071L26.6464 32.3536L27 32ZM22 27V26.5H22.2071L22.3536 26.6464L22 27ZM1 27V27.5H0.5V27H1ZM27 1.5H1V0.5H27V1.5ZM26.5 21V1H27.5V21H26.5ZM27.5 21V27H26.5V21H27.5ZM27.5 27V32H26.5V27H27.5ZM26.6464 32.3536L21.6464 27.3536L22.3536 26.6464L27.3536 31.6464L26.6464 32.3536ZM1 26.5H22V27.5H1V26.5ZM1.5 1V27H0.5V1H1.5Z" fill="black"/>
<line x1="4" y1="6.5" x2="23" y2="6.5" stroke="black"/>
<line x1="4" y1="11.5" x2="13" y2="11.5" stroke="black"/>
<line x1="4" y1="21.5" x2="11" y2="21.5" stroke="black"/>
<line x1="4" y1="16.5" x2="13" y2="16.5" stroke="black"/>
<path d="M16.0007 14C16.0007 13.4066 16.1859 12.8266 16.5329 12.3333C16.8799 11.8399 17.373 11.4554 17.9501 11.2284C18.5271 11.0013 19.162 10.9419 19.7746 11.0576C20.3872 11.1734 20.9499 11.4591 21.3915 11.8787C21.8331 12.2982 22.1339 12.8328 22.2557 13.4147C22.3776 13.9966 22.315 14.5998 22.076 15.148C21.837 15.6962 21.4323 16.1647 20.913 16.4944V16.4944C20.0502 17.042 19.1585 17.8284 19.1585 18.8502L19.1585 20.4736" stroke="black" stroke-width="1.5"/>
<path d="M19.1582 21.7368V23" stroke="black" stroke-width="1.5"/>
</svg>
