<svg width="467" height="81" viewBox="0 0 467 81" fill="none" xmlns="http://www.w3.org/2000/svg">
<path d="M435.9 28.228C435.9 22.028 442.1 17.728 451.2 17.728C460.2 17.728 466.5 22.028 466.5 28.228C466.5 34.428 460.2 38.928 451.2 38.928C442.2 38.928 435.9 34.328 435.9 28.228ZM463.3 28.228C463.3 23.528 458.2 20.628 451.3 20.628C444.3 20.628 439.2 23.428 439.2 28.228C439.2 32.928 444.3 36.028 451.3 36.028C458.2 36.028 463.3 32.928 463.3 28.228ZM445.6 23.028H453.5C456.7 23.028 458.2 24.128 458.2 26.328C458.2 28.028 457.6 29.028 455.4 29.128C457.6 29.428 458 30.128 458 31.228V33.228H454.9V31.428C454.9 30.628 454.3 30.328 452.2 30.328H448.8V33.328H445.7V23.028H445.6ZM453.6 27.828C454.5 27.828 455.1 27.528 455.1 26.728C455.1 26.028 454.6 25.728 453.6 25.728H448.8V27.828H453.6Z" fill="black"/>
<path d="M20.912 49.4C20.912 42.328 25.176 35.568 34.224 35.568C43.48 35.568 46.912 42.016 46.912 48.672V78.728H67.088V49.4C67.088 42.328 71.352 35.568 80.296 35.568C89.552 35.568 92.984 42.016 92.984 48.672V78.728H113.264V43.576C113.264 32.24 107.336 19.656 89.24 19.656H88.304C76.24 19.656 68.336 25.688 64.176 31.2C60.848 24.752 54.4 19.656 43.48 19.656H42.648C30.064 19.656 23.096 26.832 20.704 30.368V21.008H0.631958V78.728H20.912V49.4Z" fill="black"/>
<path d="M156.847 80.288H160.071C192.207 80.288 195.951 61.36 195.951 50.96V49.296C195.951 39.104 192.207 19.448 160.175 19.448H156.743C125.751 19.448 120.967 39.104 120.967 49.4V50.856C120.967 61.36 125.751 80.288 156.847 80.288ZM159.031 65.104H157.887C144.679 65.104 141.871 55.952 141.871 49.608C141.871 43.056 144.679 34.32 157.887 34.32H159.031C171.823 34.32 175.047 43.056 175.047 49.608C175.047 55.952 171.823 65.104 159.031 65.104Z" fill="black"/>
<path d="M236.631 80.288H239.855C271.991 80.288 275.735 61.36 275.735 50.96V49.296C275.735 39.104 271.991 19.448 239.959 19.448H236.527C205.535 19.448 200.751 39.104 200.751 49.4V50.856C200.751 61.36 205.535 80.288 236.631 80.288ZM238.815 65.104H237.671C224.463 65.104 221.655 55.952 221.655 49.608C221.655 43.056 224.463 34.32 237.671 34.32H238.815C251.607 34.32 254.831 43.056 254.831 49.608C254.831 55.952 251.607 65.104 238.815 65.104Z" fill="black"/>
<path d="M334.198 0V27.144C331.598 24.856 325.15 19.864 311.838 19.864H310.59C289.374 19.864 280.846 34.424 280.846 48.88V50.648C280.846 65.208 289.79 79.976 310.798 79.872H312.15C325.774 79.872 332.326 73.424 334.302 71.24V78.728H354.478V0H334.198ZM317.35 34.944H318.494C330.558 34.944 334.406 42.952 334.406 49.608V49.92C334.406 56.368 330.558 64.584 318.494 64.584H317.35C304.662 64.584 301.75 55.848 301.75 49.92V49.608C301.75 43.368 304.662 34.944 317.35 34.944Z" fill="black"/>
<path d="M411.437 78.728H434.837L408.421 49.4L433.277 21.008H410.917L396.669 37.128L381.901 21.008H357.045L383.773 49.816L357.877 78.728H380.861L395.941 62.192L411.437 78.728Z" fill="black"/>
</svg>
