<svg width="199" height="27" viewBox="0 0 199 27" fill="none" xmlns="http://www.w3.org/2000/svg">
<path d="M6 7V19" stroke="black" stroke-width="2.5"/>
<path d="M12 13L-3.57628e-07 13" stroke="black" stroke-width="2.5"/>
<path d="M22.2305 6.30176H22.0908V20H18.8154V1.79492H22.2051L34.6338 15.5312H34.7354V1.79492H38.0107V20H34.6338L22.2305 6.30176ZM49.1826 6.58105C51.6455 6.58105 53.6471 7.21582 55.1875 8.48535C56.7194 9.76335 57.4854 11.4264 57.4854 13.4746C57.4854 13.7793 57.46 14.1771 57.4092 14.668H44.1172C44.4473 15.5736 45.1624 16.2591 46.2627 16.7246C47.3714 17.207 48.7383 17.4482 50.3633 17.4482C52.513 17.4482 54.2692 17.0843 55.6318 16.3564L56.2539 19.0352C54.6712 19.9069 52.6992 20.3512 50.3379 20.3682C47.3587 20.3682 45.0228 19.7334 43.3301 18.4639C41.6374 17.2028 40.791 15.5397 40.791 13.4746C40.791 11.4434 41.5612 9.78451 43.1016 8.49805C44.6335 7.22005 46.6605 6.58105 49.1826 6.58105ZM44.0156 12.5352H54.3877C54.3708 11.6549 53.8418 10.9229 52.8008 10.3389C51.7513 9.76335 50.5579 9.47559 49.2207 9.47559C47.8665 9.47559 46.7197 9.74219 45.7803 10.2754C44.8324 10.8086 44.2441 11.5618 44.0156 12.5352ZM77.3662 17.3467H77.4678L81.3652 6.94922H84.6787L79.7021 20H75.5508L71.6152 11.1133H71.5137L67.5908 20H63.4268L58.4629 6.94922H61.7637L65.6611 17.3467H65.7754L70.2188 6.94922H72.9229L77.3662 17.3467ZM102.681 20.3682C101.343 20.3682 100.129 20.0889 99.0371 19.5303C97.9453 18.9801 97.0863 18.21 96.46 17.2197H96.333V25.7764H93.2607V6.94922H95.3174L96.1807 9.99609H96.3076C96.917 8.94661 97.7803 8.12565 98.8975 7.5332C100.032 6.92383 101.284 6.61491 102.655 6.60645C104.797 6.60645 106.561 7.24544 107.949 8.52344C109.337 9.8099 110.031 11.4603 110.031 13.4746C110.031 15.4974 109.341 17.1478 107.962 18.4258C106.582 19.7207 104.822 20.3682 102.681 20.3682ZM105.436 10.6309C104.403 9.89453 103.138 9.52637 101.64 9.52637C100.133 9.52637 98.8721 9.89453 97.8564 10.6309C96.8408 11.3672 96.3415 12.3151 96.3584 13.4746C96.3584 14.6426 96.862 15.6032 97.8691 16.3564C98.8678 17.1012 100.125 17.4736 101.64 17.4736C103.138 17.4736 104.403 17.097 105.436 16.3438C106.46 15.599 106.972 14.6426 106.972 13.4746C106.972 12.3151 106.46 11.3672 105.436 10.6309ZM115.63 9.75488H115.731C116.425 8.76465 117.348 7.986 118.499 7.41895C119.659 6.86035 120.937 6.58105 122.333 6.58105L122.308 9.47559C120.59 9.24707 119.087 9.57715 117.801 10.4658C116.506 11.3714 115.858 12.5648 115.858 14.0459H115.833V20H112.761V6.94922H114.817L115.63 9.75488ZM132.197 6.58105C134.686 6.58105 136.725 7.22005 138.316 8.49805C139.916 9.78451 140.716 11.4307 140.716 13.4365C140.716 15.4508 139.916 17.1055 138.316 18.4004C136.717 19.6953 134.669 20.3428 132.172 20.3428C129.701 20.3343 127.661 19.6826 126.053 18.3877C124.445 17.1097 123.641 15.4635 123.641 13.4492C123.641 11.418 124.445 9.76335 126.053 8.48535C127.652 7.21582 129.701 6.58105 132.197 6.58105ZM128.274 16.3057C129.282 17.0505 130.581 17.4229 132.172 17.4229C133.746 17.4229 135.045 17.0505 136.069 16.3057C137.093 15.5524 137.614 14.6003 137.631 13.4492C137.631 12.2897 137.119 11.3376 136.095 10.5928C135.071 9.84798 133.771 9.47559 132.197 9.47559C130.615 9.47559 129.315 9.84375 128.3 10.5801C127.276 11.3164 126.764 12.2728 126.764 13.4492C126.747 14.6087 127.25 15.5609 128.274 16.3057ZM144.702 20.6475V6.94922H147.774V21.2188C147.774 22.7337 147.199 23.9398 146.048 24.8369C144.897 25.734 143.348 26.1826 141.401 26.1826C140.682 26.1826 139.853 26.1149 138.913 25.9795L139.167 23.2246C139.785 23.3431 140.453 23.4023 141.173 23.4023C142.239 23.4023 143.094 23.1738 143.737 22.7168C144.381 22.2598 144.702 21.57 144.702 20.6475ZM144.245 2.59473C144.245 2.0446 144.436 1.5791 144.816 1.19824C145.197 0.817383 145.675 0.626953 146.251 0.626953C146.818 0.626953 147.292 0.817383 147.673 1.19824C148.054 1.5791 148.244 2.04883 148.244 2.60742C148.244 3.18294 148.054 3.66113 147.673 4.04199C147.292 4.42285 146.818 4.61328 146.251 4.61328C145.675 4.61328 145.197 4.41439 144.816 4.0166C144.436 3.61882 144.245 3.14486 144.245 2.59473ZM159.073 6.58105C161.536 6.58105 163.538 7.21582 165.078 8.48535C166.61 9.76335 167.376 11.4264 167.376 13.4746C167.376 13.7793 167.351 14.1771 167.3 14.668H154.008C154.338 15.5736 155.053 16.2591 156.153 16.7246C157.262 17.207 158.629 17.4482 160.254 17.4482C162.404 17.4482 164.16 17.0843 165.522 16.3564L166.145 19.0352C164.562 19.9069 162.59 20.3512 160.229 20.3682C157.249 20.3682 154.913 19.7334 153.221 18.4639C151.528 17.2028 150.682 15.5397 150.682 13.4746C150.682 11.4434 151.452 9.78451 152.992 8.49805C154.524 7.22005 156.551 6.58105 159.073 6.58105ZM153.906 12.5352H164.278C164.261 11.6549 163.732 10.9229 162.691 10.3389C161.642 9.76335 160.449 9.47559 159.111 9.47559C157.757 9.47559 156.61 9.74219 155.671 10.2754C154.723 10.8086 154.135 11.5618 153.906 12.5352ZM178.675 17.4482C180.715 17.4482 182.327 17.1097 183.512 16.4326L183.931 19.3779C182.373 20.0381 180.689 20.3682 178.878 20.3682C176.026 20.3597 173.741 19.7122 172.022 18.4258C170.304 17.1562 169.454 15.5059 169.471 13.4746C169.471 11.4264 170.313 9.76335 171.997 8.48535C173.673 7.21582 175.933 6.58105 178.776 6.58105C180.664 6.58105 182.242 6.87728 183.512 7.46973L182.598 10.1992C181.506 9.7168 180.164 9.47559 178.573 9.47559C176.737 9.47559 175.281 9.84375 174.206 10.5801C173.131 11.3164 172.594 12.2812 172.594 13.4746C172.594 14.6341 173.144 15.5863 174.244 16.3311C175.344 17.0758 176.821 17.4482 178.675 17.4482ZM195.331 17.5498C196.389 17.5498 197.362 17.4144 198.251 17.1436L198.556 19.8984C196.888 20.2116 195.674 20.3682 194.912 20.3682C192.982 20.3682 191.501 19.9196 190.469 19.0225C189.428 18.1338 188.907 16.915 188.907 15.3662V9.60254H184.883V6.94922H188.933L189.453 3.00098H191.979V6.94922H198.53V9.60254H191.979V14.8203C191.979 16.64 193.097 17.5498 195.331 17.5498Z" fill="black"/>
</svg>
