<?xml version="1.0" encoding="utf-8"?>
<!-- Generator: Adobe Illustrator 26.0.2, SVG Export Plug-In . SVG Version: 6.00 Build 0)  -->
<svg version="1.1" id="Layer_1" xmlns="http://www.w3.org/2000/svg" xmlns:xlink="http://www.w3.org/1999/xlink" x="0px" y="0px"
	 viewBox="0 0 30 30" style="enable-background:new 0 0 30 30;" xml:space="preserve">
<style type="text/css">
	.st0{display:none;enable-background:new    ;}
	.st1{font-family:'ArialMT';}
	.st2{font-size:12px;}
	.st3{fill:none;stroke:#B5B5B5;stroke-width:0.5;stroke-linecap:square;stroke-miterlimit:10;}
	.st4{fill:none;stroke:#B5B5B5;stroke-width:0.5;stroke-linecap:square;stroke-miterlimit:10;stroke-dasharray:2.2031,2.2031;}
	.st5{fill:none;stroke:#000000;stroke-width:0.5;stroke-linecap:square;stroke-miterlimit:10;}
</style>
<text transform="matrix(1 0 0 1 5.2041 25.3428)" class="st0 st1 st2">Y</text>
<text transform="matrix(1 0 0 1 17.417 13.8657)" class="st0 st1 st2">X</text>
<g>
	<g>
		<polyline class="st3" points="27.4,8.2 27.4,9.2 26.4,9.2 		"/>
		<line class="st4" x1="24.2" y1="9.2" x2="12.1" y2="9.2"/>
		<polyline class="st3" points="11,9.2 10,9.2 10,8.2 		"/>
		<polyline class="st3" points="10,6.6 10,5.6 11,5.6 		"/>
		<line class="st4" x1="13.2" y1="5.6" x2="25.3" y2="5.6"/>
		<polyline class="st3" points="26.4,5.6 27.4,5.6 27.4,6.6 		"/>
	</g>
</g>
<rect x="10" y="13.2" class="st5" width="17.4" height="3.6"/>
<g>
	<g>
		<polyline class="st3" points="27.3,23.4 27.3,24.4 26.3,24.4 		"/>
		<line class="st4" x1="24.1" y1="24.4" x2="12" y2="24.4"/>
		<polyline class="st3" points="10.9,24.4 9.9,24.4 9.9,23.4 		"/>
		<polyline class="st3" points="9.9,21.8 9.9,20.8 10.9,20.8 		"/>
		<line class="st4" x1="13.1" y1="20.8" x2="25.2" y2="20.8"/>
		<polyline class="st3" points="26.3,20.8 27.3,20.8 27.3,21.8 		"/>
	</g>
</g>
<g>
	<g>
		<line class="st5" x1="5.2" y1="9.2" x2="5.2" y2="20.8"/>
		<g>
			<polygon points="3.9,9.6 5.2,7.4 6.4,9.6 			"/>
		</g>
		<g>
			<polygon points="3.9,20.4 5.2,22.6 6.4,20.4 			"/>
		</g>
	</g>
</g>
</svg>
