<svg width="398" height="27" viewBox="0 0 398 27" fill="none" xmlns="http://www.w3.org/2000/svg">
<path d="M0.709961 1.92041H10.4146C11.8794 1.92041 13.1489 2.07503 14.2231 2.38428C15.2974 2.68538 16.1885 3.12484 16.8965 3.70264C17.6045 4.28044 18.1294 4.98438 18.4712 5.81445C18.8211 6.64453 18.9961 7.58447 18.9961 8.63428C18.9961 9.34229 18.9106 10.0177 18.7397 10.6606C18.5688 11.2954 18.3044 11.8813 17.9463 12.4185C17.5964 12.9556 17.1528 13.4357 16.6157 13.8589C16.0786 14.2739 15.4479 14.6198 14.7236 14.8965L18.874 21H14.1377L10.5488 15.5801H10.439L4.57959 15.5679V21H0.709961V1.92041ZM10.5122 12.2231C11.2446 12.2231 11.8835 12.1377 12.4287 11.9668C12.9821 11.7959 13.4419 11.5558 13.8081 11.2466C14.1825 10.9373 14.4591 10.563 14.6382 10.1235C14.8254 9.67594 14.9189 9.17952 14.9189 8.63428C14.9189 7.5682 14.5527 6.74626 13.8203 6.16846C13.0879 5.58252 11.9852 5.28955 10.5122 5.28955H4.57959V12.2231H10.5122ZM22.4507 13.749C22.4507 12.7725 22.6501 11.8407 23.0488 10.9536C23.4476 10.0584 24.0213 9.26904 24.77 8.58545C25.5187 7.90186 26.4342 7.35661 27.5166 6.94971C28.6071 6.54281 29.8441 6.33936 31.2275 6.33936C32.6029 6.33936 33.8398 6.54688 34.9385 6.96191C36.0452 7.36882 36.9811 7.93034 37.7461 8.64648C38.5192 9.36263 39.1092 10.2049 39.5161 11.1733C39.9312 12.1418 40.1387 13.1794 40.1387 14.2861C40.1387 14.4245 40.1346 14.575 40.1265 14.7378C40.1265 14.8924 40.1183 15.0348 40.1021 15.165H26.479C26.6336 15.5964 26.8818 15.991 27.2236 16.3491C27.5736 16.7072 28.009 17.0164 28.5298 17.2769C29.0506 17.5373 29.6528 17.7407 30.3364 17.8872C31.02 18.0256 31.7769 18.0947 32.6069 18.0947C33.437 18.0947 34.263 18.0093 35.085 17.8384C35.9069 17.6593 36.6922 17.4355 37.4409 17.167L38.6616 19.9258C38.1896 20.1455 37.7095 20.3408 37.2212 20.5117C36.741 20.6745 36.2365 20.8128 35.7075 20.9268C35.1867 21.0326 34.6374 21.1139 34.0596 21.1709C33.4899 21.2279 32.8877 21.2563 32.2529 21.2563C30.6335 21.2563 29.2134 21.061 27.9927 20.6704C26.772 20.2798 25.7507 19.7467 24.9287 19.0713C24.1068 18.3958 23.4883 17.6024 23.0732 16.6909C22.6582 15.7795 22.4507 14.7988 22.4507 13.749ZM36.3057 12.3452C36.1755 11.9465 35.972 11.5762 35.6953 11.2344C35.4268 10.8844 35.089 10.5833 34.6821 10.3311C34.2752 10.0706 33.8032 9.86719 33.2661 9.7207C32.729 9.57422 32.139 9.50098 31.4961 9.50098C30.8125 9.50098 30.1899 9.57829 29.6284 9.73291C29.0669 9.88753 28.5745 10.0951 28.1514 10.3555C27.7282 10.6159 27.3742 10.917 27.0894 11.2588C26.8127 11.6006 26.6092 11.9627 26.479 12.3452H36.3057ZM46.2056 9.30566H42.7266V6.5957H46.2056V2.11572H49.8188V6.5957H53.2979V9.30566H49.8188V21H46.2056V9.30566ZM55.8247 16.459C55.8247 15.7673 55.9753 15.1366 56.2764 14.5669C56.5775 13.9972 57.0291 13.509 57.6313 13.1021C58.2336 12.687 58.9823 12.3696 59.8774 12.1499C60.7808 11.922 61.8306 11.8081 63.0269 11.8081C63.9139 11.8081 64.8457 11.8732 65.8223 12.0034C66.807 12.1336 67.8201 12.333 68.8618 12.6016C68.8211 12.1458 68.6828 11.7267 68.4468 11.3442C68.2108 10.9536 67.8812 10.62 67.458 10.3433C67.043 10.0584 66.5384 9.8387 65.9443 9.68408C65.3584 9.52946 64.6911 9.45215 63.9424 9.45215C63.5355 9.45215 63.0879 9.47656 62.5996 9.52539C62.1113 9.57422 61.6068 9.64746 61.0859 9.74512C60.5651 9.84277 60.0483 9.96484 59.5356 10.1113C59.0311 10.2578 58.5591 10.4328 58.1196 10.6362L57.021 7.66992C57.5662 7.47461 58.1481 7.29557 58.7666 7.13281C59.3932 6.97005 60.0321 6.83171 60.6831 6.71777C61.3341 6.5957 61.9852 6.50212 62.6362 6.43701C63.2873 6.37191 63.918 6.33936 64.5283 6.33936C67.222 6.33936 69.224 7.02702 70.5342 8.40234C71.8444 9.77767 72.4995 11.8854 72.4995 14.7256V21H68.8862V19.645C68.5119 19.8647 68.1009 20.0723 67.6533 20.2676C67.2139 20.4629 66.7337 20.6338 66.2129 20.7803C65.6921 20.9268 65.1305 21.0407 64.5283 21.1221C63.9342 21.2116 63.3035 21.2563 62.6362 21.2563C61.5132 21.2563 60.5244 21.1343 59.6699 20.8901C58.8236 20.646 58.1156 20.3083 57.5459 19.877C56.9762 19.4456 56.5449 18.9411 56.252 18.3633C55.9671 17.7773 55.8247 17.1426 55.8247 16.459ZM59.6333 16.3369C59.6333 16.5729 59.6943 16.8008 59.8164 17.0205C59.9385 17.2321 60.1338 17.4233 60.4023 17.5942C60.6709 17.757 61.0127 17.8913 61.4277 17.9971C61.8509 18.0947 62.3595 18.1436 62.9536 18.1436C63.5884 18.1436 64.2028 18.0866 64.7969 17.9727C65.391 17.8587 65.9443 17.7082 66.457 17.521C66.9697 17.3338 67.4336 17.1182 67.8486 16.874C68.2637 16.6299 68.6095 16.3776 68.8862 16.1172V15.4824C68.3328 15.3278 67.7835 15.1976 67.2383 15.0918C66.7012 14.986 66.1844 14.9046 65.688 14.8477C65.1997 14.7826 64.7358 14.7378 64.2964 14.7134C63.8651 14.689 63.4867 14.6768 63.1611 14.6768C62.4857 14.6768 61.9242 14.7215 61.4766 14.811C61.029 14.9006 60.6668 15.0226 60.3901 15.1772C60.1134 15.3237 59.9181 15.4987 59.8042 15.7021C59.6903 15.9056 59.6333 16.1172 59.6333 16.3369ZM79.189 4.63037C78.8309 4.63037 78.5054 4.58154 78.2124 4.48389C77.9276 4.37809 77.6834 4.23975 77.48 4.06885C77.2765 3.88981 77.1178 3.68636 77.0039 3.4585C76.8981 3.22249 76.8452 2.97428 76.8452 2.71387C76.8452 2.44531 76.8981 2.1971 77.0039 1.96924C77.1178 1.73324 77.2765 1.52979 77.48 1.35889C77.6834 1.18799 77.9276 1.05371 78.2124 0.956055C78.5054 0.85026 78.8309 0.797363 79.189 0.797363C79.5552 0.797363 79.8807 0.85026 80.1655 0.956055C80.4585 1.05371 80.7067 1.18799 80.9102 1.35889C81.1136 1.52979 81.2682 1.73324 81.374 1.96924C81.488 2.1971 81.5449 2.44531 81.5449 2.71387C81.5449 2.97428 81.488 3.22249 81.374 3.4585C81.2682 3.68636 81.1136 3.88981 80.9102 4.06885C80.7067 4.23975 80.4585 4.37809 80.1655 4.48389C79.8807 4.58154 79.5552 4.63037 79.189 4.63037ZM77.3823 6.5957H80.9956V21H77.3823V6.5957ZM85.7319 0.748535H89.3452V21H85.7319V0.748535ZM102.858 16.5811C103.835 17.167 104.909 17.5983 106.081 17.875C107.253 18.1517 108.453 18.29 109.682 18.29C110.512 18.29 111.204 18.2331 111.757 18.1191C112.311 18.0052 112.754 17.8587 113.088 17.6797C113.422 17.5007 113.658 17.2972 113.796 17.0693C113.934 16.8415 114.003 16.6095 114.003 16.3735C114.003 16.0317 113.853 15.7388 113.552 15.4946C113.259 15.2505 112.771 15.1284 112.087 15.1284C111.77 15.1284 111.428 15.1488 111.062 15.1895C110.695 15.2301 110.309 15.2749 109.902 15.3237C109.503 15.3644 109.084 15.4051 108.645 15.4458C108.213 15.4865 107.774 15.5068 107.326 15.5068C106.35 15.5068 105.515 15.401 104.824 15.1895C104.14 14.9779 103.583 14.689 103.151 14.3228C102.72 13.9565 102.407 13.5252 102.211 13.0288C102.016 12.5243 101.918 11.9831 101.918 11.4053C101.918 10.6729 102.089 9.9974 102.431 9.37891C102.773 8.76042 103.261 8.22738 103.896 7.77979C104.531 7.32406 105.296 6.97005 106.191 6.71777C107.094 6.46549 108.099 6.33936 109.206 6.33936C109.784 6.33936 110.386 6.37598 111.013 6.44922C111.647 6.51432 112.27 6.60384 112.88 6.71777C113.491 6.83171 114.077 6.96598 114.638 7.12061C115.2 7.26709 115.696 7.42578 116.127 7.59668L114.992 10.4043C114.073 10.0625 113.153 9.79395 112.233 9.59863C111.322 9.39518 110.382 9.29346 109.414 9.29346C108.738 9.29346 108.164 9.34635 107.692 9.45215C107.229 9.5498 106.85 9.68408 106.557 9.85498C106.264 10.0177 106.049 10.209 105.91 10.4287C105.78 10.6403 105.715 10.8641 105.715 11.1001C105.715 11.271 105.747 11.4256 105.812 11.564C105.886 11.7023 106 11.8244 106.154 11.9302C106.317 12.0278 106.525 12.1051 106.777 12.1621C107.037 12.2109 107.355 12.2354 107.729 12.2354C108.071 12.2354 108.433 12.215 108.815 12.1743C109.198 12.1336 109.597 12.0929 110.012 12.0522C110.427 12.0034 110.854 11.9587 111.293 11.918C111.741 11.8773 112.197 11.8569 112.661 11.8569C113.523 11.8569 114.276 11.9587 114.919 12.1621C115.57 12.3656 116.107 12.6504 116.53 13.0166C116.953 13.3828 117.271 13.8141 117.482 14.3105C117.694 14.807 117.8 15.3481 117.8 15.9341C117.8 16.6909 117.625 17.3949 117.275 18.0459C116.925 18.6969 116.404 19.2625 115.712 19.7427C115.021 20.2147 114.158 20.585 113.125 20.8535C112.099 21.1221 110.911 21.2563 109.56 21.2563C108.73 21.2563 107.928 21.2035 107.155 21.0977C106.382 21 105.646 20.8657 104.946 20.6948C104.246 20.5158 103.587 20.3083 102.968 20.0723C102.358 19.8363 101.8 19.584 101.296 19.3154L102.858 16.5811ZM124.575 26.8838H120.961V6.5957H124.575V7.95068C124.892 7.73096 125.266 7.52344 125.698 7.32812C126.129 7.13281 126.593 6.96191 127.089 6.81543C127.586 6.66895 128.098 6.55501 128.627 6.47363C129.156 6.38411 129.685 6.33936 130.214 6.33936C131.435 6.33936 132.554 6.51839 133.571 6.87646C134.597 7.23454 135.476 7.7391 136.208 8.39014C136.94 9.04118 137.51 9.82243 137.917 10.7339C138.332 11.6372 138.54 12.6382 138.54 13.7368C138.54 14.8843 138.324 15.9219 137.893 16.8496C137.461 17.7692 136.863 18.5586 136.098 19.2178C135.341 19.8688 134.438 20.3734 133.388 20.7314C132.347 21.0814 131.215 21.2563 129.995 21.2563C129.474 21.2563 128.957 21.2238 128.444 21.1587C127.94 21.0936 127.451 21.0041 126.979 20.8901C126.516 20.7762 126.076 20.6419 125.661 20.4873C125.254 20.3245 124.892 20.1496 124.575 19.9624V26.8838ZM124.575 16.4712C124.941 16.7642 125.327 17.0124 125.734 17.2158C126.141 17.4193 126.556 17.5861 126.979 17.7163C127.403 17.8465 127.83 17.9442 128.261 18.0093C128.693 18.0662 129.112 18.0947 129.519 18.0947C130.349 18.0947 131.085 17.9849 131.728 17.7651C132.379 17.5373 132.924 17.228 133.364 16.8374C133.811 16.4468 134.153 15.987 134.389 15.458C134.625 14.929 134.743 14.3553 134.743 13.7368C134.743 13.159 134.625 12.6138 134.389 12.1011C134.161 11.5884 133.828 11.1408 133.388 10.7583C132.957 10.3677 132.432 10.0625 131.813 9.84277C131.203 9.61491 130.515 9.50098 129.75 9.50098C129.262 9.50098 128.774 9.5498 128.286 9.64746C127.797 9.73698 127.325 9.86719 126.87 10.0381C126.422 10.209 125.999 10.4165 125.6 10.6606C125.209 10.9048 124.868 11.1774 124.575 11.4785V16.4712ZM141.274 16.459C141.274 15.7673 141.424 15.1366 141.726 14.5669C142.027 13.9972 142.478 13.509 143.081 13.1021C143.683 12.687 144.431 12.3696 145.327 12.1499C146.23 11.922 147.28 11.8081 148.476 11.8081C149.363 11.8081 150.295 11.8732 151.271 12.0034C152.256 12.1336 153.269 12.333 154.311 12.6016C154.27 12.1458 154.132 11.7267 153.896 11.3442C153.66 10.9536 153.33 10.62 152.907 10.3433C152.492 10.0584 151.988 9.8387 151.394 9.68408C150.808 9.52946 150.14 9.45215 149.392 9.45215C148.985 9.45215 148.537 9.47656 148.049 9.52539C147.561 9.57422 147.056 9.64746 146.535 9.74512C146.014 9.84277 145.498 9.96484 144.985 10.1113C144.48 10.2578 144.008 10.4328 143.569 10.6362L142.47 7.66992C143.015 7.47461 143.597 7.29557 144.216 7.13281C144.842 6.97005 145.481 6.83171 146.132 6.71777C146.783 6.5957 147.434 6.50212 148.085 6.43701C148.736 6.37191 149.367 6.33936 149.978 6.33936C152.671 6.33936 154.673 7.02702 155.983 8.40234C157.294 9.77767 157.949 11.8854 157.949 14.7256V21H154.335V19.645C153.961 19.8647 153.55 20.0723 153.103 20.2676C152.663 20.4629 152.183 20.6338 151.662 20.7803C151.141 20.9268 150.58 21.0407 149.978 21.1221C149.383 21.2116 148.753 21.2563 148.085 21.2563C146.962 21.2563 145.974 21.1343 145.119 20.8901C144.273 20.646 143.565 20.3083 142.995 19.877C142.425 19.4456 141.994 18.9411 141.701 18.3633C141.416 17.7773 141.274 17.1426 141.274 16.459ZM145.083 16.3369C145.083 16.5729 145.144 16.8008 145.266 17.0205C145.388 17.2321 145.583 17.4233 145.852 17.5942C146.12 17.757 146.462 17.8913 146.877 17.9971C147.3 18.0947 147.809 18.1436 148.403 18.1436C149.038 18.1436 149.652 18.0866 150.246 17.9727C150.84 17.8587 151.394 17.7082 151.906 17.521C152.419 17.3338 152.883 17.1182 153.298 16.874C153.713 16.6299 154.059 16.3776 154.335 16.1172V15.4824C153.782 15.3278 153.233 15.1976 152.688 15.0918C152.15 14.986 151.634 14.9046 151.137 14.8477C150.649 14.7826 150.185 14.7378 149.746 14.7134C149.314 14.689 148.936 14.6768 148.61 14.6768C147.935 14.6768 147.373 14.7215 146.926 14.811C146.478 14.9006 146.116 15.0226 145.839 15.1772C145.563 15.3237 145.367 15.4987 145.253 15.7021C145.139 15.9056 145.083 16.1172 145.083 16.3369ZM161.867 13.8345C161.867 12.7765 162.058 11.7918 162.441 10.8804C162.832 9.96077 163.397 9.16732 164.138 8.5C164.886 7.82454 165.798 7.29557 166.872 6.91309C167.954 6.5306 169.187 6.33936 170.571 6.33936C171.173 6.33936 171.779 6.37598 172.39 6.44922C173 6.52246 173.586 6.62826 174.147 6.7666C174.717 6.89681 175.25 7.0555 175.747 7.24268C176.243 7.42171 176.674 7.62109 177.041 7.84082L175.368 10.563C174.579 10.1968 173.83 9.92822 173.122 9.75732C172.422 9.58643 171.71 9.50098 170.986 9.50098C170.156 9.50098 169.411 9.61084 168.752 9.83057C168.093 10.0422 167.531 10.3433 167.067 10.7339C166.612 11.1164 166.262 11.5721 166.018 12.1011C165.782 12.6219 165.664 13.1916 165.664 13.8101C165.664 14.4285 165.79 15.0023 166.042 15.5312C166.302 16.0521 166.665 16.5037 167.128 16.8862C167.6 17.2606 168.166 17.5576 168.825 17.7773C169.493 17.9889 170.233 18.0947 171.047 18.0947C171.942 18.0947 172.784 17.9686 173.574 17.7163C174.371 17.464 175.112 17.1263 175.795 16.7031L177.468 19.4253C177.036 19.6857 176.569 19.9299 176.064 20.1577C175.559 20.3774 175.018 20.5687 174.44 20.7314C173.871 20.8942 173.269 21.0203 172.634 21.1099C172.007 21.2075 171.356 21.2563 170.681 21.2563C169.305 21.2563 168.072 21.0692 166.982 20.6948C165.891 20.3205 164.968 19.8037 164.211 19.1445C163.454 18.4772 162.872 17.6919 162.465 16.7886C162.067 15.8853 161.867 14.9006 161.867 13.8345ZM180.678 13.749C180.678 12.7725 180.878 11.8407 181.276 10.9536C181.675 10.0584 182.249 9.26904 182.998 8.58545C183.746 7.90186 184.662 7.35661 185.744 6.94971C186.835 6.54281 188.072 6.33936 189.455 6.33936C190.83 6.33936 192.067 6.54688 193.166 6.96191C194.273 7.36882 195.209 7.93034 195.974 8.64648C196.747 9.36263 197.337 10.2049 197.744 11.1733C198.159 12.1418 198.366 13.1794 198.366 14.2861C198.366 14.4245 198.362 14.575 198.354 14.7378C198.354 14.8924 198.346 15.0348 198.33 15.165H184.707C184.861 15.5964 185.109 15.991 185.451 16.3491C185.801 16.7072 186.236 17.0164 186.757 17.2769C187.278 17.5373 187.88 17.7407 188.564 17.8872C189.248 18.0256 190.004 18.0947 190.834 18.0947C191.665 18.0947 192.491 18.0093 193.312 17.8384C194.134 17.6593 194.92 17.4355 195.668 17.167L196.889 19.9258C196.417 20.1455 195.937 20.3408 195.449 20.5117C194.969 20.6745 194.464 20.8128 193.935 20.9268C193.414 21.0326 192.865 21.1139 192.287 21.1709C191.717 21.2279 191.115 21.2563 190.48 21.2563C188.861 21.2563 187.441 21.061 186.22 20.6704C185 20.2798 183.978 19.7467 183.156 19.0713C182.334 18.3958 181.716 17.6024 181.301 16.6909C180.886 15.7795 180.678 14.7988 180.678 13.749ZM194.533 12.3452C194.403 11.9465 194.2 11.5762 193.923 11.2344C193.654 10.8844 193.317 10.5833 192.91 10.3311C192.503 10.0706 192.031 9.86719 191.494 9.7207C190.957 9.57422 190.367 9.50098 189.724 9.50098C189.04 9.50098 188.417 9.57829 187.856 9.73291C187.294 9.88753 186.802 10.0951 186.379 10.3555C185.956 10.6159 185.602 10.917 185.317 11.2588C185.04 11.6006 184.837 11.9627 184.707 12.3452H194.533ZM209.694 13.8345C209.694 12.7765 209.886 11.7918 210.268 10.8804C210.659 9.96077 211.224 9.16732 211.965 8.5C212.714 7.82454 213.625 7.29557 214.699 6.91309C215.782 6.5306 217.014 6.33936 218.398 6.33936C219 6.33936 219.606 6.37598 220.217 6.44922C220.827 6.52246 221.413 6.62826 221.975 6.7666C222.544 6.89681 223.077 7.0555 223.574 7.24268C224.07 7.42171 224.501 7.62109 224.868 7.84082L223.195 10.563C222.406 10.1968 221.657 9.92822 220.949 9.75732C220.249 9.58643 219.537 9.50098 218.813 9.50098C217.983 9.50098 217.238 9.61084 216.579 9.83057C215.92 10.0422 215.358 10.3433 214.895 10.7339C214.439 11.1164 214.089 11.5721 213.845 12.1011C213.609 12.6219 213.491 13.1916 213.491 13.8101C213.491 14.4285 213.617 15.0023 213.869 15.5312C214.13 16.0521 214.492 16.5037 214.956 16.8862C215.428 17.2606 215.993 17.5576 216.652 17.7773C217.32 17.9889 218.06 18.0947 218.874 18.0947C219.769 18.0947 220.611 17.9686 221.401 17.7163C222.198 17.464 222.939 17.1263 223.623 16.7031L225.295 19.4253C224.864 19.6857 224.396 19.9299 223.891 20.1577C223.387 20.3774 222.845 20.5687 222.268 20.7314C221.698 20.8942 221.096 21.0203 220.461 21.1099C219.834 21.2075 219.183 21.2563 218.508 21.2563C217.132 21.2563 215.9 21.0692 214.809 20.6948C213.719 20.3205 212.795 19.8037 212.038 19.1445C211.281 18.4772 210.699 17.6919 210.292 16.7886C209.894 15.8853 209.694 14.9006 209.694 13.8345ZM228.322 13.7979C228.322 12.7643 228.53 11.7959 228.945 10.8926C229.368 9.98926 229.966 9.19987 230.739 8.52441C231.521 7.84896 232.46 7.31592 233.559 6.92529C234.666 6.53467 235.907 6.33936 237.282 6.33936C238.658 6.33936 239.895 6.53467 240.993 6.92529C242.1 7.31592 243.04 7.84896 243.813 8.52441C244.594 9.19987 245.192 9.98926 245.607 10.8926C246.031 11.7959 246.242 12.7643 246.242 13.7979C246.242 14.8314 246.031 15.7998 245.607 16.7031C245.192 17.6064 244.594 18.3958 243.813 19.0713C243.04 19.7467 242.1 20.2798 240.993 20.6704C239.895 21.061 238.658 21.2563 237.282 21.2563C235.907 21.2563 234.666 21.061 233.559 20.6704C232.46 20.2798 231.521 19.7467 230.739 19.0713C229.966 18.3958 229.368 17.6064 228.945 16.7031C228.53 15.7998 228.322 14.8314 228.322 13.7979ZM232.119 13.7979C232.119 14.3757 232.233 14.925 232.46 15.4458C232.696 15.9585 233.034 16.4142 233.474 16.813C233.921 17.2036 234.462 17.5169 235.097 17.7529C235.74 17.9808 236.468 18.0947 237.282 18.0947C238.096 18.0947 238.82 17.9808 239.455 17.7529C240.098 17.5169 240.639 17.2036 241.079 16.813C241.526 16.4142 241.864 15.9585 242.092 15.4458C242.328 14.925 242.446 14.3757 242.446 13.7979C242.446 13.2201 242.328 12.6707 242.092 12.1499C241.864 11.6291 241.526 11.1733 241.079 10.7827C240.639 10.384 240.098 10.0706 239.455 9.84277C238.82 9.60677 238.096 9.48877 237.282 9.48877C236.468 9.48877 235.74 9.60677 235.097 9.84277C234.462 10.0706 233.921 10.384 233.474 10.7827C233.034 11.1733 232.696 11.6291 232.46 12.1499C232.233 12.6707 232.119 13.2201 232.119 13.7979ZM249.892 6.5957H253.505V7.81641C254.466 7.27116 255.381 6.88867 256.252 6.66895C257.131 6.44922 257.989 6.33936 258.828 6.33936C259.926 6.33936 260.944 6.50212 261.879 6.82764C262.815 7.14502 263.625 7.62109 264.309 8.25586C264.992 8.89062 265.525 9.68408 265.908 10.6362C266.298 11.5802 266.494 12.6748 266.494 13.9199V21H262.893V14.5059C262.893 13.7165 262.779 13.0125 262.551 12.394C262.331 11.7674 262.01 11.2425 261.586 10.8193C261.171 10.388 260.663 10.0625 260.061 9.84277C259.466 9.61491 258.799 9.50098 258.059 9.50098C257.668 9.50098 257.265 9.54167 256.85 9.62305C256.443 9.70443 256.04 9.82243 255.642 9.97705C255.251 10.1235 254.873 10.3107 254.506 10.5386C254.14 10.7583 253.806 11.0106 253.505 11.2954V21H249.892V6.5957ZM271.511 16.5811C272.487 17.167 273.562 17.5983 274.733 17.875C275.905 18.1517 277.106 18.29 278.334 18.29C279.165 18.29 279.856 18.2331 280.41 18.1191C280.963 18.0052 281.407 17.8587 281.74 17.6797C282.074 17.5007 282.31 17.2972 282.448 17.0693C282.587 16.8415 282.656 16.6095 282.656 16.3735C282.656 16.0317 282.505 15.7388 282.204 15.4946C281.911 15.2505 281.423 15.1284 280.739 15.1284C280.422 15.1284 280.08 15.1488 279.714 15.1895C279.348 15.2301 278.961 15.2749 278.554 15.3237C278.155 15.3644 277.736 15.4051 277.297 15.4458C276.866 15.4865 276.426 15.5068 275.979 15.5068C275.002 15.5068 274.168 15.401 273.476 15.1895C272.792 14.9779 272.235 14.689 271.804 14.3228C271.372 13.9565 271.059 13.5252 270.864 13.0288C270.668 12.5243 270.571 11.9831 270.571 11.4053C270.571 10.6729 270.742 9.9974 271.083 9.37891C271.425 8.76042 271.914 8.22738 272.548 7.77979C273.183 7.32406 273.948 6.97005 274.843 6.71777C275.747 6.46549 276.752 6.33936 277.858 6.33936C278.436 6.33936 279.038 6.37598 279.665 6.44922C280.3 6.51432 280.922 6.60384 281.533 6.71777C282.143 6.83171 282.729 6.96598 283.291 7.12061C283.852 7.26709 284.348 7.42578 284.78 7.59668L283.645 10.4043C282.725 10.0625 281.805 9.79395 280.886 9.59863C279.974 9.39518 279.034 9.29346 278.066 9.29346C277.39 9.29346 276.817 9.34635 276.345 9.45215C275.881 9.5498 275.502 9.68408 275.209 9.85498C274.917 10.0177 274.701 10.209 274.562 10.4287C274.432 10.6403 274.367 10.8641 274.367 11.1001C274.367 11.271 274.4 11.4256 274.465 11.564C274.538 11.7023 274.652 11.8244 274.807 11.9302C274.969 12.0278 275.177 12.1051 275.429 12.1621C275.69 12.2109 276.007 12.2354 276.381 12.2354C276.723 12.2354 277.085 12.215 277.468 12.1743C277.85 12.1336 278.249 12.0929 278.664 12.0522C279.079 12.0034 279.506 11.9587 279.946 11.918C280.393 11.8773 280.849 11.8569 281.313 11.8569C282.176 11.8569 282.928 11.9587 283.571 12.1621C284.222 12.3656 284.759 12.6504 285.183 13.0166C285.606 13.3828 285.923 13.8141 286.135 14.3105C286.346 14.807 286.452 15.3481 286.452 15.9341C286.452 16.6909 286.277 17.3949 285.927 18.0459C285.577 18.6969 285.056 19.2625 284.365 19.7427C283.673 20.2147 282.81 20.585 281.777 20.8535C280.751 21.1221 279.563 21.2563 278.212 21.2563C277.382 21.2563 276.581 21.2035 275.808 21.0977C275.035 21 274.298 20.8657 273.598 20.6948C272.898 20.5158 272.239 20.3083 271.621 20.0723C271.01 19.8363 270.453 19.584 269.948 19.3154L271.511 16.5811ZM291.884 9.30566H288.405V6.5957H291.884V2.11572H295.498V6.5957H298.977V9.30566H295.498V21H291.884V9.30566ZM302.187 6.5957H305.8V8.6709C306.598 8.07682 307.44 7.56413 308.327 7.13281C309.214 6.7015 310.097 6.37191 310.976 6.14404L312.038 9.45215C310.646 9.59049 309.422 9.90381 308.364 10.3921C307.314 10.8722 306.459 11.5518 305.8 12.4307V21H302.187V6.5957ZM314.736 6.5835H318.337V13.6147C318.337 14.2821 318.41 14.8924 318.557 15.4458C318.703 15.991 318.951 16.459 319.301 16.8496C319.659 17.2402 320.131 17.5454 320.717 17.7651C321.311 17.9767 322.048 18.0825 322.927 18.0825C323.342 18.0825 323.761 18.0378 324.184 17.9482C324.615 17.8587 325.026 17.7367 325.417 17.582C325.808 17.4193 326.17 17.228 326.503 17.0083C326.845 16.7886 327.138 16.5485 327.382 16.2881V6.5835H330.996V21H327.382V19.7671C326.495 20.2961 325.604 20.6745 324.709 20.9023C323.814 21.1302 322.963 21.2441 322.158 21.2441C320.839 21.2441 319.708 21.0854 318.764 20.7681C317.828 20.4507 317.059 19.9909 316.457 19.3887C315.863 18.7783 315.428 18.0337 315.151 17.1548C314.874 16.2677 314.736 15.2586 314.736 14.1274V6.5835ZM334.719 13.8345C334.719 12.7765 334.91 11.7918 335.292 10.8804C335.683 9.96077 336.249 9.16732 336.989 8.5C337.738 7.82454 338.649 7.29557 339.724 6.91309C340.806 6.5306 342.039 6.33936 343.422 6.33936C344.025 6.33936 344.631 6.37598 345.241 6.44922C345.852 6.52246 346.438 6.62826 346.999 6.7666C347.569 6.89681 348.102 7.0555 348.598 7.24268C349.095 7.42171 349.526 7.62109 349.892 7.84082L348.22 10.563C347.43 10.1968 346.682 9.92822 345.974 9.75732C345.274 9.58643 344.562 9.50098 343.837 9.50098C343.007 9.50098 342.263 9.61084 341.604 9.83057C340.944 10.0422 340.383 10.3433 339.919 10.7339C339.463 11.1164 339.113 11.5721 338.869 12.1011C338.633 12.6219 338.515 13.1916 338.515 13.8101C338.515 14.4285 338.641 15.0023 338.894 15.5312C339.154 16.0521 339.516 16.5037 339.98 16.8862C340.452 17.2606 341.018 17.5576 341.677 17.7773C342.344 17.9889 343.085 18.0947 343.898 18.0947C344.794 18.0947 345.636 17.9686 346.425 17.7163C347.223 17.464 347.963 17.1263 348.647 16.7031L350.319 19.4253C349.888 19.6857 349.42 19.9299 348.916 20.1577C348.411 20.3774 347.87 20.5687 347.292 20.7314C346.722 20.8942 346.12 21.0203 345.485 21.1099C344.859 21.2075 344.208 21.2563 343.532 21.2563C342.157 21.2563 340.924 21.0692 339.833 20.6948C338.743 20.3205 337.819 19.8037 337.062 19.1445C336.306 18.4772 335.724 17.6919 335.317 16.7886C334.918 15.8853 334.719 14.9006 334.719 13.8345ZM356.386 9.30566H352.907V6.5957H356.386V2.11572H360V6.5957H363.479V9.30566H360V21H356.386V9.30566ZM365.822 13.7979C365.822 12.7643 366.03 11.7959 366.445 10.8926C366.868 9.98926 367.466 9.19987 368.239 8.52441C369.021 7.84896 369.96 7.31592 371.059 6.92529C372.166 6.53467 373.407 6.33936 374.782 6.33936C376.158 6.33936 377.395 6.53467 378.493 6.92529C379.6 7.31592 380.54 7.84896 381.313 8.52441C382.094 9.19987 382.692 9.98926 383.107 10.8926C383.531 11.7959 383.742 12.7643 383.742 13.7979C383.742 14.8314 383.531 15.7998 383.107 16.7031C382.692 17.6064 382.094 18.3958 381.313 19.0713C380.54 19.7467 379.6 20.2798 378.493 20.6704C377.395 21.061 376.158 21.2563 374.782 21.2563C373.407 21.2563 372.166 21.061 371.059 20.6704C369.96 20.2798 369.021 19.7467 368.239 19.0713C367.466 18.3958 366.868 17.6064 366.445 16.7031C366.03 15.7998 365.822 14.8314 365.822 13.7979ZM369.619 13.7979C369.619 14.3757 369.733 14.925 369.96 15.4458C370.196 15.9585 370.534 16.4142 370.974 16.813C371.421 17.2036 371.962 17.5169 372.597 17.7529C373.24 17.9808 373.968 18.0947 374.782 18.0947C375.596 18.0947 376.32 17.9808 376.955 17.7529C377.598 17.5169 378.139 17.2036 378.579 16.813C379.026 16.4142 379.364 15.9585 379.592 15.4458C379.828 14.925 379.946 14.3757 379.946 13.7979C379.946 13.2201 379.828 12.6707 379.592 12.1499C379.364 11.6291 379.026 11.1733 378.579 10.7827C378.139 10.384 377.598 10.0706 376.955 9.84277C376.32 9.60677 375.596 9.48877 374.782 9.48877C373.968 9.48877 373.24 9.60677 372.597 9.84277C371.962 10.0706 371.421 10.384 370.974 10.7827C370.534 11.1733 370.196 11.6291 369.96 12.1499C369.733 12.6707 369.619 13.2201 369.619 13.7979ZM387.392 6.5957H391.005V8.6709C391.803 8.07682 392.645 7.56413 393.532 7.13281C394.419 6.7015 395.302 6.37191 396.181 6.14404L397.243 9.45215C395.852 9.59049 394.627 9.90381 393.569 10.3921C392.519 10.8722 391.665 11.5518 391.005 12.4307V21H387.392V6.5957Z" fill="black"/>
</svg>
