<?xml version="1.0" encoding="utf-8"?>
<!-- Generator: Adobe Illustrator 26.0.2, SVG Export Plug-In . SVG Version: 6.00 Build 0)  -->
<svg version="1.1" id="Layer_1" xmlns="http://www.w3.org/2000/svg" xmlns:xlink="http://www.w3.org/1999/xlink" x="0px" y="0px"
	 viewBox="0 0 40 40" style="enable-background:new 0 0 40 40;" xml:space="preserve">
<style type="text/css">
	.st0{display:none;fill:none;stroke:#000000;stroke-width:3;stroke-miterlimit:10;}
	.st1{display:none;fill:none;stroke:#000000;stroke-miterlimit:10;}
	.st2{display:none;fill:none;stroke:#777777;stroke-miterlimit:10;stroke-dasharray:6,2;}
	.st3{fill:none;stroke:#000000;stroke-miterlimit:10;}
	.st4{fill:none;stroke:#777777;stroke-miterlimit:10;stroke-dasharray:4,2;}
</style>
<line class="st0" x1="92.5" y1="30.5" x2="91.5" y2="30.5"/>
<path class="st1" d="M7.3,8.7c0,4.5,0,18.5,0,22.8c0,0.7,0.6,1.3,1.3,1.3l23.6,0c0.3,0,0.6-0.3,0.6-0.6c0.4-15.4-9.9-24.9-24-24.9
	C7.9,7.3,7.3,7.9,7.3,8.7z"/>
<path class="st2" d="M32.7,8.7c0,4.5,0,18.5,0,22.8c0,0.7-0.6,1.3-1.3,1.3l-23.6,0c-0.3,0-0.6-0.3-0.6-0.6
	c-0.4-15.4,9.9-24.9,24-24.9C32.1,7.3,32.7,7.9,32.7,8.7z"/>
<path class="st3" d="M12.3,4.9c0,2.8,0,11.6,0,14.3c0,0.4,0.4,0.8,0.8,0.8l14.8,0c0.2,0,0.4-0.2,0.4-0.4C28.6,10,22.1,4,13.2,4
	C12.7,4,12.3,4.4,12.3,4.9z"/>
<line class="st3" x1="7.2" y1="20" x2="32.8" y2="20"/>
<path class="st4" d="M12.3,35.1c0-2.8,0-11.6,0-14.3c0-0.4,0.4-0.8,0.8-0.8l14.8,0c0.2,0,0.4,0.2,0.4,0.4C28.6,30,22.1,36,13.2,36
	C12.7,36,12.3,35.6,12.3,35.1z"/>
</svg>
