<svg width="23" height="36" viewBox="0 0 23 36" fill="none" xmlns="http://www.w3.org/2000/svg">
<path d="M19.6 34.9064L22.3125 33.4533V9.06637L19.6 10.5195V34.9064Z" stroke="black" stroke-miterlimit="10" stroke-linecap="round" stroke-linejoin="round"/>
<path fill-rule="evenodd" clip-rule="evenodd" d="M1 2.5L3.5 1L22 9V33.5L19.5 35L13.5 32.4054V15L9 13V27.5L5.95182 29.1413L1 27V2.5Z" fill="white"/>
<path d="M13.5001 32.5L19.6001 34.9062L19.6001 10.5L1.0001 2.45312L1.00009 27.142L5.65009 29.083" stroke="black" stroke-miterlimit="10" stroke-linecap="round" stroke-linejoin="round"/>
<path d="M1.00014 2.49301L19.7954 10.4937L22.2173 9.00074L3.42201 1L1.00014 2.49301Z" stroke="black" stroke-miterlimit="10" stroke-linecap="round" stroke-linejoin="round"/>
<path d="M6 11.6001V29.1347L9 27.6692V18.9019V13.1347" stroke="black" stroke-miterlimit="10" stroke-linecap="round" stroke-linejoin="round"/>
<path d="M13.5 15.1348H14C14 14.9405 13.8875 14.7638 13.7114 14.6817L13.5 15.1348ZM5.78856 12.0879L13.2886 15.5879L13.7114 14.6817L6.21144 11.1817L5.78856 12.0879ZM13 15.1348V32.9H14V15.1348H13Z" fill="black"/>
</svg>
