<svg id="Layer_1" data-name="Layer 1" xmlns="http://www.w3.org/2000/svg" viewBox="0 0 98.93 98.79"><defs><style>.cls-1{fill:#faa61a;}.cls-2{fill:#fff;}</style></defs><path class="cls-1" d="M.54,49.94C1,22.66,22.19.49,50.47.6a49,49,0,0,1,49,49.48A48.94,48.94,0,0,1,50,99.4C22.2,99.36.88,77.37.54,49.94Z" transform="translate(-0.54 -0.6)"/><path class="cls-2" d="M50.9,21.25c1,.18,1.92.3,2.85.55,5.7,1.54,9.31,5.13,10.48,11a13,13,0,0,1-2,9.49l-.44.74.68,0c1.76,0,3.52,0,5.28,0a2.84,2.84,0,0,1,2.33,4.33,2.8,2.8,0,0,1-2.53,1.39c-3.52,0-7,0-10.55,0a1.73,1.73,0,0,0-.95.33c-1.79,1.3-3.55,2.63-5.32,4l-.55.42H67.57a2.87,2.87,0,0,1,.36,5.72c-.3,0-.6,0-.9,0-7.32,0-14.63,0-22,0a.84.84,0,0,0-.87.51,9.17,9.17,0,0,0,.38,10.07,7.06,7.06,0,0,0,4.71,2.88,17.8,17.8,0,0,0,9.58-1,29.77,29.77,0,0,1,3-1.07,2.94,2.94,0,0,1,3,1.85,2.35,2.35,0,0,1-.61,3,8.58,8.58,0,0,1-1.82,1,26.43,26.43,0,0,1-11.56,2.28c-6.71-.29-11.74-4.26-13.3-10.51A15.4,15.4,0,0,1,38,59.87l.2-.64c-1.85,0-3.65,0-5.44,0a4.87,4.87,0,0,1-1.32-.16,2.86,2.86,0,0,1,.79-5.58c2.94,0,5.88,0,8.82,0a1.2,1.2,0,0,0,.87-.38c1.47-1.32,3-2.61,4.47-3.91l.54-.44h-.73c-4.61,0-9.21,0-13.82,0a2.83,2.83,0,0,1-2.86-2.29A2.86,2.86,0,0,1,32.12,43c.73,0,1.46,0,2.19,0H53.79a1.26,1.26,0,0,0,1-.41,13.59,13.59,0,0,0,3.5-5.27,7.53,7.53,0,0,0-3.33-8.89A12.09,12.09,0,0,0,47.42,27a18.36,18.36,0,0,0-6.29,1.91,4.73,4.73,0,0,1-1.52.52A2.71,2.71,0,0,1,36.84,28a2.48,2.48,0,0,1-.07-2.89A3.6,3.6,0,0,1,38,24.07a24.63,24.63,0,0,1,9.18-2.72,1.6,1.6,0,0,0,.31-.1Z" transform="translate(-0.54 -0.6)"/></svg>