<?xml version="1.0" encoding="utf-8"?>
<!-- Generator: Adobe Illustrator 26.0.2, SVG Export Plug-In . SVG Version: 6.00 Build 0)  -->
<svg version="1.1" id="Layer_1" xmlns="http://www.w3.org/2000/svg" xmlns:xlink="http://www.w3.org/1999/xlink" x="0px" y="0px"
	 viewBox="0 0 98.9 98.8" style="enable-background:new 0 0 98.9 98.8;" xml:space="preserve">
<style type="text/css">
	.st0{fill:#FAA61A;}
	.st1{fill:#FFFFFF;}
</style>
<path class="st0" d="M0,49.3C0.5,22.1,21.6-0.1,49.9,0c27.1,0,49,21.9,49,49c0,0.2,0,0.3,0,0.5c0.2,27-21.5,49.1-48.6,49.3
	c-0.3,0-0.6,0-0.9,0C21.7,98.8,0.3,76.8,0,49.3z M46.6,26.2c-1.4,0.1-2.4,0.2-3.4,0.3c-7.1,1.2-11.9,7.9-10.7,14.9
	c1,6.1,6.2,10.7,12.4,10.9c3.1,0.1,6.2-0.1,9.3,0.1c3.9,0.2,6.9,3.5,6.8,7.4c0,1.1-0.4,2.2-0.9,3.2c-1.2,2.3-3.6,3.7-6.2,3.6H38.3
	c-1.6,0-3,0.4-3.6,2.1c-0.5,1.5,0.1,2.7,2.1,3.8h9.8c0,1.8,0,3.1,0,4.5c0.1,3.2,1,3.8,4.4,3.4c2.7-2,0.6-5.3,1.9-7.8
	c0.8-0.1,1.5-0.1,2.3-0.2c7.1-0.9,12.1-7.5,11.2-14.6c-0.8-6.1-5.9-10.9-12-11.3c-3.2-0.1-6.5,0.1-9.7-0.1c-3.9-0.2-6.9-3.5-6.7-7.4
	c0.1-1.1,0.4-2.2,1-3.2c1.3-2.3,3.7-3.7,6.3-3.5c5,0,9.9,0,14.9,0c1.6,0,3-0.4,3.6-2.1c0.6-1.7-0.2-2.7-2.1-3.8h-8.7
	c-1.1-2.9,0.8-6.1-2-8c-3.3-0.2-4.1,0.4-4.2,3.4C46.5,23.1,46.6,24.5,46.6,26.2z"/>
<path class="st1" d="M46.6,26.2c0-1.6,0-3.1,0-4.5c0.1-3,0.9-3.6,4.2-3.4c2.9,2,0.9,5.2,2,8h8.7c1.9,1.2,2.7,2.3,2.1,3.8
	c-0.5,1.6-2,2.1-3.6,2.1c-5,0-9.9,0-14.9,0c-2.6-0.1-5,1.3-6.3,3.5c-2,3.4-0.9,7.7,2.5,9.7c1,0.6,2.1,0.9,3.2,1
	c3.2,0.2,6.5,0,9.7,0.1c7.2,0.3,12.7,6.4,12.4,13.5c-0.3,6.4-5.2,11.7-11.6,12.4c-0.8,0.1-1.6,0.2-2.3,0.2c-1.3,2.6,0.8,5.8-1.9,7.8
	c-3.4,0.5-4.3-0.2-4.4-3.4c0-1.4,0-2.7,0-4.5h-9.8c-2-1.2-2.6-2.3-2.1-3.8c0.6-1.7,2-2.1,3.6-2.1h15.5c2.6,0.1,5-1.3,6.2-3.6
	c2-3.4,0.8-7.7-2.6-9.7c-1-0.6-2.1-0.9-3.3-0.9c-3.1-0.2-6.2,0-9.3-0.1c-7.2-0.2-12.8-6.2-12.6-13.4c0.2-6.2,4.7-11.4,10.9-12.4
	C44.2,26.3,45.2,26.3,46.6,26.2z"/>
</svg>
