<svg id="Layer_1" data-name="Layer 1" xmlns="http://www.w3.org/2000/svg" viewBox="0 0 98.93 98.79"><defs><style>.cls-1{fill:#faa61a;}.cls-2{fill:#fff;}</style></defs><path class="cls-1" d="M.54,49.94C1,22.66,22.19.49,50.47.6a49,49,0,0,1,49,49.48A48.94,48.94,0,0,1,50,99.4C22.2,99.36.88,77.37.54,49.94Z" transform="translate(-0.54 -0.6)"/><path class="cls-2" d="M29.35,74.44v-1a2.72,2.72,0,0,1,2.72-2.72h6.31V53H33.71A2.72,2.72,0,0,1,31,50.29v0a2.72,2.72,0,0,1,2.72-2.73h4.76c0-2.65-.08-5.16,0-7.67a55.1,55.1,0,0,1,.65-8.44c1.55-8.09,6.33-12,14.77-12.37a28.69,28.69,0,0,1,11.5,1.89,1.94,1.94,0,0,1,1.28,1.61c0,.69,0,.78,0,1.48a2.73,2.73,0,0,1-3.82,2.51l-.07,0a16.39,16.39,0,0,0-9.57-1.23c-3.15.58-5.41,2.21-6.18,5.41a29.46,29.46,0,0,0-.92,5.65c-.14,3.65,0,7.3,0,11.16h12a2.72,2.72,0,0,1,2.72,2.72h0a2.72,2.72,0,0,1-2.72,2.73h-12V70.71H64.71a2.72,2.72,0,0,1,2.72,2.72v1a2.72,2.72,0,0,1-2.72,2.72H32.07A2.72,2.72,0,0,1,29.35,74.44Z" transform="translate(-0.54 -0.6)"/></svg>