# Blender v2.93.4 OBJ File: ''
# www.blender.org
mtllib wallTest.mtl
o Cube_Cube.002
v -0.500000 -0.000000 1.000000
v -0.500000 0.500000 1.000000
v -0.500000 0.500000 0.000000
v -0.500000 0.000000 0.000000
v 0.500000 0.000000 0.000000
v 0.500000 0.500000 0.000000
v 0.500000 0.500000 1.000000
v 0.500000 -0.000000 1.000000
v -0.500000 -0.500000 -0.000000
v 0.500000 -0.500000 -0.000000
v 0.500000 -0.500000 1.000000
v -0.500000 -0.500000 1.000000
vt 0.500000 0.000000
vt 0.625000 0.000000
vt 0.625000 0.250000
vt 0.500000 0.250000
vt 0.500000 0.500000
vt 0.625000 0.500000
vt 0.625000 0.750000
vt 0.500000 0.750000
vt 0.625000 1.000000
vt 0.500000 1.000000
vt 0.125000 0.500000
vt 0.375000 0.500000
vt 0.375000 0.750000
vt 0.125000 0.750000
vt 0.875000 0.500000
vt 0.875000 0.750000
vt 0.375000 1.000000
vt 0.375000 0.000000
vt 0.375000 0.250000
vn -1.0000 0.0000 0.0000
vn 1.0000 0.0000 0.0000
vn 0.0000 -0.0000 1.0000
vn 0.0000 -1.0000 -0.0000
vn 0.0000 1.0000 0.0000
vn 0.0000 0.0000 -1.0000
usemtl None
s off
f 1/1/1 2/2/1 3/3/1 4/4/1
f 5/5/2 6/6/2 7/7/2 8/8/2
f 8/8/3 7/7/3 2/9/3 1/10/3
f 9/11/4 10/12/4 11/13/4 12/14/4
f 6/6/5 3/15/5 2/16/5 7/7/5
f 11/13/3 8/8/3 1/10/3 12/17/3
f 10/12/2 5/5/2 8/8/2 11/13/2
f 12/18/1 1/1/1 4/4/1 9/19/1
f 3/15/6 6/6/6 5/5/6 4/4/6
f 9/11/6 4/4/6 5/5/6 10/12/6
